<?xml version="1.0" encoding="UTF-8" standalone="no"?>
<!DOCTYPE svg PUBLIC "-//W3C//DTD SVG 1.1//EN" "http://www.w3.org/Graphics/SVG/1.1/DTD/svg11.dtd">
<svg width="100%" height="100%" viewBox="0 0 1000 1000" version="1.1" xmlns="http://www.w3.org/2000/svg" xmlns:xlink="http://www.w3.org/1999/xlink" xml:space="preserve" xmlns:serif="http://www.serif.com/" style="fill-rule:evenodd;clip-rule:evenodd;stroke-linejoin:round;stroke-miterlimit:2;">
    <g transform="matrix(0.721425,0,0,0.721425,967.485,500.001)">
        <g id="mark">
            <path id="core" d="M0,-0.004C0,-59.65 -48.353,-108.004 -108,-108.004C-167.646,-108.004 -216,-59.65 -216,-0.004L-216.021,-0.004L-216.021,-0.002L-216.004,-0.002C-216.004,0.892 -216.016,1.785 -216.021,2.679L-216.021,3.637L-216.027,3.637C-217.983,240.551 -410.629,431.998 -648.004,431.998C-886.584,431.998 -1080,238.588 -1080,-0.002C-1080,-238.592 -886.584,-432.002 -648.004,-432.002C-598.904,-432.002 -551.723,-423.79 -507.746,-408.695C-463.98,-394.903 -432.242,-353.997 -432.242,-305.674C-432.242,-246.027 -480.596,-197.674 -540.242,-197.674C-552.842,-197.674 -564.934,-199.828 -576.177,-203.794L-576.185,-203.794C-598.655,-211.704 -622.825,-216.002 -648.004,-216.002C-767.294,-216.002 -864.004,-119.292 -864.004,-0.002C-864.004,119.288 -767.294,215.998 -648.004,215.998C-528.705,215.998 -432.004,119.288 -432.004,-0.002L-432,-0.002L-432,-0.004C-432,-178.947 -286.938,-324.009 -107.995,-324.009C-100.695,-324.009 -93.458,-323.743 -86.279,-323.268C-162.457,-455.354 -283.878,-558.057 -429.385,-610.192C-497.685,-634.672 -571.285,-648.002 -648.004,-648.002C-1005.88,-648.002 -1296,-357.882 -1296,-0.002C-1296,357.878 -1005.88,647.998 -648.004,647.998C-290.358,647.998 -0.404,358.272 -0.009,0.728C-0.007,0.484 0,0.241 0,-0.004" style="fill:rgb(70,181,73);fill-rule:nonzero;"/>
        </g>
    </g>
</svg>
