<svg width="52" height="50" viewBox="0 0 52 50" fill="none" xmlns="http://www.w3.org/2000/svg">
<path d="M51.076 22.9L50.976 22.5C50.976 22.3 50.876 22 50.876 21.8C50.276 16.9 48.176 12.3 44.976 8.60001L44.176 7.69998L47.276 7.39999L47.076 4.60001L38.776 5.29999L39.476 13.5L42.276 13.3L41.976 9.60001L43.176 11C48.176 17 49.576 25.3 46.776 32.6C42.376 44.1 29.576 49.9 18.076 45.5C10.1761 42.5 4.676 35.3 3.776 27C3.276 22.3 4.37598 17.5 6.87598 13.5C11.176 6.69997 17.576 3.09998 25.876 2.69998V0H23.676C23.376 0.1 22.976 0.0999817 22.576 0.199982C21.7761 0.299982 20.876 0.499982 19.976 0.699982C14.176 1.99998 9.07605 5.39998 5.57605 10.2C2.97605 13.7 1.37598 17.8 0.875976 22.1C-0.524024 34.4 7.376 45.9 19.276 49C32.676 52.6 46.4761 44.6 50.076 31.2C50.2761 30.5 50.376 29.8 50.576 29.1C50.676 28.6 50.776 28.1 50.776 27.6L50.876 26.8L51.076 22.9ZM25.976 15.7C20.876 15.7 16.676 19.9 16.776 25.1C16.776 30.2 20.976 34.4 26.176 34.3C31.276 34.3 35.376 30.1 35.376 25C35.376 19.9 31.176 15.7 25.976 15.7ZM25.976 30.5C22.976 30.5 20.576 28 20.576 25C20.576 22 23.076 19.6 26.076 19.6C29.076 19.6 31.476 22.1 31.476 25C31.476 28 28.976 30.5 25.976 30.5Z" fill="#46B549"/>
</svg>
