<svg width="48" height="48" viewBox="0 0 48 48" fill="none" xmlns="http://www.w3.org/2000/svg">
<path d="M8.80005 7.61005L3.30005 2.11005H8.40009C8.70009 2.11005 8.90009 1.91005 8.90009 1.61005V0.910034C8.90009 0.810034 8.80007 0.61001 8.70007 0.51001C8.60007 0.41001 8.50005 0.309998 8.30005 0.309998H0.800049C0.700049 0.309998 0.500061 0.310034 0.500061 0.410034C0.400061 0.510034 0.300049 0.609998 0.300049 0.809998V8.31C0.300049 8.61 0.500049 8.81 0.800049 8.81H1.50006C1.80006 8.81 2.00006 8.61 2.00006 8.31V3.21002L7.6001 8.81C7.7001 8.91 7.80006 8.91001 8.00006 9.01001C8.10006 9.01001 8.30009 8.91 8.40009 8.81L8.90009 8.31C9.00009 8.21 9.00006 8.11001 9.00006 8.01001C9.00006 7.81001 8.90005 7.71005 8.80005 7.61005ZM47.6001 39.31C47.5001 39.21 47.4001 39.11 47.2001 39.11H46.5001C46.4001 39.11 46.2001 39.21 46.1001 39.31C46.0001 39.41 45.9001 39.51 45.9001 39.71V44.81L40.3 39.21C40.2001 39.11 40.1001 39.11 39.9001 39.01C39.8001 39.01 39.6001 39.11 39.5001 39.21L39.0001 39.71C38.9001 39.81 38.9001 39.91 38.9001 40.11C38.9001 40.21 39.0001 40.41 39.1001 40.51L44.6001 46.01H39.7001C39.4001 46.01 39.2001 46.21 39.2001 46.51V47.21C39.2001 47.31 39.3001 47.51 39.4001 47.61C39.5001 47.71 39.6 47.81 39.8 47.81H47.3C47.4 47.81 47.6001 47.71 47.7001 47.61C47.8001 47.51 47.9001 47.41 47.9001 47.21V39.71C47.7001 39.51 47.6001 39.41 47.6001 39.31ZM8.30005 46.01H3.20007L8.80005 40.41C8.90005 40.31 8.90006 40.21 9.00006 40.01C9.00006 39.91 8.90005 39.71 8.80005 39.61L8.30005 39.11C8.10005 38.91 7.8001 38.91 7.6001 39.11L2.1001 44.61V39.71C2.1001 39.41 1.9001 39.21 1.6001 39.21H0.900085C0.800085 39.21 0.600061 39.31 0.500061 39.41C0.400061 39.51 0.300049 39.61 0.300049 39.81V47.31C0.300049 47.41 0.300085 47.51 0.400085 47.61C0.500085 47.71 0.600049 47.81 0.800049 47.81H8.30005C8.40005 47.81 8.60007 47.71 8.70007 47.61C8.80007 47.51 8.90009 47.41 8.90009 47.21V46.51C8.90009 46.41 8.80007 46.21 8.70007 46.11C8.60007 46.01 8.50005 46.01 8.30005 46.01ZM47.6001 0.51001C47.5001 0.41001 47.4001 0.309998 47.2001 0.309998H39.7001C39.4001 0.309998 39.2001 0.509998 39.2001 0.809998V1.51001C39.2001 1.81001 39.4001 2.01001 39.7001 2.01001H44.8L39.2001 7.61005C39.0001 7.81005 39.0001 8.21003 39.2001 8.41003L39.7001 8.91003C39.8001 9.01003 39.9001 9.01001 40.1001 9.01001C40.2001 9.01001 40.4001 8.91 40.5001 8.81L46.0001 3.31V8.41003C46.0001 8.71003 46.2001 8.91003 46.5001 8.91003H47.2001C47.5001 8.91003 47.7001 8.71003 47.7001 8.41003V0.910034C47.7001 0.710034 47.6001 0.51001 47.6001 0.51001ZM36.0001 12.01C29.4001 5.41001 18.7001 5.41001 12.0001 12.01C5.40006 18.61 5.40006 29.31 12.0001 36.01C18.6001 42.61 29.3001 42.61 36.0001 36.01C42.6001 29.41 42.6001 18.71 36.0001 12.01ZM33.7001 33.71C28.3001 39.11 19.6001 39.11 14.2001 33.71C8.80007 28.31 8.80007 19.61 14.2001 14.21C19.6001 8.81002 28.3001 8.81002 33.7001 14.21C39.1001 19.51 39.1 28.11 33.8 33.51C33.8 33.61 33.8001 33.71 33.7001 33.71Z" fill="#46B549"/>
</svg>
