<svg width="52" height="56" viewBox="0 0 52 56" fill="none" xmlns="http://www.w3.org/2000/svg">
<path d="M51.204 40.54C50.504 37.34 48.5039 34.64 45.8039 32.94C40.5039 29.64 33.604 30.84 29.704 35.74L29.404 36.04L20.8039 30.74L21.004 30.3399C22.204 27.7399 22.3039 24.64 21.3039 21.94L21.104 21.54L32.8039 14.8399L33.104 15.14C36.204 18.94 41.804 19.4399 45.604 16.3399C49.404 13.2399 49.9039 7.63995 46.8039 3.83995C43.7039 0.0399489 38.1039 -0.460002 34.3039 2.64C32.3039 4.34 31.104 6.83996 31.104 9.53996C31.104 10.74 31.3039 11.94 31.8039 13.04L32.004 13.44L20.404 20.04L20.104 19.64C16.704 14.74 10.004 13.54 5.10398 16.94C3.90398 17.74 2.90396 18.84 2.20396 20.04C-0.896042 25.04 0.604006 31.54 5.50401 34.74C5.50401 34.74 5.50398 34.74 5.60398 34.74C10.204 37.64 16.304 36.64 19.704 32.44L20.004 32.14L28.604 37.44L28.404 37.84C25.604 43.4399 27.604 50.14 32.904 53.44C38.604 57.04 46.1039 55.24 49.8039 49.64C51.4039 46.94 51.904 43.64 51.204 40.54ZM40.004 2.64C43.804 2.64 46.904 5.84 46.904 9.64C46.904 13.44 43.704 16.54 39.904 16.54C36.104 16.54 33.004 13.44 33.004 9.53996C33.004 5.73996 36.204 2.64 40.004 2.64ZM18.204 30.14C15.804 33.94 10.704 35.14 6.90403 32.74C3.10403 30.34 1.90393 25.34 4.30393 21.54C4.30393 21.54 4.30393 21.54 4.30393 21.44C6.70393 17.64 11.804 16.4399 15.604 18.8399C19.404 21.2399 20.604 26.24 18.204 30.14ZM47.104 48.14C44.404 52.44 38.704 53.74 34.404 51.04C30.104 48.44 28.804 42.74 31.404 38.44V38.34C34.104 34.04 39.804 32.74 44.104 35.44C48.504 38.14 49.804 43.74 47.104 48.14C47.104 48.04 47.104 48.04 47.104 48.14Z" fill="#46B549"/>
</svg>
