<svg width="48" height="48" viewBox="0 0 48 48" fill="none" xmlns="http://www.w3.org/2000/svg">
<path d="M16.3001 21.4999C18.7001 19.1999 22.4001 18.7999 25.3001 20.4999L27.6 18.2C25.8 16.9 23.6001 16.2 21.4001 16.2C18.7001 16.2 16 17.2 14 19.1L3.60002 29.4999C-0.499976 33.5999 -0.499976 40.2 3.60002 44.2C7.70002 48.2 14.3001 48.2999 18.3001 44.2L24.8001 37.7C23.5001 37.6 22.3 37.3 21.1 36.9L16.1 41.9C13.3 44.7 8.70007 44.7 5.90007 41.9C3.10007 39.1 3.10007 34.5 5.90007 31.7L16.3001 21.4999ZM37 0.599976C34.2001 0.599976 31.6 1.69998 29.6 3.59998L23 10.2C24.3 10.3 25.5001 10.5999 26.7001 10.9999L31.8001 5.89996C33.1001 4.49996 35.0001 3.79996 36.9001 3.79996C40.9001 3.79996 44.1 6.99994 44.1 10.9999C44.1 12.8999 43.3 14.7 42 16.1L31.6 26.4999C29.2 28.7999 25.5 29.2 22.6 27.4L20.3001 29.7C24.5001 32.7999 30.2001 32.4 33.9001 28.7L44.4001 18.4C46.4001 16.5 47.5 13.7999 47.5 10.9999C47.4001 5.29994 42.7001 0.599976 37 0.599976Z" fill="#46B549"/>
</svg>
