<svg width="63" height="58" viewBox="0 0 63 58" fill="none" xmlns="http://www.w3.org/2000/svg">
<path d="M32 34.7C25.6 34.7 20.4 40 20.5 46.4C20.5 52.8 25.7999 58 32.1999 57.9C38.5999 57.9 43.8 52.6999 43.8 46.2999C43.7 39.8999 38.4 34.7 32 34.7ZM32 55.2C27.1 55.2 23.2 51.1999 23.3 46.2999C23.3 41.3999 27.2999 37.4999 32.1999 37.5999C36.9999 37.5999 40.9 41.6 41 46.4C40.9 51.3 36.9 55.2 32 55.2Z" fill="#46B549"/>
<path d="M61.5 16.5H48.7C47.9 16.5 47.2 17.1 47.2 17.9C47.2 17.9 47.2 17.9 47.2 18V24.8H32.8V17.5H38.4C39.2 17.5 39.9 16.9 39.9 16.1C39.9 16.1 39.9 16.1 39.9 16V1.5C39.9 0.7 39.3 0 38.5 0C38.5 0 38.5 0 38.4 0H25.6C24.8 0 24.1 0.600024 24.1 1.40002C24.1 1.40002 24.1 1.4 24.1 1.5V16C24.1 16.8 24.7 17.5 25.5 17.5C25.5 17.5 25.5 17.5 25.6 17.5H31.1V24.8H16.7V18.3C16.7 17.5 16.1 16.8 15.3 16.8C15.3 16.8 15.3 16.8 15.2 16.8H2.40002C1.60002 16.8 0.900024 17.4 0.900024 18.2C0.900024 18.2 0.900024 18.2 0.900024 18.3V32.8C0.900024 33.6 1.50005 34.3 2.30005 34.3H2.40002H15.2C16 34.3 16.7 33.7 16.7 32.9V32.8V26.3H31.1V30.3H32.7V26.3H47.1V32.5C47.1 33.3 47.7 34 48.5 34H48.6H61.4C62.2 34 62.9 33.4 62.9 32.6V32.5V18C63 17.2 62.4 16.5 61.5 16.5ZM14.7 32.3H3.19995V19H14.7V32.3ZM26.2 15.4V2.09998H37.7V15.4H26.2ZM60.9 31.9H49.4V18.6H60.9V31.9Z" fill="#46B549"/>
</svg>
