<svg width="40" height="56" viewBox="0 0 40 56" fill="none" xmlns="http://www.w3.org/2000/svg">
<path d="M20 34.4C19.2 34.4 18.6 35 18.6 35.8V41.1C18.6 41.9 19.2 42.5 20 42.5C20.8 42.5 21.4 41.9 21.4 41.1V35.8C21.4 35 20.8 34.4 20 34.4ZM20 34.4C19.2 34.4 18.6 35 18.6 35.8V41.1C18.6 41.9 19.2 42.5 20 42.5C20.8 42.5 21.4 41.9 21.4 41.1V35.8C21.4 35 20.8 34.4 20 34.4ZM20 34.4C19.2 34.4 18.6 35 18.6 35.8V41.1C18.6 41.9 19.2 42.5 20 42.5C20.8 42.5 21.4 41.9 21.4 41.1V35.8C21.4 35 20.8 34.4 20 34.4ZM20 34.4C19.2 34.4 18.6 35 18.6 35.8V41.1C18.6 41.9 19.2 42.5 20 42.5C20.8 42.5 21.4 41.9 21.4 41.1V35.8C21.4 35 20.8 34.4 20 34.4ZM20 34.4C19.2 34.4 18.6 35 18.6 35.8V41.1C18.6 41.9 19.2 42.5 20 42.5C20.8 42.5 21.4 41.9 21.4 41.1V35.8C21.4 35 20.8 34.4 20 34.4ZM20 34.4C19.2 34.4 18.6 35 18.6 35.8V41.1C18.6 41.9 19.2 42.5 20 42.5C20.8 42.5 21.4 41.9 21.4 41.1V35.8C21.4 35 20.8 34.4 20 34.4ZM20 34.4C19.2 34.4 18.6 35 18.6 35.8V41.1C18.6 41.9 19.2 42.5 20 42.5C20.8 42.5 21.4 41.9 21.4 41.1V35.8C21.4 35 20.8 34.4 20 34.4ZM20 34.4C19.2 34.4 18.6 35 18.6 35.8V41.1C18.6 41.9 19.2 42.5 20 42.5C20.8 42.5 21.4 41.9 21.4 41.1V35.8C21.4 35 20.8 34.4 20 34.4ZM20 34.4C19.2 34.4 18.6 35 18.6 35.8V41.1C18.6 41.9 19.2 42.5 20 42.5C20.8 42.5 21.4 41.9 21.4 41.1V35.8C21.4 35 20.8 34.4 20 34.4ZM20 34.4C19.2 34.4 18.6 35 18.6 35.8V41.1C18.6 41.9 19.2 42.5 20 42.5C20.8 42.5 21.4 41.9 21.4 41.1V35.8C21.4 35 20.8 34.4 20 34.4ZM20 34.4C19.2 34.4 18.6 35 18.6 35.8V41.1C18.6 41.9 19.2 42.5 20 42.5C20.8 42.5 21.4 41.9 21.4 41.1V35.8C21.4 35 20.8 34.4 20 34.4ZM20 34.4C19.2 34.4 18.6 35 18.6 35.8V41.1C18.6 41.9 19.2 42.5 20 42.5C20.8 42.5 21.4 41.9 21.4 41.1V35.8C21.4 35 20.8 34.4 20 34.4ZM38.1 21H33.4V13.5C33.4 6.1 27.4 0 19.9 0C12.5 0 6.40002 6 6.40002 13.5V15.8H9.19995V13.5C9.09995 7.6 13.8 2.70001 19.7 2.70001C25.6 2.60001 30.5 7.30001 30.5 13.2C30.5 13.3 30.5 13.4 30.5 13.5V21H1.69995C0.899951 21 0.300049 21.6 0.300049 22.4V49.2C0.300049 49.8 0.700049 50.3 1.30005 50.5L19.4 55.8C19.7 55.9 19.9 55.9 20.2 55.8L38.3 50.4C38.9 50.2 39.3 49.7 39.3 49.1V22.3C39.5 21.7 38.9 21 38.1 21ZM36.7 48.2L36.3 48.3L20 53.1H19.8L3.19995 48.2V23.8H36.6L36.7 48.2ZM20 42.6C20.8 42.6 21.4 42 21.4 41.2V35.9C21.4 35.1 20.8 34.5 20 34.5C19.2 34.5 18.6 35.1 18.6 35.9V41.2C18.6 41.9 19.2 42.6 20 42.6ZM20 34.4C19.2 34.4 18.6 35 18.6 35.8V41.1C18.6 41.9 19.2 42.5 20 42.5C20.8 42.5 21.4 41.9 21.4 41.1V35.8C21.4 35 20.8 34.4 20 34.4ZM20 34.4C19.2 34.4 18.6 35 18.6 35.8V41.1C18.6 41.9 19.2 42.5 20 42.5C20.8 42.5 21.4 41.9 21.4 41.1V35.8C21.4 35 20.8 34.4 20 34.4ZM20 34.4C19.2 34.4 18.6 35 18.6 35.8V41.1C18.6 41.9 19.2 42.5 20 42.5C20.8 42.5 21.4 41.9 21.4 41.1V35.8C21.4 35 20.8 34.4 20 34.4ZM20 34.4C19.2 34.4 18.6 35 18.6 35.8V41.1C18.6 41.9 19.2 42.5 20 42.5C20.8 42.5 21.4 41.9 21.4 41.1V35.8C21.4 35 20.8 34.4 20 34.4ZM20 34.4C19.2 34.4 18.6 35 18.6 35.8V41.1C18.6 41.9 19.2 42.5 20 42.5C20.8 42.5 21.4 41.9 21.4 41.1V35.8C21.4 35 20.8 34.4 20 34.4ZM20 34.4C19.2 34.4 18.6 35 18.6 35.8V41.1C18.6 41.9 19.2 42.5 20 42.5C20.8 42.5 21.4 41.9 21.4 41.1V35.8C21.4 35 20.8 34.4 20 34.4ZM20 34.4C19.2 34.4 18.6 35 18.6 35.8V41.1C18.6 41.9 19.2 42.5 20 42.5C20.8 42.5 21.4 41.9 21.4 41.1V35.8C21.4 35 20.8 34.4 20 34.4ZM20 34.4C19.2 34.4 18.6 35 18.6 35.8V41.1C18.6 41.9 19.2 42.5 20 42.5C20.8 42.5 21.4 41.9 21.4 41.1V35.8C21.4 35 20.8 34.4 20 34.4ZM20 34.4C19.2 34.4 18.6 35 18.6 35.8V41.1C18.6 41.9 19.2 42.5 20 42.5C20.8 42.5 21.4 41.9 21.4 41.1V35.8C21.4 35 20.8 34.4 20 34.4ZM20 34.4C19.2 34.4 18.6 35 18.6 35.8V41.1C18.6 41.9 19.2 42.5 20 42.5C20.8 42.5 21.4 41.9 21.4 41.1V35.8C21.4 35 20.8 34.4 20 34.4ZM20 34.4C19.2 34.4 18.6 35 18.6 35.8V41.1C18.6 41.9 19.2 42.5 20 42.5C20.8 42.5 21.4 41.9 21.4 41.1V35.8C21.4 35 20.8 34.4 20 34.4ZM20 34.4C19.2 34.4 18.6 35 18.6 35.8V41.1C18.6 41.9 19.2 42.5 20 42.5C20.8 42.5 21.4 41.9 21.4 41.1V35.8C21.4 35 20.8 34.4 20 34.4Z" fill="#46B549"/>
</svg>
