<svg width="32" height="32" viewBox="0 0 32 32" fill="none" xmlns="http://www.w3.org/2000/svg">
<path d="M5 0.5H27C29.4853 0.5 31.5 2.51472 31.5 5V27C31.5 29.4853 29.4853 31.5 27 31.5H5C2.51472 31.5 0.5 29.4853 0.5 27V5C0.5 2.51472 2.51472 0.5 5 0.5Z" stroke="#303040"/>
<path fill-rule="evenodd" clip-rule="evenodd" d="M23.9998 16.0012C24.0035 17.9414 23.308 19.8181 22.0408 21.2873C20.7736 22.7566 19.0196 23.7199 17.0999 24.0012V18.3015H18.9998L19.3997 16.0012H17.2V14.5012C17.1874 14.3316 17.2133 14.1614 17.2757 14.0032C17.3381 13.845 17.4354 13.703 17.5603 13.5876C17.6853 13.4723 17.8347 13.3867 17.9973 13.3372C18.16 13.2876 18.3317 13.2755 18.4998 13.3015H19.4998V11.3015C18.9075 11.1778 18.305 11.1106 17.7 11.1013C17.2896 11.0712 16.8774 11.1315 16.493 11.2781C16.1085 11.4247 15.761 11.6543 15.4749 11.9499C15.1887 12.2456 14.9711 12.6004 14.8372 12.9895C14.7033 13.3786 14.6564 13.7922 14.7 14.2014V16.0012H12.7V18.3015H14.7V23.9016C13.1939 23.6536 11.7902 22.9796 10.6546 21.9597C9.51893 20.9398 8.69865 19.6162 8.2908 18.1453C7.88296 16.6743 7.90455 15.1176 8.35282 13.6584C8.80108 12.1993 9.65724 10.8986 10.8206 9.91039C11.9839 8.92217 13.4058 8.28769 14.9182 8.08129C16.4306 7.87489 17.9706 8.10549 19.3562 8.74584C20.7418 9.3862 21.9152 10.4094 22.7381 11.6951C23.5609 12.9807 23.9986 14.4748 23.9998 16.0012Z" fill="#77778C"/>
</svg>
