<svg width="32" height="32" viewBox="0 0 32 32" fill="none" xmlns="http://www.w3.org/2000/svg">
<path d="M5 0.5H27C29.4853 0.5 31.5 2.51472 31.5 5V27C31.5 29.4853 29.4853 31.5 27 31.5H5C2.51472 31.5 0.5 29.4853 0.5 27V5C0.5 2.51472 2.51472 0.5 5 0.5Z" stroke="#303040"/>
<path d="M25.3102 15.6406C25.2972 15.1056 25.0756 14.5968 24.6926 14.2231C24.3095 13.8494 23.7951 13.6405 23.2599 13.6406C22.7367 13.6402 22.2342 13.8446 21.86 14.2105C20.2465 13.1239 18.3552 12.5235 16.4103 12.4805L17.34 8.12061L20.34 8.75049C20.377 9.1156 20.5501 9.45351 20.8249 9.69678C21.0996 9.94005 21.456 10.071 21.8229 10.0635C22.1898 10.0559 22.5404 9.91015 22.8049 9.65576C23.0694 9.40138 23.2283 9.05675 23.2502 8.69043C23.2476 8.30403 23.0928 7.93437 22.8195 7.66114C22.5463 7.3879 22.1766 7.23309 21.7902 7.23047C21.5194 7.2299 21.2541 7.30686 21.0256 7.45215C20.797 7.59744 20.6146 7.80483 20.5002 8.0503L17.1203 7.33057C17.0248 7.30969 16.9249 7.32743 16.8425 7.37989C16.76 7.43234 16.7019 7.51504 16.6804 7.61035L15.6804 12.4805C13.7067 12.4988 11.7823 13.1007 10.1501 14.2105C9.76834 13.8501 9.26483 13.6468 8.73993 13.6406C8.23019 13.5525 7.70636 13.665 7.27801 13.9551C6.84966 14.2451 6.55047 14.6898 6.44305 15.1958C6.33563 15.7018 6.42826 16.2299 6.70184 16.6689C6.97543 17.108 7.40874 17.4238 7.91034 17.5503C7.87799 17.7554 7.86099 17.9628 7.86004 18.1704C7.86004 21.3104 11.5102 23.8403 16.0202 23.8403C20.5302 23.8403 24.1804 21.3104 24.1804 18.1704C24.1795 17.9694 24.1624 17.7687 24.1301 17.5703C24.4882 17.3919 24.789 17.1162 24.9977 16.7749C25.2064 16.4336 25.3147 16.0407 25.3102 15.6406V15.6406ZM11.3102 17.1006C11.3102 16.8114 11.3959 16.5284 11.5568 16.2881C11.7177 16.0478 11.9462 15.8607 12.2136 15.7505C12.4809 15.6403 12.7753 15.6123 13.0588 15.6694C13.3423 15.7266 13.6021 15.8666 13.8058 16.0718C14.0096 16.277 14.1481 16.5379 14.2033 16.8218C14.2585 17.1056 14.2279 17.3994 14.1159 17.666C14.0039 17.9326 13.8153 18.1601 13.5739 18.3193C13.3325 18.4786 13.0491 18.5625 12.7599 18.5605C12.378 18.5527 12.0146 18.3955 11.7473 18.1226C11.4799 17.8496 11.3302 17.4827 11.3303 17.1006H11.3102ZM19.4304 20.9404C18.4406 21.688 17.219 22.0634 15.9802 22.0005C14.7426 22.0533 13.5244 21.679 12.53 20.9404C12.4584 20.8688 12.4181 20.7717 12.4181 20.6704C12.4181 20.5691 12.4584 20.472 12.53 20.4004C12.6016 20.3288 12.6987 20.2886 12.8 20.2886C12.9013 20.2886 12.9984 20.3288 13.07 20.4004C13.9215 21.0088 14.9553 21.3087 16.0002 21.2505C17.0446 21.3039 18.0767 21.0045 18.9304 20.4004C19.0041 20.3329 19.1004 20.2954 19.2004 20.2954C19.3003 20.2954 19.3967 20.3329 19.4704 20.4004C19.5353 20.4749 19.5716 20.5697 19.5734 20.6685C19.5753 20.7672 19.5423 20.8636 19.4802 20.9404H19.4304ZM19.1701 18.5605C18.8813 18.5605 18.5992 18.4749 18.3591 18.3145C18.119 18.154 17.932 17.926 17.8215 17.6592C17.711 17.3924 17.6816 17.0986 17.738 16.8154C17.7943 16.5322 17.9337 16.2721 18.1379 16.0679C18.3421 15.8637 18.6022 15.7248 18.8854 15.6685C19.1686 15.6121 19.4619 15.641 19.7287 15.7515C19.9955 15.862 20.2235 16.0495 20.384 16.2896C20.5444 16.5296 20.6301 16.8118 20.6301 17.1006C20.6301 17.4844 20.4791 17.8527 20.2097 18.126C19.9402 18.3992 19.5739 18.5553 19.1901 18.5605H19.1701Z" fill="#77778C"/>
</svg>
