<svg width="20" height="17" viewBox="0 0 20 17" fill="none" xmlns="http://www.w3.org/2000/svg">
<path d="M19.3102 8.64063C19.2972 8.10565 19.0756 7.59685 18.6926 7.22315C18.3095 6.84945 17.7951 6.64047 17.2599 6.64063C16.7367 6.64017 16.2342 6.84463 15.86 7.21045C14.2465 6.12393 12.3552 5.5235 10.4103 5.48047L11.34 1.12061L14.34 1.75049C14.377 2.1156 14.5501 2.45351 14.8249 2.69678C15.0996 2.94005 15.456 3.07104 15.8229 3.06348C16.1898 3.05591 16.5404 2.91015 16.8049 2.65576C17.0694 2.40138 17.2283 2.05675 17.2502 1.69043C17.2476 1.30403 17.0928 0.934373 16.8195 0.661136C16.5463 0.387899 16.1766 0.233092 15.7902 0.230472C15.5194 0.229902 15.2541 0.306862 15.0256 0.452152C14.797 0.597441 14.6146 0.804826 14.5002 1.0503L11.1203 0.33057C11.0248 0.309687 10.9249 0.327429 10.8425 0.379886C10.76 0.432343 10.7019 0.515043 10.6804 0.610355L9.68036 5.48047C7.70669 5.49876 5.78229 6.10068 4.15008 7.21045C3.76834 6.85012 3.26483 6.64681 2.73993 6.64063C2.23019 6.55247 1.70636 6.66505 1.27801 6.95508C0.849663 7.24512 0.550469 7.68978 0.443052 8.1958C0.335634 8.70183 0.428256 9.22991 0.701841 9.66895C0.975426 10.108 1.40874 10.4238 1.91034 10.5503C1.87799 10.7554 1.86099 10.9628 1.86004 11.1704C1.86004 14.3104 5.5102 16.8403 10.0202 16.8403C14.5302 16.8403 18.1804 14.3104 18.1804 11.1704C18.1795 10.9694 18.1624 10.7687 18.1301 10.5703C18.4882 10.3919 18.789 10.1162 18.9977 9.77491C19.2064 9.43357 19.3147 9.04068 19.3102 8.64063ZM5.31024 10.1006C5.31025 9.8114 5.39595 9.5284 5.55682 9.28809C5.71769 9.04778 5.9462 8.86069 6.21356 8.75049C6.48092 8.64029 6.77529 8.61229 7.05877 8.66944C7.34226 8.72659 7.60206 8.86659 7.80584 9.07178C8.00963 9.27697 8.14811 9.53791 8.20331 9.82178C8.25851 10.1056 8.22794 10.3994 8.1159 10.666C8.00386 10.9326 7.81532 11.1601 7.57391 11.3193C7.3325 11.4786 7.04912 11.5625 6.75995 11.5605C6.37795 11.5527 6.0146 11.3955 5.74725 11.1226C5.4799 10.8496 5.33018 10.4827 5.33026 10.1006H5.31024ZM13.4304 13.9404C12.4406 14.688 11.219 15.0634 9.98016 15.0005C8.74262 15.0533 7.52436 14.679 6.52997 13.9404C6.45836 13.8688 6.41815 13.7717 6.41815 13.6704C6.41815 13.5691 6.45836 13.472 6.52997 13.4004C6.60157 13.3288 6.69872 13.2886 6.79999 13.2886C6.90126 13.2886 6.9984 13.3288 7.07 13.4004C7.92154 14.0088 8.95526 14.3087 10.0002 14.2505C11.0446 14.3039 12.0767 14.0045 12.9304 13.4004C13.0041 13.3329 13.1004 13.2954 13.2004 13.2954C13.3003 13.2954 13.3967 13.3329 13.4704 13.4004C13.5353 13.4749 13.5716 13.5697 13.5734 13.6685C13.5753 13.7672 13.5423 13.8636 13.4802 13.9404H13.4304ZM13.1701 11.5605C12.8813 11.5605 12.5992 11.4749 12.3591 11.3145C12.119 11.154 11.932 10.926 11.8215 10.6592C11.711 10.3924 11.6816 10.0986 11.738 9.81543C11.7943 9.53222 11.9337 9.27206 12.1379 9.06787C12.3421 8.86369 12.6022 8.72479 12.8854 8.66846C13.1686 8.61213 13.4619 8.64096 13.7287 8.75147C13.9955 8.86197 14.2235 9.04946 14.384 9.28955C14.5444 9.52965 14.6301 9.81183 14.6301 10.1006C14.6301 10.4844 14.4791 10.8527 14.2097 11.126C13.9402 11.3992 13.5739 11.5553 13.1901 11.5605H13.1701Z" fill="#46B549"/>
</svg>
