<svg width="20" height="17" viewBox="0 0 20 17" fill="none" xmlns="http://www.w3.org/2000/svg">
<path d="M19.3112 8.64063C19.2982 8.10565 19.0766 7.59685 18.6935 7.22315C18.3105 6.84945 17.7961 6.64047 17.2609 6.64063C16.7377 6.64017 16.2352 6.84463 15.861 7.21045C14.2474 6.12393 12.3561 5.5235 10.4113 5.48047L11.341 1.12061L14.341 1.75049C14.3779 2.1156 14.5511 2.45351 14.8259 2.69678C15.1006 2.94005 15.457 3.07104 15.8239 3.06348C16.1908 3.05591 16.5414 2.91015 16.8058 2.65576C17.0703 2.40138 17.2293 2.05675 17.2512 1.69043C17.2485 1.30403 17.0937 0.934373 16.8205 0.661136C16.5473 0.387899 16.1776 0.233092 15.7912 0.230472C15.5204 0.229902 15.2551 0.306862 15.0265 0.452152C14.798 0.597441 14.6156 0.804826 14.5012 1.0503L11.1213 0.33057C11.0258 0.309687 10.9259 0.327429 10.8434 0.379886C10.761 0.432343 10.7028 0.515043 10.6813 0.610355L9.68133 5.48047C7.70766 5.49876 5.78327 6.10068 4.15106 7.21045C3.76932 6.85012 3.26581 6.64681 2.7409 6.64063C2.23117 6.55247 1.70734 6.66505 1.27899 6.95508C0.850639 7.24512 0.551446 7.68978 0.444028 8.1958C0.33661 8.70183 0.429232 9.22991 0.702817 9.66895C0.976402 10.108 1.40972 10.4238 1.91131 10.5503C1.87897 10.7554 1.86196 10.9628 1.86102 11.1704C1.86102 14.3104 5.51118 16.8403 10.0212 16.8403C14.5312 16.8403 18.1813 14.3104 18.1813 11.1704C18.1804 10.9694 18.1634 10.7687 18.131 10.5703C18.4891 10.3919 18.79 10.1162 18.9987 9.77491C19.2074 9.43357 19.3156 9.04068 19.3112 8.64063ZM5.31122 10.1006C5.31122 9.8114 5.39692 9.5284 5.5578 9.28809C5.71867 9.04778 5.94717 8.86069 6.21454 8.75049C6.4819 8.64029 6.77627 8.61229 7.05975 8.66944C7.34323 8.72659 7.60304 8.86659 7.80682 9.07178C8.0106 9.27697 8.14908 9.53791 8.20428 9.82178C8.25948 10.1056 8.22892 10.3994 8.11688 10.666C8.00484 10.9326 7.8163 11.1601 7.57489 11.3193C7.33348 11.4786 7.0501 11.5625 6.76092 11.5605C6.37893 11.5527 6.01558 11.3955 5.74823 11.1226C5.48088 10.8496 5.33115 10.4827 5.33124 10.1006H5.31122ZM13.4313 13.9404C12.4415 14.688 11.2199 15.0634 9.98114 15.0005C8.7436 15.0533 7.52533 14.679 6.53094 13.9404C6.45933 13.8688 6.41913 13.7717 6.41913 13.6704C6.41913 13.5691 6.45933 13.472 6.53094 13.4004C6.60255 13.3288 6.69969 13.2886 6.80096 13.2886C6.90223 13.2886 6.99937 13.3288 7.07098 13.4004C7.92252 14.0088 8.95623 14.3087 10.0012 14.2505C11.0455 14.3039 12.0777 14.0045 12.9313 13.4004C13.0051 13.3329 13.1014 13.2954 13.2014 13.2954C13.3013 13.2954 13.3976 13.3329 13.4714 13.4004C13.5363 13.4749 13.5726 13.5697 13.5744 13.6685C13.5762 13.7672 13.5432 13.8636 13.4811 13.9404H13.4313ZM13.1711 11.5605C12.8823 11.5605 12.6001 11.4749 12.36 11.3145C12.1199 11.154 11.933 10.926 11.8224 10.6592C11.7119 10.3924 11.6826 10.0986 11.7389 9.81543C11.7953 9.53222 11.9347 9.27206 12.1389 9.06787C12.343 8.86369 12.6032 8.72479 12.8864 8.66846C13.1696 8.61213 13.4629 8.64096 13.7297 8.75147C13.9965 8.86197 14.2245 9.04946 14.3849 9.28955C14.5454 9.52965 14.631 9.81183 14.631 10.1006C14.6311 10.4844 14.4801 10.8527 14.2106 11.126C13.9411 11.3992 13.5748 11.5553 13.1911 11.5605H13.1711Z" fill="#77778C"/>
</svg>
