<svg width="32" height="32" viewBox="0 0 32 32" fill="none" xmlns="http://www.w3.org/2000/svg">
<path d="M5 0.5H27C29.4853 0.5 31.5 2.51472 31.5 5V27C31.5 29.4853 29.4853 31.5 27 31.5H5C2.51472 31.5 0.5 29.4853 0.5 27V5C0.5 2.51472 2.51472 0.5 5 0.5Z" stroke="#303040"/>
<path d="M8.96243 15.7355C12.7205 14.1831 15.2265 13.1597 16.4804 12.6653C20.0604 11.2535 20.8043 11.0083 21.2892 11.0001C21.3958 10.9984 21.6343 11.0234 21.7887 11.1423C21.9192 11.2426 21.955 11.3781 21.9722 11.4733C21.9894 11.5684 22.0108 11.7851 21.9938 11.9544C21.7998 13.887 20.9603 18.5769 20.5332 20.7415C20.3525 21.6574 19.9967 21.9645 19.6522 21.9945C18.9036 22.0599 18.3351 21.5255 17.6101 21.0749C16.4755 20.3697 15.8345 19.9308 14.7332 19.2427C13.4604 18.4475 14.2855 18.0104 15.0108 17.2962C15.2006 17.1092 18.4991 14.2648 18.5629 14.0067C18.5709 13.9745 18.5783 13.8542 18.503 13.7906C18.4276 13.7271 18.3163 13.7488 18.236 13.7661C18.1222 13.7906 16.3097 14.9264 12.7984 17.1736C12.2839 17.5086 11.8179 17.6718 11.4004 17.6632C10.9401 17.6538 10.0547 17.4165 9.39648 17.2136C8.58916 16.9648 7.94752 16.8333 8.00339 16.4107C8.03249 16.1906 8.35217 15.9656 8.96243 15.7355Z" fill="#77778C"/>
</svg>
