<svg width="14" height="11" viewBox="0 0 14 11" fill="none" xmlns="http://www.w3.org/2000/svg">
<path d="M0.962427 4.73547C4.72052 3.18313 7.2265 2.15973 8.48037 1.66527C12.0604 0.253502 12.8043 0.00826281 13.2892 7.85078e-05C13.3958 -0.00161621 13.6343 0.0234407 13.7887 0.142263C13.9192 0.242595 13.955 0.378129 13.9722 0.473254C13.9894 0.56838 14.0108 0.785077 13.9938 0.954399C13.7998 2.88701 12.9603 7.57694 12.5332 9.74149C12.3525 10.6574 11.9967 10.9645 11.6522 10.9945C10.9036 11.0599 10.3351 10.5255 9.61007 10.0749C8.47546 9.36972 7.83448 8.93077 6.73315 8.24269C5.46037 7.44748 6.28546 7.01043 7.01081 6.29615C7.20064 6.10923 10.4991 3.26477 10.5629 3.00673C10.5709 2.97446 10.5783 2.85417 10.503 2.79065C10.4276 2.72713 10.3163 2.74885 10.236 2.76612C10.1223 2.79061 8.3097 3.92645 4.7984 6.17363C4.28392 6.50858 3.81791 6.67177 3.40039 6.66322C2.9401 6.65379 2.05469 6.41648 1.39648 6.21363C0.589162 5.96482 -0.0524811 5.83328 0.00339163 5.41073C0.0324936 5.19064 0.352172 4.96555 0.962427 4.73547Z" fill="#46B549"/>
</svg>
