<svg width="32" height="32" viewBox="0 0 32 32" fill="none" xmlns="http://www.w3.org/2000/svg">
<path d="M5 0.5H27C29.4853 0.5 31.5 2.51472 31.5 5V27C31.5 29.4853 29.4853 31.5 27 31.5H5C2.51472 31.5 0.5 29.4853 0.5 27V5C0.5 2.51472 2.51472 0.5 5 0.5Z" stroke="#303040"/>
<path d="M23.6 12.0984C23.4 11.3984 22.9 10.8984 22.2 10.6984C21 10.3984 15.9 10.3984 15.9 10.3984C15.9 10.3984 10.9 10.3984 9.60001 10.6984C8.90001 10.8984 8.4 11.3984 8.2 12.0984C8 13.3984 8 15.9984 8 15.9984C8 15.9984 8 18.5984 8.3 19.8984C8.5 20.5984 9 21.0984 9.7 21.2984C10.9 21.5984 16 21.5984 16 21.5984C16 21.5984 21 21.5984 22.3 21.2984C23 21.0984 23.5 20.5984 23.7 19.8984C24 18.5984 24 15.9984 24 15.9984C24 15.9984 24 13.3984 23.6 12.0984ZM14.4 18.3984V13.5984L18.6 15.9984L14.4 18.3984Z" fill="#77778C"/>
</svg>
