<svg width="24" height="24" viewBox="0 0 24 24" fill="none" xmlns="http://www.w3.org/2000/svg">
<path d="M10.6484 11.3075L15.2284 14.9175L12.1984 7.4375L10.6484 11.3075Z" fill="#4D4D66"/>
<path d="M11.9991 0.289062C5.52906 0.289062 0.289062 5.52906 0.289062 11.9991C0.289062 18.4691 5.52906 23.7091 11.9991 23.7091C18.4691 23.7091 23.7091 18.4691 23.7091 11.9991C23.7091 5.52906 18.4691 0.289062 11.9991 0.289062ZM16.8091 17.8091C16.5691 17.7991 16.3391 17.6991 16.1691 17.5291L10.1291 12.6491L8.09906 17.7191H6.34906L11.4591 5.42906C11.5791 5.12906 11.8791 4.92906 12.1991 4.92906C12.5191 4.92906 12.8091 5.11906 12.9191 5.42906L17.5791 16.6391C17.6291 16.7491 17.6591 16.8691 17.6591 16.9891C17.6591 17.4491 17.2791 17.8191 16.8191 17.8091H16.8091Z" fill="#4D4D66"/>
</svg>
