<svg width="24" height="28" viewBox="0 0 24 28" fill="none" xmlns="http://www.w3.org/2000/svg">
<path fill-rule="evenodd" clip-rule="evenodd" d="M21.8497 6.31188L13.6497 1.44188C12.6597 0.831875 11.4497 0.831875 10.4697 1.44188L2.22974 6.31188C1.21974 6.88188 0.589737 7.94187 0.599737 9.13188V18.8819C0.589737 20.0219 1.16974 21.1219 2.16974 21.6919L10.4097 26.5719C11.3897 27.1719 12.5997 27.1719 13.5897 26.5719L21.7897 21.6919C22.7897 21.1219 23.4097 20.0219 23.3997 18.8819V9.13188C23.4197 7.99188 22.8497 6.89188 21.8497 6.31188ZM16.4697 19.4619C16.4697 20.2819 16.0997 21.0719 15.4697 21.5819V22.2819C15.4497 22.3819 15.4097 22.4519 15.3497 22.5219L14.9297 22.6919C14.8697 22.7619 14.8097 22.6919 14.8097 22.5819V21.8819C14.5197 22.0119 14.1997 22.0519 13.8697 22.0019C13.8397 21.9419 13.7997 21.8819 13.8097 21.8219L13.9897 21.1819C13.9897 21.1819 14.0297 21.0819 14.0497 21.0619H14.1597C14.4697 21.1319 14.7897 21.0919 15.0497 20.9419C15.4197 20.7519 15.6697 20.3719 15.6997 19.9419C15.6997 19.5819 15.5297 19.4019 15.0497 19.4019C14.4697 19.4019 13.8697 19.3019 13.8697 18.4219C13.8697 17.6519 14.2297 16.9419 14.8097 16.4819V15.7619C14.8097 15.6819 14.8597 15.5819 14.9297 15.5319L15.3497 15.3019C15.4097 15.2419 15.4697 15.3019 15.4697 15.4219V16.1219C15.7097 16.0219 15.9697 15.9919 16.2297 16.0119C16.2797 16.0519 16.2897 16.1219 16.2897 16.1819L16.0997 16.8219C16.0997 16.8219 16.0897 16.9219 16.0397 16.9419L15.9897 17.0119H15.9297C15.6697 16.9519 15.4097 17.0019 15.1597 17.1219C14.8097 17.2519 14.5897 17.5719 14.5897 17.9419C14.5897 18.2419 14.7497 18.3619 15.3497 18.3619C15.8697 18.2619 16.3697 18.6319 16.4697 19.1519C16.4797 19.2619 16.4797 19.3719 16.4697 19.4619ZM19.8097 19.9419L19.7597 20.3519C19.7597 20.4219 19.7397 20.4819 19.6997 20.5319L17.6397 21.8219H17.5797C17.5797 21.8219 17.5197 21.7619 17.5797 21.7619V21.2419C17.5897 21.1719 17.6397 21.1219 17.6997 21.1219L19.7597 19.8819H19.8097C19.8097 19.8819 19.8697 19.9419 19.8097 19.9419ZM21.2197 8.37187L13.4097 13.1919C12.4097 13.7619 11.7097 14.4219 11.7097 15.5219V25.1119C11.7097 25.8219 11.9797 26.2719 12.4097 26.3919C12.2897 26.3919 12.0997 26.4419 11.9797 26.4419C11.5397 26.4419 11.0997 26.3219 10.7097 26.1119L2.47974 21.2419C1.65974 20.7519 1.15974 19.8319 1.16974 18.8819V9.13188C1.16974 8.18188 1.65974 7.27188 2.47974 6.76188L10.7097 1.89188C11.4897 1.44188 12.4797 1.44188 13.2897 1.89188L21.5197 6.76188C22.1697 7.19187 22.6597 7.88188 22.7897 8.64188C22.5797 8.07188 21.9097 7.94187 21.2197 8.37187Z" fill="#4D4D66"/>
</svg>
