<svg width="26" height="20" viewBox="0 0 26 20" fill="none" xmlns="http://www.w3.org/2000/svg">
<path d="M0.169922 13.0792C0.169922 10.1992 0.909922 8.21918 2.01992 6.36918C3.37992 4.09918 5.10992 2.19918 7.50992 0.989184C9.71992 -0.120816 11.9999 -0.250816 14.3099 0.669184C16.4199 1.50918 17.2499 3.18918 16.6599 5.39918C16.2799 6.79918 15.5299 7.99918 14.5399 9.04918C14.4199 9.16918 14.2699 9.27918 14.1199 9.34918C13.7799 9.50918 13.4099 9.54918 13.0899 9.29918C12.7899 9.06918 12.7299 8.71918 12.8099 8.37918C12.9099 7.97918 13.0599 7.57918 13.2299 7.19918C13.5099 6.57918 13.7199 5.93918 13.7099 5.24918C13.6899 4.43918 13.3699 3.98918 12.5899 3.75918C10.8799 3.25918 9.29992 3.63918 7.87992 4.63918C6.07992 5.90918 4.96992 7.62918 4.94992 9.88918C4.91992 12.3292 6.90992 14.0792 9.32992 13.8092C10.9999 13.6192 12.5399 12.9892 13.9699 12.1492C15.0099 11.5392 15.9799 10.7992 16.9799 10.1192C17.0999 10.0292 17.2199 9.92918 17.3499 9.85918C17.7199 9.67918 18.0799 9.77918 18.2099 10.1592C18.3199 10.4792 18.3999 10.8592 18.3199 11.1792C18.1799 11.7192 18.0199 12.3092 17.6899 12.7492C15.9699 15.0192 13.9899 17.0392 11.5499 18.5492C10.0299 19.4992 8.36992 20.0592 6.54992 19.9492C4.46992 19.8292 2.83992 18.8892 1.62992 17.2192C0.599922 15.7892 0.179922 14.1592 0.169922 13.0892V13.0792Z" fill="#4D4D66"/>
<path d="M24.4097 4.31078C25.3297 4.31078 25.9097 4.95078 25.8197 5.87078C25.6897 7.15078 24.4897 8.44078 23.2297 8.65078C22.1297 8.84078 21.3897 8.21078 21.4597 7.13078C21.5397 5.74078 23.0397 4.31078 24.4197 4.30078L24.4097 4.31078Z" fill="#4D4D66"/>
<path d="M24.89 12.8681C24.87 14.2781 23.38 15.7781 21.97 15.7981C21.07 15.8181 20.5 15.2381 20.52 14.3381C20.55 12.9281 22.05 11.4381 23.46 11.4181C24.34 11.4081 24.9 11.9781 24.89 12.8581V12.8681Z" fill="#4D4D66"/>
</svg>
