<svg width="24" height="26" viewBox="0 0 24 26" fill="none" xmlns="http://www.w3.org/2000/svg">
<path d="M22.7793 15.1003H20.5993C20.1293 15.1003 19.7393 15.4803 19.7393 15.9603V19.1603C19.7393 19.7403 19.2793 20.2003 18.6993 20.2003C18.1193 20.2003 17.6693 19.7403 17.6693 19.1603V11.9503C18.6493 10.5903 19.1793 8.92031 19.1993 7.25031C19.1993 3.27031 15.9693 0.0703125 12.0193 0.0703125C8.06934 0.0703125 4.84934 3.30031 4.84934 7.25031C4.86934 8.93031 5.40934 10.5903 6.35934 11.9803V19.2603C6.35934 19.8203 5.89934 20.2903 5.33934 20.2903C4.77934 20.2903 4.30934 19.8203 4.30934 19.2603V16.0503C4.30934 15.5803 3.92934 15.1903 3.43934 15.1903H1.23934C0.769339 15.1803 0.369339 15.5603 0.369339 16.0303C0.359339 16.5003 0.729339 16.9003 1.20934 16.9103H2.55934V19.2603C2.55934 20.7703 3.78934 22.0003 5.32934 22.0003C6.86934 22.0003 8.07934 20.7703 8.07934 19.2603V13.8003C8.48934 14.1203 8.93934 14.4103 9.40934 14.6303V20.5003C9.40934 22.5503 7.72934 24.2003 5.69934 24.2003C5.21934 24.2203 4.83934 24.6203 4.85934 25.0903C4.85934 25.5503 5.23934 25.9103 5.69934 25.9303C8.67934 25.9303 11.1193 23.4903 11.1393 20.4903V15.1403C11.4293 15.1603 11.7093 15.1903 11.9993 15.1903C12.3093 15.1903 12.6093 15.1703 12.8793 15.1403V20.4603C12.8993 23.4603 15.3193 25.9003 18.3293 25.9003C18.8093 25.9203 19.2093 25.5503 19.2093 25.0803C19.2193 24.5803 18.8393 24.1903 18.3693 24.1703H18.3293C16.2693 24.1703 14.6193 22.5203 14.6193 20.4603V14.6203C15.0893 14.4003 15.5393 14.1103 15.9493 13.7903V19.1503C15.9493 20.6803 17.1793 21.9203 18.6893 21.9203C20.1993 21.9203 21.4593 20.6803 21.4593 19.1503V16.8203H22.7793C23.2493 16.8203 23.6493 16.4403 23.6493 15.9503C23.6493 15.4603 23.2693 15.0903 22.7893 15.0903L22.7793 15.1003ZM9.65934 12.6403C9.02934 12.6403 8.50934 12.1403 8.50934 11.5203V11.5103C8.50934 10.8903 9.02934 10.3703 9.65934 10.3703C10.2893 10.3703 10.7993 10.8903 10.7993 11.5103C10.7993 12.1303 10.2893 12.6403 9.65934 12.6403ZM14.3793 12.6503C13.7493 12.6503 13.2393 12.1403 13.2393 11.5103C13.2393 10.8803 13.7493 10.3703 14.3793 10.3703C15.0093 10.3703 15.5193 10.8903 15.5193 11.5103C15.5193 12.1303 15.0093 12.6503 14.3793 12.6503Z" fill="#4D4D66"/>
</svg>
