<svg width="48" height="48" viewBox="0 0 48 48" fill="none" xmlns="http://www.w3.org/2000/svg">
<rect opacity="0.2" x="0.5" y="0.5" width="47" height="47" rx="23.5" stroke="#46B549"/>
<path d="M23.4693 18.6985L25.3255 16.8424C25.7085 16.459 26.1632 16.1549 26.6638 15.9474C27.1643 15.7398 27.7008 15.6329 28.2427 15.6328C28.7846 15.6327 29.3211 15.7393 29.8218 15.9466C30.3224 16.1539 30.7773 16.4578 31.1605 16.841C31.5436 17.2242 31.8475 17.679 32.0548 18.1797C32.2621 18.6803 32.3688 19.2169 32.3687 19.7588C32.3685 20.3006 32.2616 20.8372 32.0541 21.3377C31.8466 21.8383 31.5424 22.293 31.1591 22.676L28.5075 25.3276C28.1244 25.7107 27.6697 26.0145 27.1692 26.2218C26.6687 26.4291 26.1323 26.5358 25.5906 26.5358C25.0489 26.5358 24.5125 26.4291 24.0121 26.2218C23.5116 26.0145 23.0569 25.7107 22.6738 25.3276" stroke="#46B549" stroke-width="2" stroke-linecap="round" stroke-linejoin="round"/>
<path d="M24.5302 29.3022L22.674 31.1583C22.2911 31.5416 21.8363 31.8458 21.3358 32.0533C20.8352 32.2608 20.2987 32.3677 19.7568 32.3679C19.215 32.368 18.6784 32.2613 18.1777 32.054C17.6771 31.8467 17.2222 31.5428 16.839 31.1597C16.4559 30.7765 16.152 30.3216 15.9447 29.821C15.7374 29.3203 15.6307 28.7838 15.6309 28.2419C15.631 27.7 15.7379 27.1635 15.9454 26.663C16.1529 26.1624 16.4571 25.7077 16.8404 25.3247L19.4921 22.673C19.8751 22.29 20.3298 21.9861 20.8303 21.7788C21.3308 21.5715 21.8672 21.4648 22.4089 21.4648C22.9506 21.4648 23.487 21.5715 23.9874 21.7788C24.4879 21.9861 24.9426 22.29 25.3257 22.673" stroke="#46B549" stroke-width="2" stroke-linecap="round" stroke-linejoin="round"/>
</svg>
