<svg width="32" height="32" viewBox="0 0 32 32" fill="none" xmlns="http://www.w3.org/2000/svg">
<path d="M14.0961 18.4793L13.0561 21.0393C12.0429 20.3912 11.2723 19.4266 10.8641 18.2953L13.6001 17.8313C13.681 17.8071 13.7672 17.8071 13.8481 17.8313C13.9265 17.8604 13.9956 17.9102 14.0481 17.9753C14.1041 18.0403 14.1378 18.1217 14.1441 18.2073C14.1549 18.2895 14.141 18.3731 14.1041 18.4473L14.0961 18.4793ZM13.2241 16.2313C13.3028 16.2063 13.3743 16.1624 13.4321 16.1033C13.4918 16.041 13.5333 15.9635 13.5521 15.8793C13.5721 15.7979 13.5721 15.7128 13.5521 15.6313C13.5211 15.5536 13.4749 15.4828 13.4161 15.4233L11.3441 13.5993C10.7045 14.626 10.4232 15.8357 10.5441 17.0393L13.2001 16.2393L13.2241 16.2313ZM14.4001 14.1353C14.4658 14.189 14.5472 14.2199 14.6321 14.2233C14.6952 14.23 14.759 14.2234 14.8194 14.204C14.8799 14.1846 14.9356 14.1528 14.983 14.1107C15.0305 14.0685 15.0686 14.0169 15.095 13.9591C15.1213 13.9014 15.1353 13.8388 15.1361 13.7753L15.2961 11.0073C14.0875 11.1407 12.9596 11.6792 12.0961 12.5353L14.3681 14.1353H14.4001ZM15.2001 17.0473L15.9601 17.4073L16.7201 17.0473L16.9121 16.2473L16.3761 15.5913H15.5681L15.0401 16.2473L15.2001 17.0473ZM16.8001 13.7673C16.8031 13.8522 16.8279 13.9348 16.8721 14.0073C16.9182 14.0791 16.9852 14.1349 17.0641 14.1673C17.137 14.2081 17.2218 14.2222 17.3041 14.2073C17.3889 14.2039 17.4703 14.173 17.5361 14.1193L19.7921 12.5193C18.9211 11.6739 17.7971 11.1372 16.5921 10.9913L16.8001 13.7753V13.7673ZM28.3121 20.0793L22.2161 27.6713C22.0541 27.8665 21.8523 28.0247 21.6241 28.1353C21.3957 28.2402 21.1474 28.2948 20.8961 28.2953H11.1121C10.8571 28.2967 10.6052 28.2392 10.3761 28.1273C10.1447 28.0219 9.94172 27.8628 9.78406 27.6633L3.68806 20.0793C3.53006 19.8836 3.42042 19.6534 3.36806 19.4073C3.3096 19.1628 3.3096 18.9079 3.36806 18.6633L5.54406 9.20731C5.59241 8.95993 5.70249 8.72878 5.86406 8.53531C6.01946 8.3368 6.21956 8.17781 6.44806 8.07131L15.2481 3.85531C15.4793 3.75044 15.7302 3.6959 15.9841 3.69531C16.2354 3.69581 16.4837 3.75038 16.7121 3.85531L25.5121 8.06331C25.7392 8.17203 25.9388 8.33064 26.0961 8.52731C26.254 8.72412 26.3661 8.9537 26.4241 9.19931L28.6401 18.6633C28.6959 18.9082 28.6959 19.1625 28.6401 19.4073C28.5853 19.6541 28.4729 19.8844 28.3121 20.0793ZM24.8401 17.9113L24.6881 17.8713C24.5185 17.8464 24.3474 17.833 24.1761 17.8313C23.8572 17.8066 23.5412 17.7531 23.2321 17.6713C23.1121 17.6313 23.0401 17.4953 23.0001 17.4393L22.7921 17.3753C23.0109 15.7099 22.6187 14.0217 21.6881 12.6233L21.8721 12.4553C21.8654 12.348 21.8997 12.2422 21.9681 12.1593C22.215 11.9459 22.4831 11.7583 22.7681 11.5993C22.9217 11.5266 23.0689 11.4409 23.2081 11.3433L23.3281 11.2473C23.3899 11.2092 23.442 11.1572 23.4801 11.0953C23.5183 11.0339 23.5454 10.9662 23.5601 10.8953C23.5762 10.8242 23.5762 10.7504 23.5601 10.6793C23.5439 10.6072 23.5118 10.5396 23.4661 10.4814C23.4204 10.4233 23.3623 10.3761 23.2961 10.3433C23.232 10.3089 23.1608 10.2897 23.0881 10.2873C23.0169 10.2717 22.9432 10.2717 22.8721 10.2873C22.8048 10.3138 22.7425 10.3517 22.6881 10.3993L22.5761 10.4953C22.4506 10.6128 22.333 10.7384 22.2241 10.8713C22.0061 11.1052 21.7678 11.3194 21.5121 11.5113C21.4105 11.5432 21.3016 11.5432 21.2001 11.5113L20.9921 11.6553C19.817 10.4633 18.2525 9.73363 16.5841 9.59931V9.36731C16.4957 9.30322 16.4332 9.20954 16.4081 9.10331C16.3935 8.78193 16.415 8.45992 16.4721 8.14331C16.4721 7.96731 16.5281 7.83131 16.5441 7.63931V7.47931C16.5597 7.40816 16.5597 7.33447 16.5441 7.26331C16.5196 7.19265 16.4815 7.12743 16.4321 7.07131C16.3788 7.01802 16.3165 6.97468 16.2481 6.94331C16.1793 6.9312 16.1089 6.9312 16.0401 6.94331C15.9686 6.93042 15.8955 6.93042 15.8241 6.94331C15.7567 6.97655 15.6947 7.01969 15.6401 7.07131C15.5906 7.12743 15.5526 7.19265 15.5281 7.26331C15.5163 7.33483 15.5163 7.4078 15.5281 7.47931V7.63131C15.5281 7.81531 15.5841 7.95931 15.6001 8.13531C15.6492 8.45285 15.6706 8.77406 15.6641 9.09531C15.6307 9.20006 15.57 9.29397 15.4881 9.36731V9.59131C13.8076 9.72189 12.2374 10.4784 11.0881 11.7113L10.9041 11.5673C10.855 11.5891 10.8018 11.6004 10.7481 11.6004C10.6943 11.6004 10.6412 11.5891 10.5921 11.5673C10.3344 11.3777 10.096 11.1634 9.88006 10.9273C9.77104 10.797 9.65344 10.674 9.52806 10.5593L9.33606 10.3993C9.2299 10.3179 9.10163 10.2705 8.96806 10.2633C8.88879 10.2603 8.80976 10.2739 8.73606 10.3033C8.66568 10.3421 8.60105 10.3906 8.54406 10.4473C8.50348 10.5084 8.47372 10.5761 8.45606 10.6473C8.43862 10.7192 8.43601 10.7938 8.44839 10.8667C8.46076 10.9396 8.48788 11.0092 8.52806 11.0713C8.56737 11.1319 8.61597 11.1859 8.67206 11.2313L8.78406 11.3193C8.92156 11.4152 9.06595 11.5007 9.21606 11.5753C9.50024 11.7325 9.76821 11.9174 10.0161 12.1273C10.0812 12.2186 10.1174 12.3272 10.1201 12.4393L10.2881 12.5833C9.35293 13.9973 8.96868 15.7051 9.20806 17.3833L8.99206 17.4473C8.93683 17.5413 8.86006 17.6208 8.76806 17.6793C8.45603 17.7604 8.13747 17.814 7.81606 17.8393C7.64006 17.8393 7.49606 17.8393 7.31206 17.8393L7.20006 17.9113C7.12922 17.926 7.06151 17.9531 7.00006 17.9913C6.93993 18.0315 6.88828 18.0832 6.84806 18.1433C6.80997 18.2019 6.78286 18.267 6.76806 18.3353C6.7522 18.4064 6.7522 18.4802 6.76806 18.5513C6.78073 18.6217 6.81101 18.6878 6.85606 18.7433C6.89492 18.8053 6.95034 18.8552 7.01606 18.8873C7.07101 18.9252 7.13399 18.9499 7.20006 18.9593C7.27157 18.9712 7.34456 18.9712 7.41606 18.9593H7.56006C7.71245 18.8903 7.85952 18.8101 8.00006 18.7193C8.29746 18.5998 8.6055 18.5088 8.92006 18.4473C9.02716 18.4567 9.12959 18.4954 9.21606 18.5593L9.45606 18.5193C9.97102 20.1128 11.0527 21.4621 12.4961 22.3113L12.4001 22.5513C12.4478 22.6421 12.4647 22.746 12.4481 22.8473C12.3177 23.1483 12.1569 23.4351 11.9681 23.7033C11.8648 23.8368 11.7687 23.9757 11.6801 24.1193L11.6161 24.2633C11.5816 24.3274 11.5624 24.3986 11.5601 24.4713C11.544 24.5397 11.544 24.6109 11.5601 24.6793C11.5768 24.7492 11.6129 24.8129 11.6641 24.8633C11.7086 24.9192 11.7663 24.9632 11.8321 24.9913C11.8976 25.0221 11.968 25.041 12.0401 25.0473C12.1085 25.0631 12.1796 25.0631 12.2481 25.0473C12.3138 25.0225 12.3737 24.9843 12.4241 24.9353C12.4781 24.8876 12.5194 24.8271 12.5441 24.7593L12.6081 24.6153C12.6718 24.4598 12.7227 24.2992 12.7601 24.1353C12.8523 23.8022 12.9924 23.4842 13.1761 23.1913C13.2345 23.1278 13.3142 23.0879 13.4001 23.0793L13.5201 22.8633C15.0866 23.4593 16.8175 23.4593 18.3841 22.8633L18.5041 23.0633C18.6094 23.0858 18.7031 23.1454 18.7681 23.2313C18.9435 23.4997 19.0884 23.7868 19.2001 24.0873C19.2481 24.2473 19.2961 24.4073 19.3521 24.5673L19.4161 24.7033C19.4828 24.8342 19.5892 24.9406 19.7201 25.0073C19.7916 25.0187 19.8645 25.0187 19.9361 25.0073C20.0082 25.0077 20.0794 24.9913 20.1441 24.9593C20.2089 24.9254 20.2663 24.8789 20.313 24.8226C20.3597 24.7663 20.3947 24.7013 20.4161 24.6313C20.4684 24.4948 20.4684 24.3438 20.4161 24.2073L20.3441 24.0713C20.2591 23.9246 20.1656 23.783 20.0641 23.6473C19.879 23.3839 19.7208 23.1024 19.5921 22.8073C19.5693 22.7018 19.5834 22.5917 19.6321 22.4953L19.5441 22.2873C20.9976 21.4293 22.083 20.0646 22.5921 18.4553L22.8161 18.4953C22.8974 18.4226 23.0029 18.3826 23.1121 18.3833C23.4263 18.4459 23.7343 18.5369 24.0321 18.6553C24.1846 18.7283 24.3424 18.7898 24.5041 18.8393H24.6481C24.7192 18.8552 24.7929 18.8552 24.8641 18.8393C24.9366 18.8302 25.007 18.8085 25.0721 18.7753C25.1342 18.7381 25.1885 18.6892 25.2321 18.6313C25.2794 18.5762 25.3124 18.5103 25.3281 18.4393C25.3406 18.3699 25.3391 18.2986 25.3237 18.2297C25.3083 18.1609 25.2792 18.0958 25.2382 18.0384C25.1971 17.981 25.145 17.9323 25.0849 17.8954C25.0248 17.8585 24.9578 17.8339 24.8881 17.8233L24.8401 17.9113ZM20.6481 13.5993L18.5841 15.4473C18.5202 15.5025 18.4729 15.5744 18.4475 15.6549C18.4221 15.7354 18.4195 15.8214 18.4401 15.9033C18.4557 15.9864 18.4978 16.0621 18.5601 16.1193C18.6156 16.1811 18.6879 16.2255 18.7681 16.2473L21.4401 17.0473C21.5497 15.847 21.2691 14.6434 20.6401 13.6153L20.6481 13.5993ZM16.4081 19.1993C16.3692 19.1217 16.3079 19.0576 16.2321 19.0153C16.1586 18.9674 16.0715 18.9449 15.9841 18.9513C15.9013 18.9517 15.8205 18.9768 15.7521 19.0233C15.6809 19.0654 15.6228 19.1263 15.5841 19.1993L14.2401 21.5993C15.3807 21.9912 16.6195 21.9912 17.7601 21.5993L16.4161 19.1993H16.4081ZM18.4001 17.8313C18.305 17.8085 18.2049 17.8228 18.1201 17.8713C18.0121 17.9229 17.9288 18.0149 17.8881 18.1273C17.844 18.2377 17.844 18.3609 17.8881 18.4713L18.9521 21.0473C19.9723 20.3944 20.7463 19.4206 21.1521 18.2793L18.4001 17.8233V17.8313Z" fill="#4D4D66"/>
</svg>
