<svg width="48" height="48" viewBox="0 0 48 48" fill="none" xmlns="http://www.w3.org/2000/svg">
<rect opacity="0.2" x="0.5" y="0.5" width="47" height="47" rx="23.5" stroke="#46B549"/>
<circle cx="31" cy="18" r="2.3" stroke="#46B549" stroke-width="1.4"/>
<path d="M21.621 20.8641C20.9658 21.9989 18.976 22.5702 16.9301 21.389C14.8842 20.2078 14.3841 18.1989 15.0392 17.0641C15.6944 15.9293 17.6842 15.358 19.7301 16.5392C21.776 17.7204 22.2762 19.7293 21.621 20.8641Z" stroke="#46B549" stroke-width="2.4"/>
<path d="M30.5851 25.9301C31.0314 26.7031 31.0552 27.7532 30.5243 28.9202C29.9945 30.0846 28.9446 31.2652 27.4622 32.121C25.9798 32.9769 24.4324 33.2959 23.1591 33.1725C21.883 33.0487 20.9855 32.5031 20.5392 31.7301C20.0929 30.9571 20.0692 29.907 20.6001 28.7401C21.1298 27.5756 22.1798 26.3951 23.6622 25.5392C25.1446 24.6834 26.6919 24.3643 27.9652 24.4878C29.2413 24.6115 30.1388 25.1571 30.5851 25.9301Z" stroke="#46B549" stroke-width="2.4"/>
</svg>
