<svg width="48" height="48" viewBox="0 0 48 48" fill="none" xmlns="http://www.w3.org/2000/svg">
<rect opacity="0.2" x="0.5" y="0.5" width="47" height="47" rx="23.5" stroke="#46B549"/>
<g clip-path="url(#clip0_1801_3392)">
<path d="M32.7732 31.991C32.4305 31.584 31.8208 31.5309 31.4138 31.8736C29.5974 33.4036 27.2951 34.2579 24.9189 34.2901C24.9108 34.2901 24.9044 34.2901 24.8963 34.2901L24.8947 34.2901C24.869 34.2901 24.8448 34.2901 24.8191 34.2901C24.7853 34.2901 24.7531 34.2901 24.7194 34.2901C24.6968 34.2901 24.6743 34.2901 24.6534 34.2901C24.6325 34.2901 24.6083 34.2901 24.5874 34.2884C24.5697 34.2884 24.5536 34.2884 24.5376 34.2868C24.5279 34.2868 24.5183 34.2868 24.5086 34.2868C24.4941 34.2868 24.4812 34.2852 24.4668 34.2852C24.4475 34.2852 24.4282 34.2836 24.4089 34.2836C24.3831 34.282 24.3574 34.282 24.3332 34.2804C23.1137 34.2257 21.9071 33.9554 20.7729 33.476C20.7359 33.4599 20.6973 33.4438 20.6602 33.4277C18.7329 32.5815 17.1144 31.1625 16.0187 29.3863C16.0123 29.3766 16.0059 29.3654 15.9994 29.3541C15.9817 29.3252 15.9656 29.2962 15.9479 29.2672C14.9183 27.5345 14.4083 25.5219 14.5032 23.4931C14.5048 23.4577 14.5064 23.4223 14.508 23.3869C14.5096 23.3596 14.5112 23.3322 14.5129 23.3049C14.5145 23.2695 14.5177 23.2341 14.5209 23.1987C14.619 21.9213 14.9553 20.6776 15.5055 19.5321C15.52 19.5032 15.5345 19.4726 15.549 19.4436C15.5522 19.4356 15.557 19.4275 15.5602 19.4195C15.5747 19.3905 15.5892 19.3632 15.602 19.3342C15.6117 19.3149 15.6214 19.2972 15.631 19.2779C15.631 19.2763 15.6326 19.2747 15.6326 19.2731C15.6471 19.2441 15.6616 19.2152 15.6777 19.1878C15.6809 19.1814 15.6841 19.175 15.6873 19.1701C15.7211 19.1058 15.7565 19.043 15.7919 18.9787C15.8096 18.9449 15.8289 18.9127 15.8482 18.8805C16.1523 18.3464 16.5062 17.838 16.9068 17.3634C17.2495 16.9564 17.198 16.3466 16.7894 16.0039C16.3823 15.6612 15.7726 15.7127 15.4299 16.1214C15.1773 16.4206 14.9408 16.7311 14.7204 17.0497C14.7124 17.0609 14.7059 17.0706 14.6995 17.0819C14.6898 17.0963 14.6802 17.1108 14.6705 17.1253C14.1155 17.9361 13.665 18.8081 13.3223 19.7316C13.2145 20.018 13.1196 20.3076 13.0359 20.5988C13.0295 20.6197 13.0247 20.639 13.0182 20.6599C13.007 20.6969 12.9973 20.7355 12.9861 20.7741C12.7801 21.5223 12.6482 22.2897 12.5887 23.0716C12.5227 23.9452 12.5501 24.8172 12.6707 25.6779C12.674 25.7069 12.6788 25.7358 12.6836 25.7632C12.69 25.8098 12.6981 25.8565 12.7045 25.9048C12.8574 26.8829 13.1293 27.837 13.517 28.7556C13.6843 29.1498 13.8709 29.5343 14.0769 29.906C14.1316 30.0057 14.1879 30.1038 14.2458 30.202C14.2587 30.2229 14.2699 30.2438 14.2828 30.2647C14.3488 30.3741 14.4147 30.4819 14.4839 30.5897C14.5113 30.6331 14.5402 30.675 14.5676 30.7184C14.574 30.7281 14.5804 30.7377 14.5869 30.7474C14.8346 31.1222 15.1049 31.4858 15.3961 31.8333C16.0203 32.5815 16.725 33.2459 17.5021 33.8203C17.5359 33.846 17.5697 33.8701 17.6051 33.8959C17.6051 33.8959 17.6051 33.8959 17.6067 33.8975C17.6421 33.9232 17.6791 33.949 17.7145 33.9747C17.7257 33.9828 17.737 33.9908 17.7482 33.9989C18.4577 34.4992 19.2171 34.9207 20.0248 35.2618C20.7278 35.5594 21.4502 35.7879 22.1903 35.9472L22.2321 35.9568C22.2466 35.96 22.2627 35.9633 22.2771 35.9665C22.3013 35.9713 22.327 35.9761 22.3511 35.9809C22.6745 36.0469 22.9995 36.0984 23.3277 36.1386C24.3043 36.2561 25.2841 36.2545 26.2574 36.1354C27.2115 36.0212 28.1446 35.7943 29.0471 35.4597C30.3632 34.9706 31.5779 34.2611 32.6558 33.3537C33.0644 33.0078 33.1175 32.3981 32.7732 31.991Z" fill="#46B549"/>
<path d="M16.8767 21.2592C16.8671 21.285 16.859 21.3123 16.851 21.3381C16.8478 21.3461 16.8462 21.3542 16.8429 21.3622C16.8317 21.3944 16.822 21.4282 16.8108 21.4603C16.8043 21.4813 16.7979 21.5006 16.7915 21.5215C16.7866 21.536 16.7818 21.552 16.777 21.5665C16.7738 21.5778 16.7705 21.5891 16.7673 21.6003C16.7673 21.6035 16.7657 21.6051 16.7657 21.6084C16.7609 21.6244 16.7561 21.6405 16.7512 21.6566C16.748 21.6647 16.7464 21.6743 16.7432 21.6824C16.7384 21.7017 16.7319 21.721 16.7271 21.7387C16.7255 21.7467 16.7223 21.7564 16.7207 21.7644C16.5759 22.2841 16.4826 22.8182 16.4423 23.362C16.4005 23.9219 16.415 24.4801 16.4842 25.0304C16.4858 25.0416 16.4874 25.0545 16.489 25.0658C16.4906 25.0754 16.4906 25.0835 16.4922 25.0931C16.4938 25.1092 16.497 25.1269 16.4986 25.143C16.5984 25.867 16.7915 26.5716 17.0778 27.2506C17.2403 27.6335 17.4286 28.0003 17.6425 28.351C17.6425 28.3526 17.6441 28.3526 17.6441 28.3542C17.6474 28.3607 17.6522 28.3671 17.657 28.3735C17.6876 28.4234 17.7198 28.4733 17.7519 28.5232C17.7648 28.5425 17.7761 28.5618 17.7889 28.5811C17.9643 28.8498 18.1558 29.1088 18.3633 29.3565C18.8041 29.8842 19.3029 30.3508 19.8547 30.7514C19.8965 30.782 19.94 30.8125 19.9834 30.8431C19.9834 30.8431 19.9834 30.8431 19.985 30.8431C19.985 30.8431 19.985 30.8431 19.9866 30.8431C20.4693 31.181 20.9857 31.4673 21.5327 31.699C22.2261 31.9918 22.9501 32.1881 23.6918 32.2862C23.6982 32.2878 23.7047 32.2878 23.7111 32.2895C23.7175 32.2911 23.7256 32.2911 23.732 32.2927C23.7368 32.2927 23.7433 32.2943 23.7481 32.2943C23.7545 32.2959 23.7626 32.2959 23.769 32.2975C23.777 32.2991 23.7851 32.2991 23.7931 32.3007C23.8044 32.3023 23.8141 32.3023 23.8253 32.3039C23.8366 32.3055 23.8478 32.3072 23.8591 32.3072C24.4174 32.3699 24.9821 32.3763 25.5436 32.3249C25.587 32.3216 25.6288 32.3168 25.6723 32.312C25.6916 32.3104 25.7093 32.3088 25.7286 32.3055C25.7302 32.3055 25.7302 32.3055 25.7318 32.3055C25.7817 32.3007 25.8315 32.2943 25.8814 32.2878C27.3342 32.098 28.7162 31.5253 29.881 30.6307C30.3041 30.3058 30.383 29.6992 30.058 29.2777C29.733 28.8546 29.1264 28.7757 28.7049 29.1007C27.8989 29.7201 26.9577 30.1384 25.9635 30.3218C25.9538 30.3235 25.9442 30.3251 25.9329 30.3267C25.7961 30.3508 25.6578 30.3717 25.521 30.3878C25.4921 30.391 25.4631 30.3942 25.4342 30.3975C25.4293 30.3975 25.4229 30.3991 25.4181 30.3991C25.2105 30.4184 24.9998 30.4296 24.7906 30.4296L24.789 30.4296C22.4916 30.4296 20.4725 29.2198 19.3334 27.4034C19.3222 27.3841 19.3093 27.3664 19.298 27.3471C19.298 27.3455 19.2964 27.3455 19.2964 27.3439C19.2964 27.3439 19.2964 27.3439 19.2964 27.3423C19.2868 27.3278 19.2787 27.3117 19.2691 27.2972C18.1686 25.4519 18.0142 23.0949 19.068 21.0485C19.1709 20.8474 19.2835 20.6527 19.4058 20.4661C19.4927 20.3342 19.5844 20.2038 19.6825 20.0767C20.0252 19.6311 20.4242 19.2305 20.8699 18.8878C21.0645 18.7382 21.2656 18.6014 21.4732 18.4759C21.6566 18.3665 21.8448 18.2652 22.0395 18.1735C22.5479 17.9338 23.0869 17.7616 23.6387 17.6603C23.7706 17.6361 23.9009 17.6168 24.0329 17.6007C24.0618 17.5975 24.0908 17.5943 24.1181 17.5911C24.1197 17.5911 24.1213 17.5911 24.1229 17.5911C24.3418 17.5686 24.5638 17.5573 24.7874 17.5573L24.789 17.5573C24.8115 17.5573 24.8324 17.5557 24.8534 17.5557C24.855 17.5557 24.8566 17.5557 24.8582 17.5557C25.6884 17.5637 26.5073 17.7343 27.2827 18.0609C27.4339 18.1252 27.5836 18.1944 27.7316 18.27L27.7332 18.2716C28.2078 18.5162 28.7886 18.3295 29.0331 17.8549C29.2777 17.3803 29.0911 16.7995 28.6164 16.555L28.6148 16.5534C28.2995 16.3909 27.9761 16.2493 27.6447 16.1286C27.1025 15.9308 26.5426 15.7892 25.9699 15.7087C25.2894 15.6106 24.6008 15.5993 23.917 15.6717C23.9106 15.6717 23.9041 15.6733 23.8993 15.6733C23.8752 15.6766 23.8511 15.6782 23.8269 15.6814C23.8044 15.6846 23.7819 15.6862 23.7594 15.6894C23.7577 15.6894 23.7561 15.6894 23.7545 15.6894C23.7288 15.6926 23.703 15.6959 23.6773 15.6991C23.6628 15.7007 23.6467 15.7023 23.6323 15.7055C23.0933 15.7795 22.5656 15.9066 22.0508 16.0852C21.5118 16.2718 20.9937 16.5132 20.5063 16.8044C20.495 16.8108 20.4854 16.8172 20.4741 16.8237C20.4596 16.8333 20.4435 16.8414 20.429 16.851C20.4146 16.8607 20.4001 16.8687 20.3856 16.8784C19.8917 17.184 19.43 17.5396 19.0084 17.9418C18.5789 18.3521 18.1976 18.8041 17.8646 19.2948C17.8629 19.2965 17.8613 19.2997 17.8597 19.3013C17.8565 19.3077 17.8517 19.3125 17.8485 19.319C17.8469 19.3222 17.8436 19.3254 17.842 19.3302C17.8388 19.3335 17.8372 19.3383 17.834 19.3415C17.8195 19.3624 17.805 19.3849 17.7922 19.4059C17.4092 19.985 17.1036 20.606 16.8767 21.2592Z" fill="#46B549"/>
<path d="M19.1351 15.2168C19.2992 15.2168 19.4665 15.1749 19.6194 15.0864C20.0183 14.8548 20.4334 14.6505 20.8582 14.4751C21.9313 14.0327 23.0768 13.772 24.2432 13.7109C24.2512 13.7109 24.2593 13.7109 24.2673 13.7093C24.3976 13.7028 24.5263 13.698 24.6566 13.6964C24.7097 13.6964 24.7644 13.6948 24.8175 13.6964C26.3379 13.7012 27.847 14.0455 29.2274 14.7068C29.3175 14.7502 29.4076 14.7936 29.496 14.8403C30.9167 15.5707 31.4765 17.3211 30.7461 18.7401C30.6287 18.9686 30.4823 19.1793 30.3117 19.366C29.6827 20.0578 28.7737 20.3844 27.8808 20.2959C27.5268 20.2605 27.1761 20.1591 26.8463 19.9902C26.2204 19.6684 25.527 19.4963 24.8288 19.4899C24.8288 19.4899 24.8288 19.4899 24.8272 19.4899C24.7612 19.4899 24.6936 19.4899 24.6277 19.4931C24.5585 19.4963 24.4909 19.4995 24.4218 19.5059C24.4008 19.5075 24.3815 19.5092 24.3606 19.5108C24.3606 19.5108 24.3606 19.5108 24.359 19.5108C24.351 19.5108 24.3429 19.5124 24.3365 19.5124C24.3188 19.514 24.3011 19.5156 24.2834 19.5172C24.256 19.5204 24.2271 19.5236 24.1997 19.5269C24.1611 19.5317 24.1225 19.5365 24.0855 19.5429C24.0662 19.5462 24.0469 19.5494 24.0292 19.5526C24.0099 19.5558 23.9906 19.559 23.9713 19.5623C23.952 19.5655 23.9327 19.5687 23.915 19.5735C23.8957 19.5767 23.8764 19.5816 23.8587 19.5848C23.8345 19.5896 23.812 19.5944 23.7879 19.6009C23.767 19.6057 23.7476 19.6105 23.7267 19.6153C23.6946 19.6234 23.664 19.6314 23.6318 19.6395C23.6157 19.6443 23.5996 19.6475 23.5835 19.6523C23.5498 19.662 23.516 19.6717 23.4838 19.6813C23.4677 19.6861 23.4532 19.691 23.4371 19.6958C23.4275 19.699 23.4194 19.7022 23.4098 19.7054C23.1395 19.7923 22.8773 19.9049 22.6263 20.0417C22.6134 20.0481 22.6005 20.0562 22.5861 20.0626C22.578 20.0674 22.5716 20.0706 22.5635 20.0755C22.5619 20.0771 22.5587 20.0771 22.5571 20.0787C22.5346 20.0916 22.5121 20.1044 22.4911 20.1173C22.4702 20.1302 22.4477 20.143 22.4268 20.1559C22.4252 20.1575 22.422 20.1591 22.4204 20.1591C22.401 20.1704 22.3817 20.1833 22.3624 20.1961C22.3576 20.1994 22.3528 20.2026 22.348 20.2058C22.3351 20.2138 22.3222 20.2219 22.3093 20.2315L22.3077 20.2331C22.3029 20.2364 22.2965 20.2396 22.2916 20.2428C22.2884 20.2444 22.2836 20.2476 22.2804 20.2508C22.2707 20.2573 22.2627 20.2621 22.2546 20.2685C22.2434 20.275 22.2337 20.283 22.2225 20.2911C22.2112 20.2975 22.2015 20.3055 22.1903 20.3136C22.0214 20.4326 21.8605 20.563 21.7092 20.7045C21.6899 20.7222 21.6722 20.7399 21.6529 20.7576C21.6336 20.7753 21.6159 20.793 21.5982 20.8123C21.5838 20.8268 21.5677 20.8429 21.5532 20.8574C21.5516 20.859 21.55 20.8606 21.5484 20.8622C21.5451 20.8638 21.5435 20.867 21.5419 20.8686C21.5242 20.8863 21.5081 20.904 21.492 20.9217C21.4792 20.9346 21.4663 20.9491 21.4534 20.9636C21.3778 21.0472 21.3054 21.1325 21.2362 21.221C21.2266 21.2322 21.2169 21.2451 21.2089 21.2564C21.2041 21.2628 21.2008 21.2676 21.196 21.2741C21.1928 21.2789 21.188 21.2837 21.1848 21.2885C21.1815 21.2918 21.1799 21.295 21.1767 21.2998C21.1735 21.3046 21.1703 21.3095 21.1671 21.3127C21.1558 21.3272 21.1461 21.34 21.1365 21.3545C21.1285 21.3658 21.1188 21.3786 21.1108 21.3899C21.1043 21.3979 21.0995 21.406 21.0947 21.414C21.0882 21.4237 21.0802 21.4349 21.0737 21.4446C21.0544 21.4736 21.0351 21.5025 21.0158 21.5315C21.0094 21.5411 21.0046 21.5492 20.9981 21.5588C20.9965 21.562 20.9949 21.5637 20.9933 21.5669C20.945 21.6425 20.8984 21.7181 20.8549 21.7969C20.7649 21.9594 20.6844 22.1267 20.6136 22.2989C20.6072 22.3134 20.6024 22.3262 20.5975 22.3407C20.5895 22.3584 20.5831 22.3761 20.5766 22.3938C20.5702 22.4083 20.5654 22.4244 20.5589 22.4389C20.2902 23.1645 20.2162 23.9399 20.3385 24.7009C20.3401 24.7089 20.3401 24.717 20.3417 24.725C20.435 25.2946 20.6345 25.8367 20.9322 26.3258C20.937 26.3339 20.9418 26.3419 20.9467 26.35C21.2523 26.8503 21.6529 27.2831 22.1308 27.6306C22.1436 27.6403 22.1565 27.6499 22.1694 27.658C22.8016 28.1116 23.5385 28.3916 24.3188 28.472C24.3365 28.4736 24.3542 28.4752 24.3719 28.4769C24.3799 28.4769 24.388 28.4785 24.396 28.4785C24.5762 28.4946 24.758 28.4994 24.9382 28.4929C24.9495 28.4929 24.9607 28.4913 24.972 28.4913C25.6767 28.4624 26.3685 28.2677 26.983 27.925C27.448 27.6644 27.6153 27.0772 27.3547 26.6106C27.0908 26.1505 26.5036 25.9848 26.037 26.2454C25.6573 26.4578 25.2246 26.5704 24.7854 26.5704C24.6599 26.5704 24.5376 26.5607 24.4169 26.5446C24.4073 26.543 24.3976 26.5414 24.388 26.5398C24.3799 26.5382 24.3703 26.5366 24.3622 26.535C24.3413 26.5318 24.3204 26.5285 24.2995 26.5237C24.2882 26.5221 24.2786 26.5189 24.2673 26.5173C24.2383 26.5108 24.2094 26.5044 24.1804 26.498C24.1563 26.4915 24.1306 26.4851 24.1064 26.4787C24.0823 26.4722 24.0582 26.4642 24.034 26.4578C24.0244 26.4545 24.0131 26.4513 24.0035 26.4481C24.0002 26.4465 23.997 26.4465 23.9922 26.4449C23.9809 26.4417 23.9713 26.4384 23.96 26.4352C23.9471 26.4304 23.9359 26.4272 23.9246 26.4224C23.9005 26.4143 23.8764 26.4047 23.8522 26.395C23.841 26.3902 23.8281 26.3854 23.8168 26.3805C23.7959 26.3725 23.7766 26.3644 23.7557 26.3548C23.746 26.35 23.7364 26.3467 23.7267 26.3419C23.7171 26.3371 23.7074 26.3339 23.6978 26.329C23.2393 26.1151 22.8531 25.7676 22.5893 25.338C22.5845 25.3316 22.5812 25.3235 22.5764 25.3171C22.348 24.9342 22.2209 24.495 22.2112 24.0477C22.2112 24.0445 22.2112 24.0429 22.2112 24.0397C22.2112 24.0107 22.2112 23.9834 22.2112 23.9544L22.2112 23.9528C22.2112 23.9447 22.2112 23.9351 22.2112 23.927C22.2112 23.9126 22.2128 23.8981 22.2128 23.8852C22.2128 23.8804 22.2128 23.8756 22.2128 23.8707C22.2128 23.8627 22.2128 23.8546 22.2144 23.8466C22.2144 23.8418 22.2144 23.8353 22.216 23.8305C22.2176 23.816 22.2176 23.8032 22.2192 23.7887C22.2209 23.7742 22.2209 23.7613 22.2225 23.7485C22.2321 23.6407 22.2498 23.5345 22.2723 23.4299C22.2756 23.4154 22.2788 23.3993 22.2836 23.3849C22.2868 23.372 22.29 23.3591 22.2933 23.3446C22.2965 23.3318 22.2997 23.3189 22.3045 23.306C22.3238 23.2369 22.3463 23.1677 22.3705 23.1001C22.3753 23.0888 22.3785 23.0776 22.3833 23.0663C22.3914 23.0438 22.401 23.0229 22.4107 23.0004C22.4187 22.981 22.4268 22.9617 22.4364 22.9424C22.4364 22.9408 22.438 22.9408 22.438 22.9392C22.4574 22.8974 22.4767 22.8572 22.4976 22.8169C22.5346 22.7429 22.5764 22.6721 22.6215 22.603C22.644 22.5676 22.6665 22.5338 22.6906 22.5016C22.7003 22.4887 22.7099 22.4743 22.7196 22.4614C22.7598 22.4083 22.8016 22.3552 22.8451 22.3053C22.8547 22.2941 22.8644 22.2828 22.874 22.2715C22.8837 22.2603 22.8934 22.249 22.9046 22.2394C23.0349 22.0994 23.1829 21.9723 23.3422 21.8645C23.3551 21.8565 23.3664 21.8484 23.3792 21.8404C23.3889 21.8339 23.3985 21.8275 23.4066 21.8227C23.4291 21.8082 23.4516 21.7953 23.4741 21.7808C23.6399 21.6827 23.8168 21.6039 24.0002 21.5443C24.0147 21.5395 24.0292 21.5347 24.0437 21.5315C24.0726 21.5234 24.1 21.5154 24.1289 21.5073C24.1386 21.5041 24.1483 21.5025 24.1579 21.4993L24.1595 21.4993C24.1676 21.4977 24.1772 21.4945 24.1853 21.4929C24.1965 21.4896 24.2062 21.488 24.2174 21.4848C24.2448 21.4784 24.2705 21.4736 24.2979 21.4671C24.3011 21.4671 24.3027 21.4655 24.3059 21.4655C24.314 21.4639 24.322 21.4623 24.3284 21.4607C24.3317 21.4607 24.3349 21.4591 24.3381 21.4591C24.3477 21.4575 24.3574 21.4559 24.3671 21.4543C24.3719 21.4526 24.3751 21.4526 24.3799 21.4526C24.4057 21.4478 24.433 21.4446 24.4588 21.4414C24.5682 21.4269 24.6776 21.4205 24.787 21.4205C24.7998 21.4205 24.8143 21.4205 24.8272 21.4205L24.8304 21.4205C25.223 21.4269 25.6123 21.525 25.9662 21.7068C27.9033 22.7027 30.2779 22.2764 31.7436 20.6659C32.0284 20.3538 32.2713 20.0015 32.466 19.6234C32.7636 19.0442 32.939 18.4232 32.9888 17.778C33.0355 17.1554 32.9631 16.5376 32.7717 15.9407C32.5802 15.3439 32.281 14.7985 31.8804 14.319C31.4653 13.8219 30.9617 13.4197 30.3841 13.122C29.4108 12.6201 28.3779 12.2517 27.3145 12.028C26.2816 11.8108 25.2246 11.7272 24.1692 11.7819C24.1515 11.7835 24.1338 11.7851 24.1161 11.7867C23.2489 11.8334 22.3898 11.9717 21.5564 12.2002C20.5831 12.4656 19.6467 12.8518 18.7683 13.3489C18.7441 13.3618 18.72 13.3762 18.6975 13.3891C18.6814 13.3988 18.6653 13.4068 18.6492 13.4165C18.1891 13.6835 18.0314 14.2756 18.3001 14.7357C18.4787 15.0446 18.8021 15.2168 19.1351 15.2168Z" fill="#46B549"/>
</g>
<defs>
<clipPath id="clip0_1801_3392">
<rect width="20.4452" height="24.4592" fill="white" transform="translate(12.5547 11.7656)"/>
</clipPath>
</defs>
</svg>
