<svg width="30" height="18" viewBox="0 0 30 18" fill="none" xmlns="http://www.w3.org/2000/svg">
<path d="M8.81649 6.48116C8.8112 6.75151 8.84625 7.02114 8.92049 7.28116C9.00413 7.51407 9.10301 7.74123 9.21649 7.96116L9.28849 8.17716C9.28155 8.23594 9.26139 8.29238 9.22953 8.34226C9.19766 8.39214 9.15491 8.43416 9.10449 8.46516L8.51249 8.85716C8.44489 8.91304 8.36019 8.94409 8.27249 8.94516C8.21934 8.9453 8.16679 8.93394 8.11846 8.91185C8.07012 8.88975 8.02715 8.85744 7.99249 8.81716C7.86227 8.68044 7.74696 8.53026 7.64849 8.36915C7.53729 8.19216 7.43839 8.00772 7.35249 7.81716C7.02666 8.23624 6.60928 8.57522 6.13229 8.80817C5.65529 9.04112 5.13133 9.16187 4.60049 9.16116C3.90618 9.19184 3.22778 8.9475 2.71249 8.48116C2.47856 8.24207 2.29612 7.95758 2.17641 7.64524C2.0567 7.3329 2.00228 6.99935 2.01649 6.66516C2.00261 6.29898 2.07085 5.93435 2.21619 5.59797C2.36154 5.26159 2.58032 4.962 2.85649 4.72116C3.51476 4.20953 4.33612 3.95375 5.16849 4.00116C5.5136 3.99663 5.85857 4.01803 6.20049 4.06516C6.55249 4.10516 6.91249 4.19316 7.28849 4.26516V3.58516C7.34517 3.04173 7.18406 2.49799 6.84049 2.07316C6.40375 1.74182 5.85805 1.58754 5.31249 1.64116C4.96733 1.6438 4.62367 1.68676 4.28849 1.76916C3.94424 1.84783 3.60708 1.95486 3.28049 2.08916L2.94449 2.21716H2.80049C2.66449 2.21716 2.60049 2.12116 2.60049 1.92116V1.45716C2.58575 1.34378 2.6082 1.22868 2.66449 1.12916C2.73623 1.04536 2.82666 0.979588 2.92849 0.937156C3.30382 0.744869 3.70151 0.599767 4.11249 0.505156C4.59341 0.382705 5.08825 0.323539 5.58449 0.329156C6.48107 0.26499 7.3675 0.551858 8.05649 1.12916C8.33593 1.4442 8.55044 1.8113 8.68773 2.20942C8.82501 2.60753 8.88236 3.02883 8.85649 3.44916V6.50516L8.81649 6.48116ZM4.98449 7.91316C5.31716 7.90732 5.64673 7.84789 5.96049 7.73716C6.30846 7.62296 6.61839 7.41542 6.85649 7.13716C7.00756 6.96421 7.11703 6.75896 7.17649 6.53716C7.23937 6.27526 7.26894 6.00646 7.26449 5.73716V5.34516C6.97971 5.27568 6.69126 5.22226 6.40049 5.18516C6.10608 5.14658 5.80941 5.12788 5.51249 5.12916C5.01656 5.09079 4.52246 5.2235 4.11249 5.50516C3.95543 5.6354 3.83202 5.80152 3.75265 5.98949C3.67329 6.17746 3.6403 6.38176 3.65649 6.58516C3.6413 6.76659 3.66405 6.94919 3.72327 7.12135C3.7825 7.29351 3.8769 7.45146 4.00049 7.58516C4.13119 7.70832 4.28635 7.80259 4.45588 7.86186C4.62541 7.92113 4.80552 7.94406 4.98449 7.92916V7.91316ZM12.5525 8.92916C12.4258 8.94503 12.2976 8.91371 12.1925 8.84116C12.0984 8.7355 12.03 8.60957 11.9925 8.47316L9.78449 1.17716C9.74295 1.055 9.71348 0.929062 9.69649 0.801156C9.69149 0.769889 9.6937 0.737893 9.70294 0.707608C9.71218 0.677323 9.72822 0.649548 9.74982 0.6264C9.77143 0.603252 9.79803 0.585342 9.82761 0.574035C9.85718 0.562728 9.88895 0.558323 9.92049 0.561156H10.8485C10.9783 0.55298 11.1072 0.586627 11.2165 0.657156C11.3133 0.761772 11.3773 0.892512 11.4005 1.03316L13.0005 7.27316L14.4805 1.02516C14.4958 0.887704 14.5547 0.758752 14.6485 0.657156C14.7569 0.59847 14.8773 0.565615 15.0005 0.561156H15.8005C15.9328 0.552933 16.0643 0.586517 16.1765 0.657156C16.2743 0.760131 16.3361 0.892074 16.3525 1.03316L17.8405 7.35316L19.4405 1.02516C19.4783 0.890498 19.5437 0.765175 19.6325 0.657156C19.7448 0.593815 19.8716 0.560734 20.0005 0.561156H20.8805C20.9366 0.55431 20.9932 0.569746 21.0381 0.604148C21.0829 0.638551 21.1125 0.689177 21.1205 0.745156V0.801156V0.953156L21.0565 1.19316L18.7605 8.48116C18.7277 8.61941 18.6587 8.74643 18.5605 8.84916C18.4539 8.91225 18.3323 8.94542 18.2085 8.94516H17.4005C17.2682 8.95338 17.1367 8.9198 17.0245 8.84916C16.9281 8.74523 16.8665 8.61377 16.8485 8.47316L15.3765 2.40116L13.9205 8.47316C13.9005 8.61319 13.8392 8.74409 13.7445 8.84916C13.634 8.92368 13.5012 8.95761 13.3685 8.94516L12.5525 8.92916ZM24.6725 9.18516C24.1846 9.18286 23.6987 9.1238 23.2245 9.00916C22.8459 8.93587 22.4796 8.80928 22.1365 8.63316C22.0165 8.57944 21.9159 8.49005 21.8485 8.37716C21.8075 8.29511 21.7856 8.20486 21.7845 8.11316V7.63316C21.7845 7.44116 21.8645 7.34516 22.0005 7.34516H22.1765L22.4165 7.44116C22.7481 7.58633 23.094 7.69626 23.4485 7.76916C23.8194 7.8468 24.1976 7.88435 24.5765 7.88116C25.053 7.91101 25.528 7.80267 25.9445 7.56916C26.1003 7.47839 26.2286 7.3472 26.3159 7.18947C26.4032 7.03174 26.4463 6.85335 26.4405 6.67316C26.4418 6.42749 26.3503 6.19038 26.1845 6.00916C25.9072 5.7798 25.5818 5.61576 25.2325 5.52916L23.8645 5.09716C23.2712 4.95076 22.7409 4.6169 22.3525 4.14516C22.0476 3.75423 21.8815 3.27292 21.8805 2.77716C21.8722 2.41139 21.9605 2.0499 22.1365 1.72916C22.3047 1.4155 22.5396 1.14245 22.8245 0.929156C23.1191 0.723907 23.4505 0.577243 23.8005 0.497156C24.1871 0.381347 24.589 0.324705 24.9925 0.329156C25.2037 0.330558 25.4147 0.343913 25.6245 0.369156L26.2405 0.473156L26.7765 0.625156C26.9147 0.672167 27.0485 0.731053 27.1765 0.801156C27.2836 0.860108 27.3787 0.938829 27.4565 1.03316C27.5205 1.12709 27.5515 1.23968 27.5445 1.35316V1.79316C27.5445 1.99316 27.4645 2.08916 27.3285 2.08916C27.2027 2.07911 27.0803 2.04373 26.9685 1.98516C26.3984 1.72635 25.7786 1.59529 25.1525 1.60116C24.7178 1.57627 24.2844 1.66739 23.8965 1.86516C23.7762 1.94606 23.6752 2.05233 23.6004 2.1765C23.5256 2.30066 23.479 2.4397 23.4637 2.58383C23.4485 2.72796 23.465 2.87368 23.5121 3.01074C23.5592 3.1478 23.6358 3.27288 23.7365 3.37716C24.0463 3.62075 24.4031 3.79778 24.7845 3.89716L26.1205 4.32116C26.6902 4.46386 27.2017 4.77969 27.5845 5.22516C27.8732 5.60387 28.0254 6.06904 28.0165 6.54516C28.0179 6.9211 27.9359 7.29268 27.7765 7.63316C27.5984 7.93992 27.3651 8.21113 27.0885 8.43316C26.7747 8.67225 26.4194 8.85126 26.0405 8.96116C25.5961 9.09 25.1351 9.15201 24.6725 9.14516V9.18516ZM26.4565 13.7612C23.0774 16.0562 19.0853 17.2801 15.0005 17.2732C9.81351 17.3075 4.8017 15.3982 0.952487 11.9212C0.664487 11.6572 0.952487 11.2972 1.27249 11.5132C5.54843 13.9374 10.3812 15.2083 15.2965 15.2012C18.9726 15.1764 22.6085 14.4345 26.0005 13.0172C26.5125 12.7852 26.9605 13.3532 26.4565 13.7292V13.7612ZM27.7445 12.2972C27.3445 11.7852 25.1205 12.0572 24.1125 12.1772C23.8085 12.2172 23.7605 11.9452 24.0405 11.7532C25.8085 10.5132 28.7205 10.8652 29.0645 11.2812C29.4085 11.6972 28.9765 14.6172 27.3125 16.0092C27.0565 16.2252 26.8085 16.1212 26.9205 15.8332C27.2965 14.8972 28.1445 12.8012 27.7205 12.2972H27.7445Z" fill="#4D4D66"/>
</svg>
