<svg width="32" height="32" viewBox="0 0 32 32" fill="none" xmlns="http://www.w3.org/2000/svg">
<path d="M15.0158 25.1044L21.2398 24.0004H21.2958L18.0958 20.2004C16.3278 18.1204 14.8958 16.4004 14.8958 16.3924C14.8958 16.3844 18.1998 7.28841 18.2158 7.25641C18.2318 7.22441 20.4798 11.1204 23.6718 16.6404C26.6718 21.8084 29.1358 26.0724 29.1598 26.1124V26.1844H8.83981L15.0158 25.1044ZM2.7998 23.9444L6.1518 18.1444L9.5038 12.3524L13.4078 9.08841L17.3278 5.81641C17.3127 5.87093 17.294 5.92438 17.2718 5.97641C17.2238 6.06441 15.3198 10.1444 13.0238 15.0404L8.8558 23.9444H5.8238C4.1598 23.9524 2.7998 23.9524 2.7998 23.9444Z" fill="#4D4D66"/>
</svg>
