<svg width="28" height="21" viewBox="0 0 28 21" fill="none" xmlns="http://www.w3.org/2000/svg">
<g clip-path="url(#clip0_1784_526)">
<path d="M15.0305 0.597656H12.2129V3.42451H15.0305V0.597656Z" fill="#4D4D66"/>
<path d="M15.0305 4.14844H12.2129V6.97529H15.0305V4.14844Z" fill="#4D4D66"/>
<path d="M15.0305 7.69922H12.2129V10.5261H15.0305V7.69922Z" fill="#4D4D66"/>
<path d="M11.6106 4.14844H8.79297V6.97529H11.6106V4.14844Z" fill="#4D4D66"/>
<path d="M11.6106 7.69922H8.79297V10.5261H11.6106V7.69922Z" fill="#4D4D66"/>
<path d="M8.18869 4.14844H5.37109V6.97529H8.18869V4.14844Z" fill="#4D4D66"/>
<path d="M8.18869 7.69922H5.37109V10.5261H8.18869V7.69922Z" fill="#4D4D66"/>
<path d="M4.81173 7.69922H1.99414V10.5261H4.81173V7.69922Z" fill="#4D4D66"/>
<path d="M18.4504 7.69922H15.6328V10.5261H18.4504V7.69922Z" fill="#4D4D66"/>
<path d="M9.60991 20.5976C-0.764165 20.5976 0.443459 11.4359 0.443459 11.4359H17.7603C20.6809 11.4359 21.6466 10.5072 21.6466 10.5072C21.6466 10.5072 19.9972 8.36693 21.928 5.78516C24.1008 7.0364 24.0194 8.89434 24.0194 8.89434C24.0194 8.89434 26.2347 8.1681 27.5998 9.41934C26.8388 11.9194 23.4584 11.7584 23.4584 11.7584C23.4584 11.7584 20.3205 20.5976 9.60991 20.5976Z" fill="#4D4D66"/>
</g>
<defs>
<clipPath id="clip0_1784_526">
<rect width="27.2" height="20" fill="white" transform="translate(0.400391 0.597656)"/>
</clipPath>
</defs>
</svg>
