<svg width="26" height="30" viewBox="0 0 26 30" fill="none" xmlns="http://www.w3.org/2000/svg">
<path d="M25.9498 13.3406C25.8998 12.8706 25.8298 12.3206 25.6698 11.7106C25.5098 11.1106 25.2798 10.4506 24.9398 9.77063C24.5998 9.09062 24.1498 8.38062 23.5798 7.69062C23.3498 7.42062 23.1098 7.15063 22.8398 6.90063C23.2398 5.32063 22.3598 3.95062 22.3598 3.95062C20.8398 3.86063 19.8798 4.42062 19.5198 4.68062C19.4598 4.66062 19.3998 4.63063 19.3398 4.60063C19.0798 4.50063 18.8198 4.40062 18.5398 4.31063C18.2698 4.22063 17.9898 4.15062 17.6998 4.08063C17.4098 4.01063 17.1198 3.96062 16.8298 3.91062C16.7798 3.91062 16.7298 3.89062 16.6698 3.89062C16.0098 1.77063 14.1098 0.890625 14.1098 0.890625C11.9898 2.24063 11.5898 4.12063 11.5898 4.12063C11.5898 4.12063 11.5898 4.16063 11.5698 4.23063C11.4498 4.26063 11.3398 4.30063 11.2198 4.33063C11.0598 4.38063 10.8898 4.44063 10.7398 4.50063C10.5798 4.56063 10.4198 4.62063 10.2598 4.69063C9.93977 4.83063 9.61977 4.99062 9.30977 5.16062C9.00977 5.33063 8.70977 5.52063 8.41977 5.71063L8.33977 5.68062C5.39977 4.56063 2.78977 5.91062 2.78977 5.91062C2.54977 9.04062 3.95977 11.0006 4.23977 11.3606C4.16976 11.5506 4.10977 11.7506 4.04977 11.9406C3.82977 12.6506 3.66977 13.3706 3.56977 14.1306C3.54977 14.2406 3.53977 14.3506 3.52977 14.4606C0.809766 15.8106 0.00976562 18.5506 0.00976562 18.5506C2.26977 21.1606 4.91977 21.3206 4.91977 21.3206C5.24977 21.9206 5.63977 22.4906 6.07977 23.0206C6.26977 23.2506 6.44977 23.4606 6.65977 23.6706C5.83977 26.0306 6.77977 27.9906 6.77977 27.9906C9.29976 28.0806 10.9598 26.8906 11.3098 26.6106C11.5598 26.7006 11.8198 26.7706 12.0698 26.8406C12.8498 27.0406 13.6398 27.1606 14.4298 27.1906C14.6198 27.1906 14.8298 27.2106 15.0198 27.1906H15.2998H15.4198C16.6098 28.8906 18.6898 29.1306 18.6898 29.1306C20.1798 27.5706 20.2598 26.0106 20.2598 25.6806V25.5406C20.5698 25.3206 20.8698 25.0906 21.1498 24.8306C21.7398 24.2906 22.2598 23.6806 22.6998 23.0206L22.8198 22.8306C24.4998 22.9206 25.6898 21.7906 25.6898 21.7906C25.4098 20.0406 24.4098 19.1806 24.1998 19.0206C23.9898 18.8606 24.1998 19.0206 24.1798 19.0006C24.1598 18.9806 24.1598 18.9806 24.1598 18.9806C24.1598 18.9806 24.1398 18.9606 24.1198 18.9606C24.1198 18.8506 24.1398 18.7506 24.1398 18.6406C24.1598 18.4506 24.1598 18.2606 24.1598 18.0706V17.7706V17.6506V17.4906C24.1598 17.4406 24.1598 17.3906 24.1398 17.3406C24.1198 17.2906 24.1398 17.2406 24.1198 17.1906L24.0998 17.0406L24.0798 16.8906C24.0498 16.7006 24.0198 16.5106 23.9698 16.3106C23.7898 15.5606 23.4998 14.8406 23.1098 14.1906C22.7198 13.5406 22.2398 12.9806 21.6898 12.4906C21.1498 12.0106 20.5298 11.6206 19.8898 11.3306C19.2398 11.0406 18.5798 10.8606 17.9098 10.7706C17.5798 10.7206 17.2398 10.7106 16.9098 10.7206H16.6598H16.5398C16.5398 10.7206 16.4498 10.7206 16.4098 10.7206C16.2398 10.7406 16.0698 10.7606 15.8998 10.7906C15.2298 10.9106 14.5998 11.1606 14.0498 11.4906C13.4998 11.8206 13.0198 12.2406 12.6298 12.7006C12.2398 13.1606 11.9398 13.6906 11.7298 14.2206C11.5198 14.7506 11.3998 15.3206 11.3698 15.8506C11.3698 15.9806 11.3698 16.1206 11.3698 16.2506V16.3506V16.4606C11.3698 16.5206 11.3698 16.5906 11.3898 16.6506C11.4098 16.9206 11.4698 17.1906 11.5398 17.4406C11.6898 17.9506 11.9198 18.4006 12.2098 18.7906C12.4998 19.1806 12.8498 19.5006 13.2098 19.7506C13.5798 20.0006 13.9698 20.1806 14.3598 20.2906C14.7498 20.4006 15.1398 20.4506 15.4998 20.4506H15.6998C15.6998 20.4506 15.7498 20.4506 15.7698 20.4506C15.8098 20.4506 15.8498 20.4506 15.8898 20.4506C15.8898 20.4506 15.9098 20.4506 15.9198 20.4506H15.9598C15.9598 20.4506 16.0098 20.4506 16.0298 20.4506C16.0798 20.4506 16.1198 20.4306 16.1598 20.4306C16.1998 20.4306 16.2498 20.4106 16.2798 20.4006C16.3698 20.3806 16.4398 20.3506 16.5198 20.3306C16.6798 20.2806 16.8298 20.2106 16.9598 20.1406C17.0998 20.0706 17.2198 19.9806 17.3498 19.9106C17.3798 19.8906 17.4198 19.8606 17.4498 19.8306C17.5698 19.7306 17.5998 19.5406 17.4998 19.4206C17.4098 19.3106 17.2598 19.2806 17.1298 19.3506L17.0398 19.4006C16.9298 19.4506 16.8198 19.5006 16.7098 19.5406C16.5998 19.5806 16.4698 19.6106 16.3398 19.6306C16.2798 19.6306 16.2198 19.6506 16.1498 19.6506C16.1198 19.6506 16.0898 19.6506 16.0498 19.6506H15.8598C15.8598 19.6506 15.7798 19.6506 15.7398 19.6506H15.6898C15.6898 19.6506 15.6498 19.6506 15.6398 19.6506C15.5998 19.6506 15.5698 19.6506 15.5298 19.6306C15.2398 19.5906 14.9498 19.5106 14.6798 19.3806C14.3998 19.2606 14.1398 19.0806 13.8898 18.8706C13.6398 18.6606 13.4398 18.4006 13.2798 18.1006C13.1198 17.8006 12.9998 17.4806 12.9498 17.1406C12.9298 16.9706 12.9098 16.7906 12.9198 16.6206C12.9198 16.5706 12.9198 16.5306 12.9198 16.4806V16.4206C12.9198 16.4206 12.9198 16.3706 12.9198 16.3506C12.9198 16.2606 12.9398 16.1606 12.9598 16.0706C13.0898 15.3206 13.4698 14.5906 14.0398 14.0406C14.1898 13.9006 14.3398 13.7806 14.5098 13.6606C14.6798 13.5406 14.8498 13.4406 15.0398 13.3606C15.2298 13.2806 15.4098 13.2006 15.6198 13.1506C15.8098 13.1006 16.0198 13.0606 16.2298 13.0406C16.3298 13.0406 16.4298 13.0206 16.5398 13.0206H16.7798H16.8698C17.0998 13.0406 17.3098 13.0706 17.5298 13.1206C17.9698 13.2106 18.3898 13.3806 18.7898 13.5906C19.5798 14.0306 20.2598 14.7206 20.6698 15.5406C20.8798 15.9506 21.0298 16.4006 21.0998 16.8506C21.1198 16.9706 21.1298 17.0806 21.1398 17.2006V17.2906V17.3806V17.7106C21.1398 17.7606 21.1398 17.8606 21.1398 17.9106C21.1398 18.0306 21.1198 18.1706 21.0998 18.2906C21.0798 18.4106 21.0598 18.5406 21.0398 18.6606C21.0198 18.7806 20.9898 18.9106 20.9498 19.0306C20.8898 19.2706 20.8098 19.5106 20.7198 19.7506C20.5298 20.2206 20.2798 20.6706 19.9898 21.0806C19.3898 21.9006 18.5698 22.5706 17.6398 23.0006C17.1698 23.2106 16.6798 23.3706 16.1798 23.4406C15.9298 23.4906 15.6698 23.5106 15.4198 23.5206H15.0298C14.8898 23.5206 14.7598 23.5206 14.6198 23.5006C14.0798 23.4606 13.5398 23.3606 13.0098 23.2106C12.4898 23.0606 11.9798 22.8506 11.4998 22.6006C10.5398 22.0906 9.67977 21.3906 9.00977 20.5406C8.67977 20.1206 8.37977 19.6606 8.13977 19.1906C7.89977 18.7206 7.69977 18.2106 7.55977 17.7006C7.41977 17.1906 7.32977 16.6706 7.29977 16.1406V16.0406V15.3506C7.29977 15.0906 7.32976 14.8206 7.35977 14.5606C7.38977 14.3006 7.43976 14.0206 7.48977 13.7606C7.53977 13.5006 7.60977 13.2306 7.67977 12.9706C7.82977 12.4506 8.00977 11.9406 8.22976 11.4706C8.66976 10.5206 9.24977 9.67062 9.93976 9.00062C10.1098 8.83062 10.2898 8.67063 10.4798 8.52063C10.6698 8.37063 10.8598 8.23063 11.0598 8.10063C11.2498 7.97063 11.4598 7.85063 11.6698 7.74062C11.7698 7.69062 11.8798 7.63063 11.9898 7.58063L12.1498 7.51063L12.3098 7.44062C12.5298 7.35062 12.7498 7.27063 12.9898 7.20062C13.0398 7.18062 13.1098 7.17062 13.1598 7.15062C13.2098 7.13062 13.2798 7.12063 13.3298 7.10063C13.4498 7.07063 13.5598 7.04063 13.6798 7.01063C13.7298 6.99063 13.7998 6.99062 13.8598 6.97062C13.9198 6.95062 13.9798 6.95062 14.0398 6.93062C14.0998 6.93062 14.1598 6.91063 14.2198 6.90063L14.3098 6.88063L14.3998 6.86063C14.4598 6.86063 14.5198 6.84063 14.5798 6.84063C14.6498 6.84063 14.7098 6.82063 14.7798 6.82063C14.8298 6.82063 14.9298 6.80063 14.9798 6.80063C15.0198 6.80063 15.0698 6.80063 15.0998 6.78063H15.1898H15.2298H15.2798C15.3498 6.78063 15.4098 6.78063 15.4798 6.76063H15.5798H15.6598C15.7098 6.76063 15.7798 6.76063 15.8298 6.76063C16.0598 6.76063 16.2898 6.76063 16.5098 6.76063C16.9598 6.78063 17.3998 6.83063 17.8298 6.91062C18.6898 7.07062 19.4998 7.35063 20.2398 7.71063C20.9798 8.07063 21.6298 8.51062 22.2098 8.99062C22.2498 9.02062 22.2798 9.05062 22.3198 9.08062C22.3498 9.11062 22.3898 9.14062 22.4198 9.17062C22.4898 9.23063 22.5498 9.29062 22.6198 9.36062C22.6898 9.43062 22.7498 9.48063 22.8098 9.55062C22.8698 9.62062 22.9298 9.67062 22.9998 9.74062C23.2398 10.0006 23.4698 10.2506 23.6698 10.5206C24.0698 11.0406 24.3998 11.5706 24.6598 12.0706L24.7098 12.1606L24.7598 12.2506C24.7898 12.3106 24.8198 12.3706 24.8498 12.4406C24.8798 12.5006 24.8998 12.5606 24.9398 12.6206C24.9598 12.6806 24.9898 12.7406 25.0198 12.8006C25.1098 13.0306 25.2098 13.2606 25.2798 13.4706C25.3998 13.8106 25.4798 14.1206 25.5498 14.3806C25.5698 14.4906 25.6698 14.5606 25.7798 14.5406C25.8998 14.5406 25.9798 14.4406 25.9798 14.3206C25.9798 14.0406 25.9798 13.7106 25.9398 13.3206L25.9498 13.3406Z" fill="#4C4C65"/>
</svg>
