<svg width="18" height="30" viewBox="0 0 18 30" fill="none" xmlns="http://www.w3.org/2000/svg">
<path fill-rule="evenodd" clip-rule="evenodd" d="M17.2901 14.83C16.8901 14.43 16.3501 14.2 15.7801 14.2H14.2201C14.1301 14.2 14.0501 14.12 14.0501 14.03V13.11C14.8101 12.99 15.4001 12.33 15.4001 11.54C15.4001 10.75 14.7901 10.05 14.0001 9.96C14.0001 9.96 14.0001 9.88 14.0001 9.85C14.0001 8 13.4801 7.22 13.1301 6.68C12.7301 6.12 11.7201 5.17 10.4601 5.13C9.82008 5.11 9.43008 5.29 9.08008 5.45C8.85008 5.56 8.64008 5.66 8.35008 5.7C8.35008 5.11 8.51008 4.56 8.85008 4.06C9.14008 3.62 9.46008 3.38 9.46008 3.38C9.58008 3.3 9.60008 3.13 9.52008 3.02C9.45008 2.92 9.08008 2.42 8.72008 2.27C8.63008 2.23 8.52008 2.25 8.44008 2.32C8.26008 2.48 7.66008 3.05 7.27008 3.9C7.16008 3.55 7.02008 3.24 6.83008 2.94C6.31008 2.11 5.45008 1.46 4.21008 0.96C4.14008 0.93 4.06008 0.93 4.00008 0.96C3.93008 0.99 3.88008 1.05 3.86008 1.12C3.46008 2.52 4.17008 3.77 4.84008 4.57C5.01008 4.77 5.19008 4.96 5.37008 5.13C5.14008 5.1 4.89008 5.11 4.62008 5.16C3.88008 5.31 3.24008 5.61 2.72008 6.06C2.15008 6.56 1.71008 7.25 1.40008 8.13C1.17008 8.78 1.13008 9.46 1.18008 10.1C0.540079 10.3 0.0800781 10.9 0.0800781 11.61C0.0800781 12.32 0.580079 12.97 1.27008 13.16C1.27008 14.48 1.30008 25.79 1.30008 27.53C1.30008 27.76 1.42008 27.97 1.61008 28.09C1.84008 28.22 2.39008 28.48 3.50008 28.7C4.66008 28.93 6.08008 29.04 7.71008 29.04C11.9501 29.04 13.5101 28.02 13.7801 27.82C13.9301 27.69 14.0201 27.5 14.0201 27.31C14.0201 26.91 14.0201 25.98 14.0201 25.43C14.0201 25.38 14.0401 25.34 14.0701 25.31C14.1001 25.28 14.1501 25.26 14.1901 25.26C14.5901 25.26 15.1101 25.26 15.7301 25.26C16.2901 25.26 16.8401 25.03 17.2401 24.64C17.6401 24.24 17.8701 23.69 17.8701 23.12C17.8701 21.2 17.8701 18.24 17.8701 16.32C17.8701 15.75 17.6501 15.21 17.2401 14.81L17.2901 14.83ZM1.70008 9.74C1.70008 9.74 1.70008 9.68 1.70008 9.65C1.70008 9.2 1.76008 8.75 1.91008 8.32C2.44008 6.82 3.37008 5.96 4.74008 5.69C4.87008 5.66 4.99008 5.65 5.10008 5.65C5.50008 5.65 5.85008 5.78 6.24008 5.92C6.34008 5.96 6.43008 5.99 6.53008 6.02C6.73008 6.09 6.94008 6.15 7.17008 6.19C7.25008 6.21 7.34008 6.18 7.40008 6.12C7.45008 6.07 7.48008 5.99 7.48008 5.92C7.48008 5.91 7.48008 5.9 7.48008 5.89C7.45008 5.72 7.44008 5.56 7.44008 5.4C7.44008 5.24 7.45008 5.09 7.48008 4.94C7.65008 3.93 8.32008 3.16 8.65008 2.83C8.74008 2.91 8.85008 3.02 8.94008 3.13C8.56008 3.49 7.80008 4.37 7.81008 5.73C7.81008 5.82 7.81008 5.91 7.82008 6.01C7.83008 6.15 7.95008 6.26 8.09008 6.25C8.61008 6.23 8.97008 6.07 9.28008 5.92C9.62008 5.76 9.91008 5.63 10.4201 5.64C11.4801 5.67 12.3401 6.48 12.6801 6.96C13.0101 7.47 13.4501 8.15 13.4601 9.81C13.4601 9.86 13.4601 9.92 13.4601 9.97C13.3001 10 13.1601 10.06 13.0201 10.14L12.8401 10.19C12.5801 9.37 11.8201 8.78 10.9101 8.78C9.79008 8.78 8.89008 9.69 8.89008 10.8C8.89008 10.87 8.89008 10.94 8.90008 11C8.66008 10.26 7.96008 9.72 7.13008 9.72C6.30008 9.72 5.60008 10.26 5.36008 11.01C5.43008 10.81 5.47008 10.59 5.47008 10.36C5.47008 9.29 4.60008 8.42 3.53008 8.42C2.68008 8.42 1.97008 8.96 1.70008 9.72V9.74ZM15.9301 16.66V22.76C15.9301 22.83 15.9001 22.9 15.8501 22.95C15.8001 23 15.7301 23.03 15.6601 23.03H14.3201C14.2501 23.03 14.1801 23 14.1301 22.95C14.0801 22.9 14.0501 22.83 14.0501 22.76V16.66C14.0501 16.59 14.0801 16.52 14.1301 16.47C14.1801 16.42 14.2501 16.39 14.3201 16.39H15.6601C15.7301 16.39 15.8001 16.42 15.8501 16.47C15.9001 16.52 15.9301 16.59 15.9301 16.66ZM2.73008 25.93V13.52C2.73008 13.52 2.78008 13.53 2.81008 13.54C4.14008 13.86 6.34008 14.22 8.72008 14.14C8.86008 14.51 9.12008 14.81 9.45008 15.01C9.65008 15.14 9.78008 15.39 9.78008 15.6C9.78008 15.7 9.79008 15.79 9.82008 15.88C9.86008 16 9.92008 16.11 9.99008 16.2C10.1001 16.34 10.2501 16.44 10.4201 16.5C10.5101 16.53 10.6101 16.55 10.7101 16.55C11.1801 16.55 11.5701 16.29 11.6401 15.85C11.6401 15.81 11.6501 15.76 11.6501 15.71C11.6501 15.71 11.6501 15.59 11.6501 15.54V15.53C11.6501 15.53 11.6501 15.49 11.6501 15.47C11.6501 15.44 11.6501 15.4 11.6501 15.37C11.6501 15.27 11.6501 15.17 11.6701 15.06C11.7101 14.81 11.7801 14.57 11.9001 14.34C12.0101 14.14 12.0801 13.92 12.1001 13.69C12.2701 13.65 12.4401 13.6 12.6201 13.55C12.6201 13.62 12.6201 13.7 12.6201 13.78C12.6201 13.92 12.6201 14.08 12.6201 14.25V14.71C12.6201 17.92 12.6201 24.47 12.6201 25.77C12.6201 25.91 12.5501 26.04 12.4301 26.12C11.9301 26.42 10.4401 27.16 7.72008 27.16C5.00008 27.16 3.48008 26.56 2.95008 26.3C2.82008 26.23 2.74008 26.09 2.74008 25.94L2.73008 25.93Z" fill="#4C4C65"/>
</svg>
