<?xml version="1.0" encoding="utf-8"?>
<!-- Generator: Adobe Illustrator 23.0.0, SVG Export Plug-In . SVG Version: 6.00 Build 0)  -->
<svg version="1.1" id="Layer_1" xmlns="http://www.w3.org/2000/svg" xmlns:xlink="http://www.w3.org/1999/xlink" x="0px" y="0px"
	 viewBox="0 0 874.9 875.1" style="enable-background:new 0 0 874.9 875.1;" xml:space="preserve">
<style type="text/css">
	.st0{fill:#46B549;}
</style>
<title>new1Asset 261x</title>
<g>
	<g id="Layer_1-2">
		<g id="Layer_1-2-2">
			<path class="st0" d="M806.4,369.6c-36.5-0.5-66.7,28.1-68.2,64.6v0.2c0,0.8,0,1.6-0.1,2.4v2.1c0,1.8,0,3.6-0.1,5.4
				c-0.2,9.2-0.9,18.3-2.1,27.4c-0.2,1.5-0.5,6.2-0.5,6.2c-0.4,2.6-0.8,5.2-1.3,7.8s-0.9,5.2-1.4,7.8c-1.8,9.8-4.2,19.5-7,29
				c-0.4,1.4-0.8,2.7-1.2,4.1c-1.1,3.6-2.3,7.3-3.5,10.9c-2,6-4.3,12-6.6,17.9c-5.4,12.8-11.7,25.2-18.9,37.2v0.1
				c-0.5,0.9-1.1,1.8-1.6,2.7l-0.6,1c-0.4,0.6-0.7,1.2-1.1,1.8l-0.7,1.1c-0.3,0.5-0.7,1.1-1,1.6l-0.5,0.7l-0.3,0.5
				c-0.3,0.5-0.7,1.1-1,1.6l-0.8,1.2c-0.3,0.5-0.7,1-1,1.5l-0.8,1.2l-1.1,1.5l-0.5,0.8l0,0l-0.2,0.3l-0.7,1l-0.4,0.5l-0.2,0.2
				l-0.6,0.9l-0.6,0.8l0,0l-0.1,0.1l-0.5,0.7l-0.5,0.6l-0.1,0.2l-0.2,0.2l-1,1.3l-0.3,0.5l-0.2,0.2c-0.2,0.2-0.3,0.4-0.5,0.6
				c-0.5,0.7-1,1.3-1.5,1.9l-0.5,0.6l-0.1,0.1l-0.3,0.4c-0.5,0.7-1,1.3-1.5,2l-0.7,0.9c-0.4,0.5-0.8,1.1-1.3,1.6
				c-0.2,0.3-0.4,0.5-0.6,0.8l-0.2,0.3l-1.2,1.5l-0.9,1.1c-0.1,0.1-0.2,0.2-0.3,0.4l-0.9,1.1l-0.7,0.8l-0.2,0.3l-1.2,1.4l-0.2,0.3
				l-0.7,0.8l-0.9,1l-0.3,0.3l-0.2,0.3l-0.7,0.8l-0.9,1.1l-0.3,0.4l-0.9,1l-0.3,0.4l-1,1.1l-0.6,0.7l-0.2,0.2
				c-0.2,0.2-0.4,0.4-0.5,0.6l-1.2,1.2l-0.3,0.4l-0.1,0.1c-0.7,0.8-1.4,1.5-2.2,2.3l-0.7,0.7l-1.5,1.6c-0.1,0.1-0.1,0.2-0.2,0.2
				l-0.7,0.7l-1.4,1.4l-0.7,0.7l-0.2,0.2l-1.3,1.3l-1,1l-0.3,0.3l-1,0.9L645,656l-0.2,0.2l-0.3,0.3l-1,0.9l-1,0.9l-1,0.9l-0.3,0.3
				l-1,0.9l-0.3,0.3l-1.1,1l-0.7,0.6l-0.2,0.2l-1.5,1.3l-0.8,0.7c-0.8,0.7-1.5,1.3-2.3,1.9l0,0l-0.1,0.1c-0.8,0.7-1.6,1.3-2.4,2
				l-0.6,0.5l-0.2,0.2l-1.6,1.3l-1,0.8l-1.5,1.2l-0.3,0.2l-0.8,0.6l-1.1,0.8l-0.4,0.3l-1.1,0.8l-0.4,0.3l-1.1,0.8l-1.1,0.8l-1.1,0.8
				l-0.3,0.3l-1.1,0.8l-0.4,0.3l-1.1,0.8l-0.8,0.6l-0.3,0.2c-0.5,0.4-1.1,0.8-1.6,1.1l-1,0.7l-1.8,1.3l-0.8,0.5l-2.6,1.8l-0.5,0.4
				l-0.5,0.3l-1.5,1l-1,0.6l-1.7,1.1l-1.1,0.7l-1.2,0.8l-0.4,0.3l-1.1,0.7l-0.4,0.2l-1.2,0.7l-0.9,0.5l-0.3,0.2l-0.4,0.2l-1.2,0.7
				l-0.9,0.5l-0.3,0.2l-1.5,0.9l-1.2,0.7l-0.4,0.2l-1.2,0.7l-0.8,0.5l-0.3,0.2l-1.7,1l-0.2,0.1l-0.8,0.4l-1.6,0.9l-0.5,0.3l-0.2,0.1
				l-0.5,0.3l-2.1,1.1l-0.7,0.4L578,704l-2,1l-0.3,0.1l-0.8,0.4l-1.3,0.7l-0.4,0.2l-0.3,0.2l-0.9,0.4l-1.2,0.6l-0.4,0.2l-1.2,0.6
				l-1.6,0.8l-1.2,0.6l-1.6,0.8l-1.2,0.6l-1.7,0.8l-1.2,0.5l-1.7,0.8l-1.2,0.5l-0.5,0.2l-1.4,0.6l-0.8,0.3l-0.2,0.1l-0.7,0.3
				l-2.1,0.9H552l-2.9,1.2l-0.7,0.3l-0.2,0.1l-1.9,0.8l-1.2,0.5l-0.4,0.2l-1.3,0.5l-0.9,0.3l-0.3,0.1l-0.4,0.2l-1.3,0.5l-1,0.3
				l-0.3,0.1l-1.7,0.6l-0.3,0.1l-1,0.3c-0.5,0.2-1.1,0.4-1.7,0.6l-1,0.3l-0.3,0.1l-1.7,0.6l-1.2,0.4l-1.8,0.6l-1.2,0.4l-2.1,0.7
				l-0.2,0.1l-0.7,0.2l-2.2,0.7l-0.7,0.2l-0.6,0.2l-0.6,0.2l-1.8,0.5l-0.8,0.2l-0.3,0.1l-0.5,0.1l-1.4,0.4l-0.9,0.2l-0.3,0.1
				l-0.4,0.1l-1.3,0.3l-1.3,0.3L509,730l-1,0.2l-0.3,0.1l-1.8,0.4l-1.3,0.3l-0.4,0.1l-1.3,0.3l-1.3,0.3l-1.4,0.3l-0.5,0.1l-1.3,0.3
				l-0.5,0.1l-1.5,0.3l-1.1,0.2l-1.8,0.3l-0.6,0.1l-0.7,0.1l-0.8,0.1l-2.3,0.4l-1.1,0.2l-1.5,0.3l-0.4,0.1l-0.3,0l-0.9,0.1l-1.4,0.2
				l-0.5,0.1l-0.3,0l-1,0.1l-1.4,0.2l-0.5,0.1l-1.3,0.2l-1.8,0.2h-0.3l-1,0.1l-1.3,0.2l-0.5,0l-1.3,0.2l-1.8,0.2h-0.3l-1,0.1
				l-1.4,0.2h-0.5l-1.3,0.1l-0.5,0l-1.5,0.1l-0.8,0.1H463l-0.8,0.1l-2.2,0.2h-0.2l-3,0.2H456h-0.3l-2.1,0.1h-0.3h-1l-1.4,0.1h-0.5
				h-1.3h-0.5c-0.5,0-0.9,0-1.4,0h-1.4h-1.4h-11.9h-1.7h-1c-0.8,0-1.6,0-2.4-0.1h-1.5l-2.5-0.1l-0.9,0h-0.3l-2-0.1l-1.3-0.1
				l-1.9-0.1l-1.4-0.1l-1.8-0.1l-1.4-0.1h-0.5l-1.4-0.1l-1.4-0.1l-1.4-0.1h-0.5l-1.4-0.1l-1.9-0.2l-1.3-0.2l-2-0.2l-1.2-0.2
				l-2.5-0.3h-0.2l-0.5-0.1l-2.4-0.3l-0.8-0.1l-0.9-0.2l-2.2-0.3l-1.2-0.2l-2-0.4l-1.3-0.2l-1.9-0.3l-1.4-0.3l-1.8-0.3l-1.4-0.3
				l-1.8-0.4l-1.4-0.3l-1.8-0.4l-1.3-0.3l-1.9-0.2l-0.3-0.1l-1-0.2l-2.1-0.5l-0.8-0.2l-0.3-0.1l-3.1-0.8l0,0
				c-0.6-0.1-1.2-0.3-1.7-0.5c-4-1.1-8-2.2-12-3.4c-2.6-0.8-5.1-1.6-7.7-2.5h-0.1l0,0c-5.3-1.8-10.6-3.8-15.9-5.9l-5.2-2.2
				c-20.5-8.6-39.9-19.5-58-32.5c-7.3-5.2-14.3-10.7-21-16.5c-2.7-2.3-5.3-4.7-7.9-7.1c-2.6-2.4-5.2-4.8-7.6-7.3
				c-1.2-1.2-2.5-2.5-3.7-3.7c-7.4-7.5-14.3-15.4-20.8-23.7l-0.3-0.3l-0.8-1l-0.3-0.4l-0.1-0.1c-1.2-1.6-2.5-3.2-3.7-4.8
				c-1.2-1.6-2.4-3.3-3.6-4.9c-7.1-9.9-13.5-20.2-19.3-30.9c-0.8-1.4-1.5-2.9-2.3-4.3c-0.7-1.4-1.5-2.9-2.2-4.3l-2.1-4.4
				c-2.1-4.4-4.1-8.9-6.1-13.4c-1-2.3-1.9-4.7-2.9-7c-0.2-0.5-0.4-0.9-0.5-1.4c-0.5-1.4-1.1-2.8-1.6-4.2c-1.7-4.6-3.3-9.2-4.8-13.9
				c-1.1-3.5-2.2-7-3.1-10.5c-6.5-23.7-10.1-48-10.7-72.6c0-1,0-1.9,0-2.9s0-1.9,0-2.9v-6.2c0-1.5,0.1-3,0.1-4.4c0-0.7,0-1.3,0.1-2
				c0-1.2,0.1-2.4,0.2-3.6c0.1-1,0.1-2,0.2-3l0,0c0.1-2,0.2-4,0.4-6c8.6-112.1,78.9-210,182.4-253.9c3.4-1.4,6.9-2.8,10.3-4.1
				c1.5-0.6,3-1.1,4.5-1.6l0.3-0.1c18.6-6.7,37.8-11.5,57.3-14.4c3.2-0.5,6.6-1,9.9-1.3l0,0l1.1-0.1c1-0.1,2-0.2,3-0.3
				c1.9-0.2,3.8-0.3,5.7-0.4l2.9-0.2c3.6-0.2,7.2-0.4,10.8-0.6c3.6-0.1,7.2-0.2,10.9-0.2c20.8,0,41.6,2.1,62,6.4h0.2l1.6,0.3
				l0.9,0.2l1.3,0.3l0.3,0.1l0.3,0.1l0.4,0.1h0.1l4.5,1.1l1.2,0.3l3.7,0.9c2.6,0.6,4.7,1.2,4.8,1.2l0.4,0.1l0.3,0.1
				c0.6,0.1,1.5,0.3,2.7,0.6l1,0.2l1.7,0.5l0.7,0.2c14.3,4.4,47,18.5,54.5,57.3c0,0.3,0.1,0.5,0.2,0.8c0.3,1.5,0.5,3,0.7,4.5
				c0.1,1,0.2,2,0.3,3s0.2,1.8,0.2,2.8v0.2c0,0.5,0,1,0,1.4v1.7c0,2.1-0.1,4.1-0.3,6.2c-3.1,37-33.8,66.1-71.1,66.1
				c-11.3,0-38-9-40.1-9.5c-10.8-2.3-21.8-3.4-32.9-3.3c-86.5,0.3-156.8,71-156.8,157.3l0,0v1.7c0,0.7,0,1.4,0,2.1v0.5
				c0,1.2,0.1,2.4,0.1,3.6v0.4c0.1,1.3,0.1,2.6,0.2,3.9v0.1c0.1,1.3,0.2,2.6,0.3,3.9c0.1,0.6,0.1,1.3,0.2,1.9s0.1,1.1,0.2,1.6
				c0.1,1,0.3,2.1,0.4,3.1l0,0.3c11.6,78.1,78.6,135.9,157.5,135.8c87.9,0,159.1-71.2,159.1-159c0-1.6,0-3.3-0.1-4.9l0.1-0.8
				c0-4,0.1-8,0.3-12c6.2-110.9,97.7-197.7,208.2-197.7c3.6,0,7.3,0.1,10.9,0.3l1.4,0.1c-0.5-0.9-1-1.7-1.4-2.5v-0.1
				c-0.1-0.1-0.1-0.2-0.2-0.3c-0.7-1.2-1.3-2.3-2-3.5c-9.5-16.3-20.1-31.9-31.6-46.8l-0.3-0.4l-2-2.5c-1.1-1.4-2.3-2.9-3.4-4.3
				l-0.4-0.5c-28.4-35-61.9-65.4-99.5-90.2l-0.4-0.3c-1.7-1.1-3.5-2.3-5.2-3.4l-1-0.7c-1.6-1-3.3-2-4.9-3.1l-1.2-0.7
				c-1.7-1.1-3.4-2.1-5.2-3.1l-0.4-0.3l-0.3-0.2c-26.6-15.7-54.9-28.6-84.2-38.3h-0.1l-6.6-2.1l-0.4-0.1c-2.1-0.7-4.2-1.3-6.4-1.9
				l-0.6-0.2c-2.1-0.6-4.2-1.2-6.3-1.8l-0.3-0.1l-1-0.3l-2.1-0.6l-1.5-0.4l-2.1-0.5l-1.4-0.4l-2.2-0.6l-1.2-0.3l-2.4-0.6l-1-0.2
				c-0.9-0.2-1.7-0.4-2.6-0.6l-0.9-0.2l-2.8-0.6l-0.7-0.1l-3-0.7l-0.4-0.1L526,9h-0.2c-21.8-4.5-43.8-7.2-66-8.4h-0.1l-3.6-0.3h-0.4
				l-3.3-0.1h-0.8c-1,0-2-0.1-2.9-0.1h-1.2L445,0.1h-1.9L441.2,0h-3.8c-1.9,0-3.8,0-5.6,0h-0.6c-52.8,0.7-105,10.9-154.1,30.3
				c-1.2,0.5-2.4,0.9-3.5,1.4l-1.4,0.5c-3.7,1.5-7.4,3.1-11,4.7c-49.6,21.8-94.7,52.8-133,91.1l0,0c-38.6,38.5-69.7,83.8-91.5,133.7
				l-0.2,0.5l-0.2,0.5c-1.3,3.1-2.7,6.2-4,9.4c-0.3,0.8-0.6,1.5-0.9,2.2s-0.7,1.8-1.1,2.7C11.6,324.6,1.4,375,0.1,426.1v0.2
				c0,1.5-0.1,3.1-0.1,4.6v1.1c0,1.4,0,2.9,0,4.3v2.5c0,1.4,0,2.9,0,4.3v1.1c0,1.5,0.1,3.1,0.1,4.6v0.2
				c1.2,51,11.5,101.4,30.2,148.8c0.4,0.9,0.7,1.8,1.1,2.7s0.6,1.5,0.9,2.2c1.3,3.1,2.6,6.2,3.9,9.3l0.2,0.6l0.2,0.5
				c44.3,100.7,124.7,181.1,225.5,225.3l0.2,0.1l1.5,0.6c1.8,0.8,3.5,1.5,5.3,2.2l3,1.2c0.4,0.2,0.9,0.3,1.3,0.5l3.7,1.5l0.6,0.2
				c40.3,15.9,82.7,25.6,125.9,28.8l0.8,0.1l4.3,0.3l1.6,0.1l3.4,0.2l2.4,0.1l2.6,0.1l3,0.1h1.9l3.7,0.1h1.5l3.6,0.1h0.1
				c1.7,0,3.3,0,5,0l0,0c1.9,0,3.8,0,5.6,0h0.6c52.8-0.6,105.1-10.9,154.2-30.2l1.6-0.7l3.3-1.3c2.3-0.9,4.7-1.9,7-2.9
				c51.2-21.9,97.7-53.5,137.1-92.9l0.1-0.1c1.6-1.6,3.1-3.1,4.6-4.7l0.1-0.1l1.2-1.3l0.2-0.2c1.1-1.2,2.3-2.4,3.4-3.6
				c0.2-0.2,0.5-0.5,0.7-0.7l0.6-0.6c0.4-0.4,0.7-0.8,1.1-1.2l2.9-3.2l0.6-0.7l0.3-0.4l0.7-0.8c0.3-0.3,0.6-0.7,0.9-1.1l1.2-1.3
				c0.6-0.7,1.2-1.3,1.8-2l0.7-0.8c1.5-1.8,3-3.5,4.5-5.3c0.3-0.3,0.5-0.7,0.8-1c1.3-1.6,2.6-3.2,3.9-4.8l0.6-0.8
				c1.5-1.8,3-3.7,4.4-5.5l0.2-0.3c0.2-0.3,0.5-0.6,0.7-0.9c0.7-0.7,1.3-1.5,1.8-2.3c0.7-1.1,1.5-2,2.2-3.1l4.3-5.8
				c1.4-1.9,2.8-3.9,4.2-5.8c0.2-0.2,0.3-0.5,0.5-0.7c1.4-2,2.8-4,4.1-6s2.7-4,4-6.1l0.1-0.2l0.2-0.4c1.3-2.1,2.7-4.2,4-6.2
				s2.6-4.2,3.9-6.3l0.2-0.3l0,0c1-1.7,2-3.4,3-5c0.4-0.6,0.7-1.3,1.1-1.9l0.3-0.5c2.2-3.9,4.4-7.9,6.5-11.8
				c0.4-0.8,0.9-1.7,1.3-2.5s1-1.8,1.4-2.7s1.1-2.1,1.6-3.1l1.2-2.3c0.9-1.8,1.8-3.6,2.6-5.3l0.6-1.4c0.7-1.5,1.4-2.9,2.1-4.4
				c0.3-0.6,0.6-1.2,0.9-1.9c0.6-1.4,1.3-2.8,1.9-4.2l0.7-1.7c1.6-3.6,3.1-7.2,4.6-10.8c0.3-0.7,0.6-1.4,0.8-2.1
				c0.4-0.9,0.8-1.9,1.1-2.8c18.7-47.5,28.9-98,30.1-149v-0.2c0-1.5,0.1-3.1,0.1-4.6V438C874.8,400.2,844.2,369.7,806.4,369.6z"/>
		</g>
	</g>
</g>
</svg>
