<svg xmlns="http://www.w3.org/2000/svg" viewBox="0 0 1633.94 1633.95"><defs><style>.cls-1{fill:#44b549;}</style></defs><title>new1Asset 91x</title><g id="Layer_2" data-name="Layer 2"><g id="Layer_1-2" data-name="Layer 1"><path class="cls-1" d="M1505.89,690.23a125.55,125.55,0,0,0-127.31,120.54c0,.14,0,.28,0,.42-.06,1.5-.1,3-.11,4.52v.55c0,1.13,0,2.25,0,3.37,0,3.38-.07,6.77-.16,10.15a482,482,0,0,1-4,51.24c-.32,2.87-1,11.63-1,11.63q-1.1,7.33-2.37,14.62t-2.69,14.56a553.11,553.11,0,0,1-13,54.26c-.75,2.55-1.51,5.1-2.3,7.64q-3.07,10.21-6.51,20.33-5.7,16.85-12.39,33.34a566.29,566.29,0,0,1-35.26,69.43l0,.06,0,.07q-1.53,2.55-3.07,5.07l-1.14,1.83c-.69,1.12-1.38,2.24-2.08,3.36l-1.34,2.1c-.64,1-1.29,2-1.94,3l-.85,1.32-.57.88c-.64,1-1.27,2-1.91,2.91l-1.47,2.23c-.63,1-1.27,1.9-1.91,2.84l-1.5,2.22-2,2.84-1,1.52h0l-.45.64-1.34,1.91-.68,1-.29.42-1.19,1.66-1.11,1.55h0l-.11.15-.92,1.28-.84,1.16c-.07.1-.15.2-.22.31l-.33.45c-.61.84-1.23,1.67-1.84,2.5-.21.27-.41.55-.62.83l-.28.38c-.28.38-.56.77-.85,1.15q-1.35,1.8-2.71,3.58l-.9,1.2-.2.25-.6.78c-1,1.24-1.91,2.49-2.88,3.72l-1.38,1.75c-.78,1-1.56,2-2.35,3-.38.49-.77,1-1.16,1.45l-.39.49-2.22,2.73c-.54.67-1.09,1.33-1.64,2-.18.23-.36.44-.55.66-.54.67-1.09,1.33-1.64,2l-1.26,1.5-.42.5c-.73.86-1.46,1.73-2.19,2.58l-.43.5c-.43.5-.85,1-1.28,1.49l-1.68,1.94c-.19.22-.38.43-.56.65l-.43.48-1.26,1.44-1.75,2-.59.66-1.63,1.83-.63.69-1.89,2.08-1.12,1.23-.38.41c-.33.37-.68.73-1,1.1l-2.15,2.31-.65.69-.24.26q-2,2.16-4.07,4.29l-1.24,1.28-2.9,3c-.14.14-.27.28-.41.41l-1.21,1.23-2.56,2.58-1.32,1.31-.45.44-2.46,2.42-1.83,1.78-.61.59-1.84,1.77-1.4,1.33-.46.44-.62.58-1.84,1.74-1.88,1.75-1.88,1.73-.63.58-1.85,1.7-.66.59-2,1.76-1.33,1.2-.45.4-2.92,2.57-1.51,1.32c-1.39,1.22-2.8,2.43-4.21,3.63l-.07.06-.22.19q-2.22,1.89-4.46,3.75l-1.16,1-.39.32c-1,.83-2,1.65-3,2.47l-1.83,1.48-2.76,2.22-.49.39-1.45,1.15-2,1.59-.67.53-2,1.55-.67.52-2,1.53-2,1.55-2,1.52-.67.51-2,1.51-.69.5-2.07,1.53-1.48,1.08-.5.36c-1,.71-2,1.41-2.93,2.11-.61.44-1.22.88-1.84,1.31l-3.36,2.36-1.44,1q-2.4,1.67-4.82,3.3l-1,.7-1,.64-2.88,1.93-1.79,1.17-3.11,2-2,1.29-2.19,1.4-.74.47-2.11,1.33-.72.45-2.14,1.33-1.63,1-.54.34-.71.43-2.14,1.3-1.63,1-.55.33-2.89,1.72-2.15,1.26-.75.44-2.25,1.3-1.55.89-.52.3-3.23,1.82-.47.26c-.46.27-.93.53-1.4.79l-3,1.64-1,.54-.29.16-.87.48c-1.28.69-2.56,1.38-3.85,2.06l-1.28.69-1.5.79-3.68,1.92-.5.25-1.49.77-2.41,1.22-.8.41-.55.27-1.63.82-2.29,1.13-.77.38-2.26,1.1-3,1.46-2.3,1.09-3,1.41-2.3,1.06-3.07,1.4-2.26,1-3.2,1.41-2.14.94-.88.38-2.64,1.13-1.39.6-.46.2-1.29.53-3.88,1.62-.23.1-5.38,2.17-1.38.54-.46.18-3.59,1.41-2.18.83-.82.31-2.46.94-1.73.64-.58.21-.8.29-2.38.88-1.78.64-.6.21-3.14,1.12-.6.21-1.81.62c-1,.37-2.1.73-3.15,1.08l-1.79.61-.6.2-3.24,1.07-2.31.76-3.43,1.09-2.14.67-3.93,1.21-.41.12-1.25.38-4.19,1.24-1.39.41-1.17.33-1.12.32-3.34.94-1.54.42-.51.14-.9.25-2.68.73-1.75.45-.58.16-.83.21-2.5.65-2.43.61-3.27.82-1.84.44-.62.15-3.26.77-2.47.57-.82.19-2.46.55c-.82.18-1.63.37-2.45.54s-1.69.37-2.53.54l-.85.18-2.35.5-.91.18-2.72.55-2.11.43-3.36.64-1.12.21-1.28.25-1.43.26-4.32.77-2.16.37-2.84.48-.77.13-.56.09-1.69.26q-1.34.23-2.67.42l-.89.14-.6.09-1.81.27-2.55.38-.85.12-2.5.35-3.34.45-.63.08-1.9.25-2.5.31-.84.1-2.51.3-3.39.38-.62.07-1.86.2c-.87.1-1.75.18-2.63.27l-.87.09-2.36.23-1,.09-2.89.26-1.51.14-.5,0-1.4.11c-1.39.12-2.79.23-4.19.33l-.46,0q-2.83.21-5.68.39l-1.5.09-.51,0-3.88.22-.59,0-1.77.08-2.66.13-.88,0-2.5.09-.86,0c-.85,0-1.7.07-2.56.09l-2.57.08-2.52.06-.84,0-2.58,0-3.4,0-2.54,0h-6.84l-2.73,0-1.73,0h-.57l-1,0-3.1-.07h-.54l-1.26,0c-1.48,0-3-.09-4.43-.14l-1.48,0-.32,0-1,0-4.66-.19-1.62-.09-.54,0-3.79-.2-2.42-.15-3.53-.23-2.54-.18c-1.14-.09-2.29-.17-3.43-.27-.86-.06-1.72-.14-2.57-.21l-.85-.07-2.56-.23c-.86-.07-1.73-.15-2.59-.24l-2.57-.25-.85-.08-2.54-.27-3.52-.38-2.45-.28-3.75-.46-2.21-.27-4.67-.62-.32,0-1-.12-4.45-.65-1.49-.21-1.75-.27-4.2-.66-2.3-.38L723,1371l-2.48-.44L717,1370l-2.56-.48-3.41-.65-2.58-.51-3.4-.69-2.57-.54-3.44-.74-2.51-.54L693,1365l-.59-.14-1.77-.41c-1.31-.3-2.63-.62-4-.94l-1.48-.36-.49-.11c-1.94-.48-3.88-1-5.82-1.46l-.1,0c-1.08-.27-2.15-.56-3.22-.84q-11.26-2.94-22.42-6.36c-4.82-1.48-9.63-3-14.41-4.61l-.24-.07-.08,0q-15-5-29.73-11-4.92-2-9.81-4A558.48,558.48,0,0,1,490.63,1274q-20.42-14.6-39.23-30.79-7.53-6.48-14.79-13.18t-14.26-13.66q-3.5-3.46-6.93-7a560.12,560.12,0,0,1-38.72-44.22l-.48-.61-1.46-1.85-.61-.8-.21-.26q-3.48-4.49-6.88-9.05c-2.26-3-4.5-6.09-6.69-9.17a556.67,556.67,0,0,1-36.1-57.74q-2.17-4-4.28-8t-4.15-8.11q-2-4.08-4-8.19-5.94-12.33-11.3-25-2.76-6.52-5.34-13.11c-.34-.87-.7-1.75-1-2.62q-1.53-4-3-7.92-4.78-12.9-8.9-26-3.11-9.79-5.82-19.7a568.17,568.17,0,0,1-20-135.51c0-1.81-.06-3.62-.09-5.44s-.07-3.62-.08-5.43c0-3.24,0-6.49,0-9.73,0-.59,0-1.18,0-1.77,0-2.75.11-5.5.19-8.25,0-1.23.08-2.46.13-3.69q.12-3.35.29-6.69c.09-1.83.19-3.66.3-5.5V785q.33-5.58.77-11.16A561.36,561.36,0,0,1,598.84,299.65q9.57-4,19.25-7.73c2.78-1.05,5.55-2.09,8.35-3.09l.51-.19a564.59,564.59,0,0,1,107-26.92c6.07-1,12.27-1.8,18.54-2.47v0l2-.23q2.81-.29,5.62-.53,5.32-.47,10.69-.8c1.78-.12,3.57-.22,5.36-.31q10.07-.7,20.19-1.07t20.3-.36a563.8,563.8,0,0,1,115.76,11.92l.23,0,.11,0c1,.17,2,.36,3,.55l1.69.33,2.37.5.52.11.51.11.7.17.23,0,8.3,2,2.26.56c2.3.56,4.71,1.15,6.94,1.71,4.82,1.19,8.78,2.19,9,2.28l.7.13.54.11c1.07.22,2.8.61,5.06,1.2l1.78.47c1,.27,2,.56,3.12.89l1.33.4c26.7,8.18,87.87,34.54,101.69,107,.09.49.18,1,.27,1.47.49,2.73.92,5.52,1.27,8.39.23,1.84.44,3.71.6,5.61.15,1.7.28,3.42.38,5.16,0,.12,0,.23,0,.34q.06,1.35.09,2.7c0,.74,0,1.49,0,2.24,0,.29,0,.59,0,.88v.1q0,5.83-.5,11.54c-5.83,69.13-63.08,123.4-132.86,123.4-21.05,0-71.05-16.9-74.84-17.65a295.23,295.23,0,0,0-61.35-6.21c-161.57.55-292.73,132.61-292.75,293.79h0c0,.25,0,.5,0,.75,0,.82,0,1.64,0,2.47,0,1.3,0,2.59.08,3.89,0,.29,0,.59,0,.88q.09,3.39.26,6.78l0,.69c.13,2.41.27,4.81.46,7.2,0,.07,0,.14,0,.22.19,2.42.4,4.83.65,7.24.12,1.21.27,2.41.4,3.62.12,1,.23,2,.35,3.06.24,1.94.51,3.87.79,5.8l.09.65c21,143.44,144.6,253.6,294,253.6,164.12,0,297.17-132.9,297.17-296.85,0-3-.06-6.09-.15-9.12.09-.89.15-1.43.15-1.43,0-7.44.21-15,.62-22.35,11.58-207,182.35-369.15,388.76-369.15,6.76,0,13.59.17,20.31.52l2.58.17q-1.34-2.39-2.69-4.74a1.74,1.74,0,0,1-.1-.19c-.12-.2-.24-.4-.35-.61-1.25-2.17-2.5-4.33-3.77-6.49a794.62,794.62,0,0,0-59.07-87.45l-.5-.65c-1.23-1.58-2.46-3.17-3.71-4.75q-3.16-4-6.4-8c-.26-.33-.52-.66-.79-1A821.29,821.29,0,0,0,1266.2,134.49l-.75-.49q-4.86-3.21-9.77-6.33l-1.93-1.23q-4.56-2.89-9.16-5.72l-2.22-1.37q-4.8-2.92-9.64-5.79l-.78-.47-.57-.33a813.26,813.26,0,0,0-157.31-71.48l-.13,0q-6.15-2-12.33-4l-.73-.22q-5.94-1.86-11.9-3.62l-1.14-.34q-5.82-1.71-11.68-3.34l-.5-.14-1.94-.53L1029.87,28l-2.73-.73-4-1-2.56-.66-4.18-1.06-2.32-.58-4.47-1.1-2-.47c-1.61-.39-3.21-.77-4.82-1.14l-1.64-.38L996,19.67l-1.22-.27-5.67-1.24-.79-.17-6.12-1.28-.34-.07A818.84,818.84,0,0,0,858.67,1.05h-.16L851.8.73l-.75,0L844.9.47l-1.46,0C841.62.37,839.8.31,838,.27L835.66.22,831,.12l-3.52,0L824,0c-2.34,0-4.69,0-7,0h0c-3.49,0-7,0-10.48.07l-1.14,0A811.21,811.21,0,0,0,517.57,56.61c-2.21.87-4.41,1.76-6.61,2.65l-2.59,1Q498,64.53,487.76,69.06A814.1,814.1,0,0,0,239.33,239.24l0,0h0A814.16,814.16,0,0,0,68.54,488.92l-.42.95-.42,1q-3.8,8.7-7.39,17.49c-.57,1.4-1.12,2.8-1.68,4.21-.67,1.66-1.35,3.32-2,5a810.82,810.82,0,0,0-56.34,278c0,.13,0,.26,0,.39-.08,2.87-.13,5.75-.17,8.62,0,.66,0,1.31,0,2,0,2.7,0,5.41-.06,8.12,0,.78,0,1.56,0,2.35s0,1.57,0,2.36c0,2.7,0,5.4.06,8.1,0,.66,0,1.32,0,2,0,2.87.09,5.74.17,8.61,0,.14,0,.27,0,.4a810.76,810.76,0,0,0,56.34,278c.66,1.67,1.34,3.33,2,5,.56,1.4,1.11,2.8,1.68,4.2q3.57,8.75,7.34,17.38l.47,1.08.39.89a820,820,0,0,0,421,420.72l.3.13c.92.41,1.86.8,2.79,1.2q4.91,2.13,9.86,4.2c1.84.76,3.68,1.54,5.52,2.29.79.33,1.6.64,2.4,1,2.29.93,4.58,1.86,6.87,2.77l1.16.44a808.52,808.52,0,0,0,235.09,53.84l1.47.11c2.68.2,5.37.39,8,.56l3.08.2c2.13.13,4.25.25,6.38.36l4.43.23,4.93.22,5.63.22,3.57.11c2.27.07,4.54.14,6.82.19l.47,0h0l2.25,0,6.78.12h.18c3.11,0,6.23.06,9.34.06h0q5.25,0,10.5-.07l1.1,0a811.33,811.33,0,0,0,287.89-56.55l3-1.21c2.07-.82,4.13-1.64,6.19-2.48q6.51-2.67,13-5.45a814.09,814.09,0,0,0,256-173.51l.18-.18c2.91-2.9,5.78-5.84,8.64-8.78a1.89,1.89,0,0,1,.2-.2c.78-.81,1.55-1.62,2.33-2.42l.27-.28q3.18-3.32,6.32-6.67c.42-.44.85-.88,1.27-1.33l1.05-1.12c.68-.73,1.35-1.46,2-2.2,1.83-2,3.66-4,5.47-6l1.18-1.29.67-.74,1.33-1.49c.59-.65,1.16-1.31,1.74-2l2.23-2.52c1.13-1.27,2.26-2.53,3.37-3.81l1.38-1.56q4.25-4.9,8.42-9.86c.53-.62,1-1.25,1.56-1.87,2.48-3,4.92-5.93,7.35-8.91l1.17-1.43c2.77-3.43,5.53-6.88,8.24-10.36l.44-.56c.44-.57.88-1.13,1.32-1.62a38.47,38.47,0,0,0,3.43-4.32c1.32-2,2.77-3.83,4.18-5.71q4-5.37,8-10.79t7.8-10.92c.32-.45.64-.9,1-1.36q3.9-5.57,7.69-11.19t7.49-11.32c.08-.11.15-.22.22-.33l.44-.68q3.75-5.79,7.41-11.64t7.2-11.76l.33-.55v0c1.88-3.13,3.72-6.27,5.55-9.43.7-1.2,1.37-2.42,2.07-3.62l.58-1q6.27-10.95,12.21-22.09,1.25-2.34,2.48-4.68c.9-1.7,1.78-3.4,2.66-5.11q1.48-2.9,3-5.8l2.17-4.31q2.48-5,4.88-9.94l1.2-2.54q2-4.1,3.86-8.2c.54-1.16,1.07-2.33,1.61-3.49,1.18-2.59,2.35-5.18,3.51-7.79l1.38-3.09q4.41-10,8.58-20.21c.54-1.32,1.06-2.64,1.59-3.95.7-1.76,1.41-3.5,2.1-5.26a810.66,810.66,0,0,0,56.34-278c0-.13,0-.26,0-.4.08-2.87.13-5.74.17-8.61,0-.66,0-1.32,0-2,0-2.6,0-5.21,0-7.82,0-.09,0-.19,0-.28v-1.49A128,128,0,0,0,1505.89,690.23Z"/></g></g></svg>