<svg xmlns="http://www.w3.org/2000/svg" viewBox="0 0 874.92 875.09"><defs><style>.cls-1{fill:#303030;}</style></defs><title>new1Asset 271x</title><g id="Layer_2" data-name="Layer 2"><g id="Layer_1-2" data-name="Layer 1"><g id="Layer_1-2-2" data-name="Layer 1-2"><path class="cls-1" d="M806.43,369.65a67.24,67.24,0,0,0-68.18,64.55v.22c0,.81,0,1.61-.06,2.42v2.1c0,1.81,0,3.63-.08,5.44A259.62,259.62,0,0,1,736,471.82c-.18,1.54-.54,6.23-.54,6.23-.39,2.62-.82,5.23-1.27,7.83s-.93,5.2-1.44,7.8a295.68,295.68,0,0,1-7,29.05c-.4,1.37-.81,2.74-1.23,4.1q-1.65,5.46-3.49,10.88-3.06,9-6.64,17.86a302.46,302.46,0,0,1-18.88,37.18v.07c-.54.91-1.09,1.82-1.64,2.72l-.61,1c-.37.6-.74,1.2-1.12,1.8l-.71,1.12c-.35.54-.7,1.07-1,1.61l-.46.7-.3.47c-.35.54-.68,1.08-1,1.56l-.78,1.2c-.34.53-.68,1-1,1.52l-.8,1.19-1.07,1.52-.54.81h0l-.24.35-.72,1-.36.53-.16.23-.63.89-.6.83h0l-.06.08-.49.68-.45.62-.12.17-.17.24-1,1.34-.33.45-.15.2c-.15.2-.3.41-.46.61-.48.65-1,1.29-1.45,1.92l-.48.64-.11.14-.32.42c-.53.66-1,1.33-1.54,2l-.74.94c-.42.53-.83,1.07-1.26,1.6-.2.26-.41.54-.62.78l-.21.26-1.19,1.46-.87,1.07c-.1.13-.2.24-.3.36l-.88,1.07-.67.8-.23.27-1.17,1.38-.23.27-.69.8-.9,1-.3.34-.23.26-.67.77-.94,1.07-.31.36-.88,1-.33.37-1,1.11-.6.66-.2.22c-.18.2-.36.39-.53.59l-1.16,1.23-.34.37-.13.14c-.72.77-1.44,1.54-2.18,2.3l-.67.69-1.55,1.6a2.28,2.28,0,0,1-.22.22l-.65.66-1.37,1.38-.71.7-.24.24-1.31,1.3-1,1-.33.32-1,.94L645,656l-.24.23-.33.31-1,.93-1,.94-1,.93-.34.31-1,.91-.35.31-1.08.95-.71.64-.24.21L636.17,664l-.81.71c-.75.65-1.5,1.3-2.26,1.94l0,0-.12.1c-.79.68-1.59,1.35-2.39,2l-.62.54-.21.17-1.61,1.32-1,.8-1.47,1.18-.27.21-.77.62-1.07.85-.36.28-1.07.83-.36.28-1.07.82-1.08.83-1.07.82-.35.27-1.08.81-.37.27-1.1.82-.8.57-.26.2c-.54.38-1.08.75-1.57,1.13l-1,.7-1.8,1.26-.77.54-2.58,1.76-.54.38-.53.34-1.54,1-1,.62-1.67,1.07-1.07.69-1.17.75-.4.26-1.13.71-.38.24-1.15.71-.87.54-.29.18-.38.23-1.15.7-.87.53-.3.18-1.54.92-1.16.67-.4.24-1.2.7-.83.47-.28.16-1.73,1-.25.14-.75.42-1.61.88-.53.29-.16.08-.47.26-2.06,1.1-.68.37L578,704l-2,1-.26.14-.8.41-1.29.65-.43.22-.3.15-.87.44-1.23.6-.41.21-1.21.58-1.6.79-1.24.58-1.6.76-1.23.56-1.65.75-1.21.54-1.71.75-1.15.51-.47.2-1.41.61-.75.32-.24.1-.7.29-2.07.87-.13,0-2.88,1.16-.74.29-.24.1-1.93.75-1.16.45-.44.16-1.32.51-.93.34-.31.11-.43.16-1.27.47-1,.34-.32.11-1.69.6-.32.12-1,.33c-.53.2-1.12.39-1.68.58l-1,.32-.32.11-1.74.57-1.24.41-1.83.58-1.15.36-2.1.65-.22.06-.67.21-2.25.66-.74.22-.63.18-.6.17-1.79.5-.82.23-.27.07-.49.14-1.43.39-.94.24-.31.08-.44.12-1.34.34-1.3.33-1.75.44-1,.24-.33.08-1.75.41-1.32.3-.44.11-1.32.29-1.31.29-1.35.29-.46.1-1.26.26-.49.1-1.45.29-1.13.23-1.8.35-.6.11-.69.13-.76.14-2.32.41-1.15.2-1.52.26-.42.07-.3.05-.9.14-1.43.22-.48.08-.32.05-1,.14-1.36.2-.46.07-1.34.19-1.79.24-.33,0-1,.13-1.34.17-.45.05-1.34.16-1.82.21-.33,0-1,.11-1.41.15-.46,0-1.27.13-.53.05-1.55.13-.81.08H463l-.75.06-2.24.18h-.25l-3,.2-.8,0h-.27l-2.08.12h-.32l-1,0-1.42.07h-.47l-1.34,0h-.46c-.46,0-.91,0-1.37.05l-1.38,0-1.35,0h-11.9l-1.66,0h-1c-.79,0-1.6,0-2.37-.08h-1.5l-2.5-.1-.86-.05h-.29l-2-.11-1.3-.08-1.89-.12-1.36-.1-1.84-.14-1.37-.11-.46,0-1.37-.12-1.38-.13-1.38-.14-.46,0-1.36-.14-1.88-.21-1.31-.15-2-.24-1.19-.15-2.5-.33h-.17l-.53-.06-2.39-.35-.79-.11-.94-.15-2.25-.35-1.23-.21-1.95-.37-1.33-.23-1.88-.3-1.37-.26-1.83-.35-1.38-.27-1.82-.37-1.38-.29-1.84-.39-1.34-.29L371.1,731l-.32-.07-.95-.22-2.14-.51-.79-.19-.26-.06-3.12-.78h0c-.58-.14-1.16-.3-1.73-.45q-6-1.58-12-3.41c-2.58-.79-5.15-1.6-7.71-2.46l-.13,0h0q-8-2.69-15.93-5.89l-5.25-2.15a298.92,298.92,0,0,1-57.95-32.5q-10.94-7.83-21-16.49-4-3.48-7.92-7.06t-7.64-7.32c-1.25-1.23-2.48-2.48-3.71-3.74A299,299,0,0,1,201.71,624l-.26-.32-.78-1-.33-.43-.11-.14q-1.86-2.4-3.69-4.85c-1.21-1.6-2.41-3.26-3.58-4.91a296.63,296.63,0,0,1-19.33-30.92q-1.17-2.14-2.29-4.29t-2.23-4.34L167,568.41q-3.18-6.61-6.05-13.39-1.48-3.49-2.86-7c-.18-.47-.38-.94-.54-1.41-.54-1.43-1.08-2.84-1.6-4.24q-2.56-6.9-4.77-13.92-1.67-5.25-3.12-10.55a304.46,304.46,0,0,1-10.71-72.57c0-1,0-1.94,0-2.92s0-1.94,0-2.9v-6.16c0-1.48.06-2.95.1-4.42,0-.66,0-1.32.07-2,0-1.19.1-2.39.16-3.58.05-1,.1-2,.16-3h0c.12-2,.25-4,.41-6A300.65,300.65,0,0,1,320.67,160.47q5.13-2.13,10.31-4.14c1.49-.56,3-1.11,4.47-1.65l.27-.1A301.84,301.84,0,0,1,393,140.16c3.25-.53,6.57-1,9.93-1.32h0l1.07-.12c1-.11,2-.2,3-.29,1.9-.17,3.8-.31,5.72-.43l2.87-.16q5.4-.37,10.81-.58c3.62-.13,7.24-.19,10.88-.19a302.37,302.37,0,0,1,62,6.38h.18l1.61.3.9.18,1.27.26.28.06.27.06.38.09h.12l4.45,1.07,1.21.3,3.71.92c2.59.64,4.71,1.17,4.82,1.22l.38.07.29.06c.57.12,1.5.33,2.71.64l1,.25,1.67.48.72.21c14.29,4.39,47,18.5,54.45,57.31.05.26.1.53.15.78.26,1.47.49,3,.68,4.5.12,1,.23,2,.32,3S581,217,581,218v.18c0,.48,0,1,.05,1.44v1.73q0,3.12-.27,6.18c-3.12,37-33.78,66.08-71.15,66.08-11.27,0-38.05-9-40.08-9.45a157.57,157.57,0,0,0-32.85-3.32c-86.53.29-156.77,71-156.78,157.33h0v1.73c0,.69,0,1.38,0,2.08v.47c0,1.21.08,2.42.14,3.63v.37c.07,1.29.14,2.58.25,3.86v.11c.1,1.3.21,2.59.34,3.88.07.65.15,1.29.22,1.94s.12,1.07.19,1.64c.12,1,.27,2.07.42,3.11l.05.34A159.13,159.13,0,0,0,439.05,597.13c87.89,0,159.14-71.18,159.14-159,0-1.6,0-3.26-.08-4.88l.08-.77c0-4,.11-8,.33-12,6.21-110.85,97.66-197.69,208.2-197.69,3.62,0,7.28.09,10.88.28l1.38.09c-.48-.86-1-1.7-1.44-2.54l0-.1c-.07-.11-.13-.22-.19-.33-.67-1.16-1.34-2.32-2-3.48a425.12,425.12,0,0,0-31.64-46.83l-.26-.35-2-2.54q-1.7-2.14-3.43-4.28l-.42-.54A440,440,0,0,0,678.07,72l-.4-.26c-1.74-1.14-3.48-2.27-5.24-3.39l-1-.66q-2.45-1.54-4.9-3.06l-1.19-.73q-2.58-1.58-5.17-3.1l-.41-.26-.31-.17a434.86,434.86,0,0,0-84.25-38.28h-.06L568.5,20l-.39-.11c-2.12-.67-4.24-1.31-6.37-1.94l-.61-.18q-3.12-.91-6.26-1.79l-.27-.08-1-.28L551.5,15,550,14.6l-2.14-.53-1.37-.35-2.24-.57-1.24-.31-2.4-.59L539.58,12c-.86-.21-1.72-.42-2.58-.61l-.88-.21-2.75-.65-.66-.14-3-.66-.43-.1L526,9l-.18,0a438.48,438.48,0,0,0-66-8.35h-.09L456.14.39h-.4L452.45.25h-.79c-1,0-2-.08-2.91-.11l-1.25,0L445,.06h-1.88L441.25,0H437.5c-1.87,0-3.75,0-5.61,0h-.61A434.22,434.22,0,0,0,277.15,30.32c-1.19.46-2.36.94-3.54,1.42l-1.39.53q-5.55,2.29-11,4.71a436,436,0,0,0-133,91.14h0A436,436,0,0,0,36.67,261.84l-.22.5-.23.54q-2,4.67-3.95,9.37c-.31.75-.6,1.5-.9,2.25s-.73,1.78-1.07,2.68A434.17,434.17,0,0,0,.12,426.06v.21c0,1.54-.07,3.08-.09,4.61V432c0,1.44,0,2.89,0,4.34v2.53c0,1.44,0,2.89,0,4.33v1.08c0,1.53.05,3.07.09,4.61v.21A434.17,434.17,0,0,0,30.3,597.94c.35.9.71,1.78,1.07,2.68s.59,1.5.9,2.25q1.9,4.68,3.93,9.31l.25.57.21.48A439.11,439.11,0,0,0,262.12,838.54l.16.07,1.49.64c1.76.77,3.52,1.51,5.29,2.25l2.95,1.23c.42.18.86.34,1.29.54l3.68,1.48.62.23a432.59,432.59,0,0,0,125.9,28.84l.78.06,4.29.3,1.65.1,3.41.2,2.38.12,2.64.12,3,.12,1.91,0,3.66.11h1.45l3.63.06h.1c1.67,0,3.34,0,5,0h0c1.88,0,3.75,0,5.63,0h.58A434.68,434.68,0,0,0,597.8,844.77l1.61-.65,3.31-1.33q3.49-1.42,7-2.91A436,436,0,0,0,746.78,747l.1-.09q2.34-2.34,4.63-4.7l.1-.11,1.25-1.3.15-.15q1.69-1.77,3.38-3.57c.23-.23.46-.47.68-.71l.56-.6c.37-.39.73-.78,1.07-1.18l2.93-3.21.64-.69.35-.4.72-.8c.31-.35.62-.7.93-1.07l1.19-1.35c.61-.68,1.21-1.35,1.81-2l.74-.83c1.51-1.75,3-3.51,4.51-5.28.28-.34.53-.67.83-1,1.33-1.6,2.64-3.17,3.94-4.77l.62-.76c1.49-1.84,3-3.69,4.42-5.55l.23-.3c.24-.31.47-.61.71-.87a21.42,21.42,0,0,0,1.84-2.31c.7-1.07,1.48-2,2.24-3.06l4.28-5.78q2.14-2.9,4.18-5.85c.17-.24.34-.48.53-.73,1.39-2,2.77-4,4.12-6s2.69-4,4-6.06l.12-.18.23-.36c1.34-2.07,2.67-4.15,4-6.24s2.6-4.18,3.86-6.29l.18-.3h0c1-1.67,2-3.36,3-5.05.37-.64.73-1.29,1.11-1.94l.31-.53q3.36-5.87,6.54-11.83c.44-.84.89-1.67,1.32-2.51s1-1.82,1.43-2.74,1.06-2.07,1.61-3.1l1.16-2.31c.88-1.78,1.75-3.56,2.61-5.32l.64-1.36q1.08-2.21,2.07-4.39c.29-.63.57-1.25.86-1.87.64-1.39,1.26-2.78,1.88-4.18l.74-1.65q2.37-5.35,4.6-10.82c.29-.71.56-1.42.85-2.12.37-.94.75-1.87,1.12-2.82A434.07,434.07,0,0,0,874.83,449v-.21c0-1.54.06-3.07.09-4.61V438A68.55,68.55,0,0,0,806.43,369.65Z"/></g></g></g></svg>