<svg xmlns="http://www.w3.org/2000/svg" viewBox="0 0 60.89 59.08"><title>icon-kubernetes</title><path d="M31.79,1.54a4.12,4.12,0,0,0-1.55.39L9.07,12.05a4,4,0,0,0-2.19,2.72L1.66,37.49a3.94,3.94,0,0,0,.55,3.08,2.35,2.35,0,0,0,.23.32L17.09,59.11a4.07,4.07,0,0,0,3.16,1.51h23.5a4.06,4.06,0,0,0,3.17-1.51L61.56,40.88a4,4,0,0,0,.78-3.39L57.11,14.76A4,4,0,0,0,54.92,12L33.75,1.93A4.13,4.13,0,0,0,31.79,1.54Z" transform="translate(-1.55 -1.53)" style="fill:#326ce5"/><path d="M32,9.27a1.35,1.35,0,0,0-1.27,1.41V11c0,.45.12.79.17,1.2a12.09,12.09,0,0,1,.15,2.3,1.47,1.47,0,0,1-.42.66l0,.53a16.74,16.74,0,0,0-2.29.36A16.25,16.25,0,0,0,20,20.82l-.45-.33a1,1,0,0,1-.76-.07,11.6,11.6,0,0,1-1.7-1.55,11.46,11.46,0,0,0-.84-.88,3.45,3.45,0,0,0-.28-.23,1.52,1.52,0,0,0-.88-.33,1.22,1.22,0,0,0-1,.45,1.34,1.34,0,0,0,.31,1.87h0l.26.21a11.52,11.52,0,0,0,1.05.62,11.26,11.26,0,0,1,1.89,1.32,1.48,1.48,0,0,1,.25.73l.41.36a16.4,16.4,0,0,0-2.59,11.43l-.53.16a1.89,1.89,0,0,1-.54.55,12.2,12.2,0,0,1-2.28.37c-.41,0-.77,0-1.21.1l-.34.08h0a1.27,1.27,0,1,0,.56,2.46h.05l.33-.07a11.55,11.55,0,0,0,1.13-.44A11.2,11.2,0,0,1,15.06,37a1.38,1.38,0,0,1,.73.25l.55-.09a16.5,16.5,0,0,0,7.31,9.12l-.23.55a1.32,1.32,0,0,1,.11.72,11.87,11.87,0,0,1-1.15,2.06,10.4,10.4,0,0,0-.67,1l-.17.35a1.27,1.27,0,1,0,2.29,1.08h0c.05-.1.12-.23.16-.33a11.09,11.09,0,0,0,.37-1.16,8.7,8.7,0,0,1,1-2.27,1,1,0,0,1,.54-.27l.29-.52a16.33,16.33,0,0,0,9.52.68,17,17,0,0,0,2.17-.65l.27.49a1,1,0,0,1,.65.39,11.73,11.73,0,0,1,.87,2.13A11.09,11.09,0,0,0,40,51.7c0,.1.11.23.16.33a1.33,1.33,0,0,0,1.75.71,1.35,1.35,0,0,0,.54-1.8l-.17-.34c-.21-.39-.45-.66-.68-1a11.28,11.28,0,0,1-1.12-2,1,1,0,0,1,.09-.75,5.09,5.09,0,0,1-.21-.51,16.49,16.49,0,0,0,7.31-9.19l.54.1a1,1,0,0,1,.71-.26,10.64,10.64,0,0,1,2.21.65,10.83,10.83,0,0,0,1.14.43,3,3,0,0,0,.32.07h0a1.27,1.27,0,1,0,.56-2.46l-.37-.09c-.44-.08-.8-.06-1.21-.1a12.2,12.2,0,0,1-2.28-.37,1.47,1.47,0,0,1-.54-.55l-.51-.15A16.49,16.49,0,0,0,45.67,23l.45-.41a1,1,0,0,1,.23-.71,11.87,11.87,0,0,1,1.89-1.33,11.37,11.37,0,0,0,1-.61l.28-.23a1.34,1.34,0,0,0,.31-1.87A1.35,1.35,0,0,0,48,17.74l-.28.22c-.34.3-.55.59-.84.89a12.29,12.29,0,0,1-1.71,1.55,1.4,1.4,0,0,1-.76.08l-.49.34A16.6,16.6,0,0,0,33.4,15.74c0-.17,0-.47,0-.56a1,1,0,0,1-.42-.64,12.09,12.09,0,0,1,.15-2.3c0-.41.15-.75.17-1.2v-.36A1.35,1.35,0,0,0,32,9.27ZM30.41,19.1,30,25.75h0a1.13,1.13,0,0,1-1.12,1.07,1.06,1.06,0,0,1-.65-.22h0l-5.45-3.86a13.06,13.06,0,0,1,6.29-3.43A12.69,12.69,0,0,1,30.41,19.1Zm3.18,0a13.13,13.13,0,0,1,7.59,3.66L35.76,26.6h0a1.13,1.13,0,0,1-1.54-.21,1.1,1.1,0,0,1-.24-.64h0ZM20.8,25.24l5,4.45v0a1.12,1.12,0,0,1-.44,1.92v0L19,33.5A13,13,0,0,1,20.8,25.24Zm22.36,0a13.42,13.42,0,0,1,1.64,4,13.06,13.06,0,0,1,.27,4.25l-6.41-1.85v0a1.11,1.11,0,0,1-.8-1.32,1.16,1.16,0,0,1,.36-.59v0l4.95-4.43ZM31,30h2l1.26,1.59-.45,2L32,34.47l-1.84-.88-.45-2Zm6.53,5.42.26,0h0l6.6,1.12a13.07,13.07,0,0,1-5.28,6.63L36.54,37h0a1.11,1.11,0,0,1,.55-1.44,1.06,1.06,0,0,1,.42-.12Zm-11.08,0a1.11,1.11,0,0,1,1.07.87,1.08,1.08,0,0,1-.06.69l0,0-2.53,6.13a13.14,13.14,0,0,1-5.27-6.59l6.54-1.11h0l.22,0ZM32,38.16a1.1,1.1,0,0,1,.52.12,1.09,1.09,0,0,1,.5.47h0l3.22,5.83q-.63.21-1.29.36a13.09,13.09,0,0,1-7.15-.37L31,38.75h0A1.14,1.14,0,0,1,32,38.16Z" transform="translate(-1.55 -1.53)" style="fill:#fff;stroke:#fff;stroke-width:0.25px"/></svg>