<svg xmlns="http://www.w3.org/2000/svg" xmlns:xlink="http://www.w3.org/1999/xlink" viewBox="0 0 61.14 45.86"><defs><linearGradient id="a" x1="5.82" y1="43.43" x2="55.54" y2="20.24" gradientTransform="matrix(1, 0, 0, -1, 0, 66)" gradientUnits="userSpaceOnUse"><stop offset="0" stop-color="#fff" stop-opacity="0.2"/><stop offset="1" stop-color="#fff" stop-opacity="0"/></linearGradient></defs><title>icon-docker</title><rect x="28.02" width="6.37" height="6.37" style="fill:#0175bc"/><rect x="28.02" y="5.73" width="6.37" height="0.64" style="fill:#010101;opacity:0.10000000149011612;isolation:isolate"/><rect x="28.02" width="6.37" height="0.64" style="fill:#fff;opacity:0.20000000298023224;isolation:isolate"/><rect x="28.02" y="7.64" width="6.37" height="6.37" style="fill:#0175bc"/><rect x="28.02" y="13.37" width="6.37" height="0.64" style="fill:#010101;opacity:0.10000000149011612;isolation:isolate"/><rect x="28.02" y="7.64" width="6.37" height="0.64" style="fill:#fff;opacity:0.20000000298023224;isolation:isolate"/><rect x="28.02" y="15.29" width="6.37" height="6.37" style="fill:#0175bc"/><rect x="28.02" y="21.02" width="6.37" height="0.64" style="fill:#010101;opacity:0.10000000149011612;isolation:isolate"/><rect x="28.02" y="15.29" width="6.37" height="0.64" style="fill:#fff;opacity:0.20000000298023224;isolation:isolate"/><rect x="20.38" y="7.64" width="6.37" height="6.37" style="fill:#0175bc"/><rect x="20.38" y="13.37" width="6.37" height="0.64" style="fill:#010101;opacity:0.10000000149011612;isolation:isolate"/><rect x="20.38" y="7.64" width="6.37" height="0.64" style="fill:#fff;opacity:0.20000000298023224;isolation:isolate"/><rect x="20.38" y="15.29" width="6.37" height="6.37" style="fill:#0175bc"/><rect x="20.38" y="21.02" width="6.37" height="0.64" style="fill:#010101;opacity:0.10000000149011612;isolation:isolate"/><rect x="20.38" y="15.29" width="6.37" height="0.64" style="fill:#fff;opacity:0.20000000298023224;isolation:isolate"/><rect x="12.74" y="7.64" width="6.37" height="6.37" style="fill:#0175bc"/><rect x="12.74" y="13.37" width="6.37" height="0.64" style="fill:#010101;opacity:0.10000000149011612;isolation:isolate"/><rect x="12.74" y="7.64" width="6.37" height="0.64" style="fill:#fff;opacity:0.20000000298023224;isolation:isolate"/><rect x="12.74" y="15.29" width="6.37" height="6.37" style="fill:#0175bc"/><rect x="12.74" y="21.02" width="6.37" height="0.64" style="fill:#010101;opacity:0.10000000149011612;isolation:isolate"/><rect x="12.74" y="15.29" width="6.37" height="0.64" style="fill:#fff;opacity:0.20000000298023224;isolation:isolate"/><rect x="5.1" y="15.29" width="6.37" height="6.37" style="fill:#0175bc"/><rect x="5.1" y="21.02" width="6.37" height="0.64" style="fill:#010101;opacity:0.10000000149011612;isolation:isolate"/><rect x="5.1" y="15.29" width="6.37" height="0.64" style="fill:#fff;opacity:0.20000000298023224;isolation:isolate"/><rect x="35.67" y="15.29" width="6.37" height="6.37" style="fill:#0175bc"/><rect x="35.67" y="21.02" width="6.37" height="0.64" style="fill:#010101;opacity:0.10000000149011612;isolation:isolate"/><rect x="35.67" y="15.29" width="6.37" height="0.64" style="fill:#fff;opacity:0.20000000298023224;isolation:isolate"/><path d="M61.54,30c-.18-.11-3.82-2.41-7.26-1.87a10.76,10.76,0,0,0-4.19-5.76l-.88-.59-.74.77a3.32,3.32,0,0,0-.45.63c-.57,1-1.4,3.23-.94,7.36a1.4,1.4,0,0,1-.32,1.05,1.18,1.18,0,0,1-.88.39H1.43v1.27c0,19.55,14.25,21.66,20.38,21.66a36.41,36.41,0,0,0,31.53-18c6.31-1,8.49-5,8.61-5.16l.62-1Z" transform="translate(-1.43 -9.07)" style="fill:#0175bc"/><path d="M45.88,32H1.43v.64H45.88a1.18,1.18,0,0,0,.88-.39,1.4,1.4,0,0,0,.32-1.05c0-.13,0-.24,0-.37a1.33,1.33,0,0,1-.29.78A1.18,1.18,0,0,1,45.88,32Z" transform="translate(-1.43 -9.07)" style="fill:#fff;opacity:0.20000000298023224;isolation:isolate"/><path d="M61.54,30c-.18-.11-3.82-2.41-7.26-1.87a10.81,10.81,0,0,0-4.19-5.76l-.88-.59-.74.77a2.85,2.85,0,0,0-.3.39c-.48.74-1.3,2.51-1.21,5.85,0-3.83,1.29-5.38,1.51-5.61l.74-.76.88.59a10.71,10.71,0,0,1,4.19,5.76c3.44-.55,8.29,1.9,8.29,1.9Z" transform="translate(-1.43 -9.07)" style="fill:#fff;opacity:0.20000000298023224;isolation:isolate"/><path d="M62,31.11c-.12.18-2.3,4.15-8.61,5.15a36.41,36.41,0,0,1-31.53,18c-6.13,0-20.38-2.11-20.38-21.65v.63c0,19.55,14.25,21.66,20.38,21.66a36.41,36.41,0,0,0,31.53-18c6.31-1,8.49-5,8.61-5.16l.62-1-.27-.18Z" transform="translate(-1.43 -9.07)" style="fill:#010101;opacity:0.10000000149011612;isolation:isolate"/><path d="M35.82,16.71H29.45v6.37h6.37Zm0,7.65H29.45v6.37h6.37Zm7.64,0H37.1v6.37h6.36ZM35.82,9.07H29.45v6.37h6.37Zm-7.64,7.64H21.81v6.37h6.37ZM12.89,24.36H6.52v6.37h6.37ZM61.54,30c-.18-.11-3.82-2.41-7.26-1.87a10.81,10.81,0,0,0-4.19-5.76l-.88-.59-.74.77a3.32,3.32,0,0,0-.45.63c-.57,1-1.4,3.23-.94,7.36a1.4,1.4,0,0,1-.32,1.05,1.18,1.18,0,0,1-.88.39H1.43v1.27c0,19.55,14.25,21.66,20.38,21.66a36.41,36.41,0,0,0,31.53-18c6.31-1,8.49-5,8.61-5.16l.62-1ZM28.18,24.36H21.81v6.37h6.37Zm-7.64-7.65H14.17v6.37h6.37Zm0,7.65H14.17v6.37h6.37Z" transform="translate(-1.43 -9.07)" style="fill:url(#a)"/></svg>