<svg xmlns="http://www.w3.org/2000/svg" viewBox="0 0 62.24 48.21"><title>icon-azure</title><path d="M29.33,52.76,44,50.16l.14,0-7.55-9c-4.15-4.94-7.55-9-7.55-9s7.8-21.51,7.84-21.59,5.32,9.14,12.86,22.2L62.67,55.16l.1.17h-48Z" transform="translate(-0.53 -7.13)" style="fill:#0089d6"/><path d="M.53,50S4.09,43.83,8.44,36.3l7.9-13.7,9.22-7.73c5.06-4.25,9.22-7.74,9.24-7.74a2.18,2.18,0,0,1-.15.37L24.65,29,14.82,50H7.68C3.75,50,.53,50,.53,50Z" transform="translate(-0.53 -7.13)" style="fill:#0089d6"/></svg>