<svg xmlns="http://www.w3.org/2000/svg" viewBox="0 0 62.57 62.57"><title>icon-gcp</title><path d="M40.8,47.29l-5.86,10.2H19.57a3.81,3.81,0,0,1-3.31-1.92L3.83,33.9a3.79,3.79,0,0,1,0-3.8l4.73-8.24L14.39,32l8.8,15.29Z" transform="translate(-0.71 -0.71)" style="fill:#fbbc05"/><path d="M60.17,33.9,47.74,55.57a3.82,3.82,0,0,1-3.31,1.93h-9.5L40.8,47.3,49.61,32,40.8,16.71H52.49L60.17,30.1A3.79,3.79,0,0,1,60.17,33.9Z" transform="translate(-0.71 -0.71)" style="fill:#ea4335"/><path d="M52.49,16.71H23.19L14.39,32,8.56,21.85l7.7-13.42a3.81,3.81,0,0,1,3.31-1.92H44.43a3.82,3.82,0,0,1,3.32,1.92Z" transform="translate(-0.71 -0.71)" style="fill:#4285f4"/><path d="M40.8,16.71,49.6,32,40.8,47.29H23.2L14.39,32l8.8-15.29H40.8" transform="translate(-0.71 -0.71)" style="fill:#e0e0e0"/><circle cx="31.29" cy="31.29" r="7.65" style="fill:#fff"/><path d="M16.26,8.75a3.82,3.82,0,0,1,3.31-1.93H44.43a3.85,3.85,0,0,1,3.32,1.93l4.56,8h.18L47.75,8.43a3.82,3.82,0,0,0-3.32-1.92H19.57a3.81,3.81,0,0,0-3.31,1.92L8.56,21.85l.09.16Z" transform="translate(-0.71 -0.71)" style="fill:#fff;opacity:0.20000000298023224;isolation:isolate"/><polyline points="13.68 31.29 22.48 15.99 51.78 15.99 51.59 15.67 22.48 15.67 13.68 30.97" style="fill:#1a237e;fill-opacity:0.20000000298023224"/><path d="M3.83,30.42l4.73-8.25,5.83,10.15,8.8,15.29H40.62l.18-.32H23.19L14.39,32,8.56,21.85,3.83,30.1a3.8,3.8,0,0,0-.5,2.06A3.81,3.81,0,0,1,3.83,30.42Z" transform="translate(-0.71 -0.71)" style="fill:#fff;opacity:0.20000000298023224;isolation:isolate"/><g style="opacity:0.20000000298023224"><path d="M35.12,57.17H19.57a3.81,3.81,0,0,1-3.31-1.92L3.83,33.58a3.81,3.81,0,0,1-.5-1.74,3.8,3.8,0,0,0,.5,2.06L16.26,55.57a3.82,3.82,0,0,0,3.31,1.93H34.94Z" transform="translate(-0.71 -0.71)" style="fill:#bf360c"/></g><g style="opacity:0.20000000298023224"><polygon points="49.07 31.29 40.27 15.99 40.09 15.99 48.89 31.29 49.07 31.29" style="fill:#3e2723"/><path d="M60.17,33.58,47.74,55.25a3.82,3.82,0,0,1-3.31,1.93H35.12l-.19.32h9.5a3.84,3.84,0,0,0,3.31-1.93L60.17,33.9a3.8,3.8,0,0,0,.5-2.06A3.81,3.81,0,0,1,60.17,33.58Z" transform="translate(-0.71 -0.71)" style="fill:#3e2723"/></g><g style="opacity:0.20000000298023224"><path d="M52.49,17l7.68,13.4a3.81,3.81,0,0,1,.5,1.74,3.8,3.8,0,0,0-.5-2.06L52.49,16.7H40.8L41,17" transform="translate(-0.71 -0.71)" style="fill:#fff"/><polygon points="40.09 46.9 49.07 31.29 48.89 31.29 40.09 46.58 34.22 56.78 34.41 56.78 40.09 46.9" style="fill:#fff"/></g><rect width="62.57" height="62.57" style="fill:none"/></svg>