<svg xmlns="http://www.w3.org/2000/svg" xmlns:xlink="http://www.w3.org/1999/xlink" viewBox="0 0 61.74 56.59"><defs><linearGradient id="a" x1="11.68" y1="39.86" x2="63.55" y2="15.67" gradientTransform="matrix(1, 0, 0, -1, 0, 62.18)" gradientUnits="userSpaceOnUse"><stop offset="0" stop-color="#fff" stop-opacity="0.2"/><stop offset="1" stop-color="#fff" stop-opacity="0"/></linearGradient></defs><title>icon-aws</title><path d="M49.83,34.29s-2.4-4.17-2.4-7.07V16.77c0-8.76-4.8-14-12.86-14-8.94,0-13.84,3.6-15.41,11.32l-.26,1.31,10.23,1.7.26-1.18c.47-2,1.6-2.86,3.9-2.86,1.72,0,3.48.5,3.8,3.95-2.61.23-8.61.9-12.09,2.61-4.81,2.36-7.15,6.1-7.15,11.45,0,6.15,4.14,10.29,10.29,10.29,5.78,0,8.81-1.68,10.36-3.21A20.08,20.08,0,0,0,43,41.24l.82.39,6.49-6.49ZM32,32.36a2.27,2.27,0,0,1-2.57-2.57c0-4,4.63-4.92,7.65-5.1C36.57,30.29,32.84,32.35,32,32.36Z" transform="translate(-1.13 -2.78)" style="fill:#333"/><path d="M34.57,3.42c8.06,0,12.86,5.23,12.86,14v-.64c0-8.76-4.8-14-12.86-14-8.94,0-13.84,3.6-15.41,11.32l-.26,1.31.13,0,.13-.69C20.73,7,25.63,3.42,34.57,3.42Z" transform="translate(-1.13 -2.78)" style="fill:#fff;opacity:0.10000000149011612;isolation:isolate"/><path d="M43.84,41,43,40.6a20.08,20.08,0,0,1-4.52-3.08c-1.55,1.53-4.58,3.2-10.36,3.2-6.06,0-10.15-4-10.27-10,0,.13,0,.25,0,.39,0,6.15,4.14,10.29,10.29,10.29,5.78,0,8.81-1.68,10.36-3.21A20.08,20.08,0,0,0,43,41.24l.82.39,6.49-6.49-.24-.4Z" transform="translate(-1.13 -2.78)" style="fill:#010101;opacity:0.20000000298023224;isolation:isolate"/><path d="M56.55,48.32a1.27,1.27,0,0,0-1.4-.47c-.13,0-12.06,3.8-23.15,3.8-11.82,0-25.35-4-28.67-7.34a1.29,1.29,0,0,0-1.88,1.76A42.74,42.74,0,0,0,32,59.37c18.88,0,24.32-9.18,24.58-9.57A1.29,1.29,0,0,0,56.55,48.32Z" transform="translate(-1.13 -2.78)" style="fill:#f79120"/><path d="M57.72,42.65A22.19,22.19,0,0,0,50.83,44,1.29,1.29,0,0,0,50,45.41a1.27,1.27,0,0,0,1.17,1.09,36,36,0,0,1,6.32,1,35.61,35.61,0,0,1-1,6.44,1.28,1.28,0,0,0,.69,1.45,1.24,1.24,0,0,0,.56.13,1.27,1.27,0,0,0,1-.47c.43-.53,4.15-5.2,4.15-8.53C62.87,42.65,59,42.65,57.72,42.65Z" transform="translate(-1.13 -2.78)" style="fill:#f79120"/><path d="M56.58,49.16c-.26.39-5.7,9.57-24.58,9.57A42.69,42.69,0,0,1,1.45,45.42a1.23,1.23,0,0,1-.26-.49,1.26,1.26,0,0,0,.26,1.14A42.74,42.74,0,0,0,32,59.37c18.88,0,24.32-9.18,24.58-9.57a1.23,1.23,0,0,0,.12-1A1.52,1.52,0,0,1,56.58,49.16Z" transform="translate(-1.13 -2.78)" style="fill:#010101;opacity:0.10000000149011612;isolation:isolate"/><path d="M50.83,44.67a21.75,21.75,0,0,1,6.89-1.38c1.24,0,4.88,0,5.11,3.55,0-.11,0-.22,0-.33,0-3.86-3.87-3.86-5.15-3.86A22.19,22.19,0,0,0,50.83,44,1.29,1.29,0,0,0,50,45.41s0,.08,0,.13A1.29,1.29,0,0,1,50.83,44.67Z" transform="translate(-1.13 -2.78)" style="fill:#fff;opacity:0.20000000298023224;isolation:isolate"/><path d="M17.85,31.08c0,6.15,4.14,10.29,10.29,10.29,5.78,0,8.81-1.68,10.36-3.21A20.08,20.08,0,0,0,43,41.24l.82.39,6.49-6.49-.5-.85s-2.4-4.17-2.4-7.07V16.77c0-8.76-4.8-14-12.86-14-8.94,0-13.84,3.6-15.41,11.32l-.26,1.31,10.23,1.7.26-1.18c.47-2,1.6-2.86,3.9-2.86,1.72,0,3.48.5,3.8,3.95-2.61.23-8.61.9-12.09,2.61C20.19,22,17.85,25.73,17.85,31.08Zm19.23-6.39c-.51,5.6-4.24,7.66-5.08,7.67a2.27,2.27,0,0,1-2.57-2.57C29.43,25.81,34.06,24.87,37.08,24.69ZM56.55,48.32a1.27,1.27,0,0,0-1.4-.47c-.13,0-12.06,3.8-23.15,3.8-11.82,0-25.35-4-28.67-7.34a1.29,1.29,0,0,0-1.88,1.76A42.74,42.74,0,0,0,32,59.37c18.88,0,24.32-9.18,24.58-9.57A1.29,1.29,0,0,0,56.55,48.32Zm1.17-5.67A22.19,22.19,0,0,0,50.83,44,1.29,1.29,0,0,0,50,45.41a1.27,1.27,0,0,0,1.17,1.09,36,36,0,0,1,6.32,1,35.61,35.61,0,0,1-1,6.44,1.28,1.28,0,0,0,.69,1.45,1.24,1.24,0,0,0,.56.13,1.27,1.27,0,0,0,1-.47c.43-.53,4.15-5.2,4.15-8.53C62.87,42.65,59,42.65,57.72,42.65Z" transform="translate(-1.13 -2.78)" style="fill:url(#a)"/></svg>