<svg xmlns="http://www.w3.org/2000/svg" viewBox="0 0 53.27 59.19"><title>icon-server</title><path d="M59.63,47.28c0,3.27-2.65,4.44-5.91,4.44H12.28c-3.26,0-5.91-1.17-5.91-4.44L10.8,29.52c.33-3.1,2.65-5.92,5.92-5.92H49.28c3.27,0,5.45,2.59,5.92,5.92Z" transform="translate(-6.37 -1.41)" style="fill:#909596"/><path d="M59.63,35.44c0,3.27-2.65,4.44-5.91,4.44H12.28c-3.26,0-5.91-1.17-5.91-4.44L10.8,17.68c.33-3.1,2.65-5.92,5.92-5.92H49.28c3.27,0,5.45,2.59,5.92,5.92Z" transform="translate(-6.37 -1.41)" style="fill:#909596"/><path d="M59.63,23.6C59.63,26.87,57,28,53.72,28H12.28C9,28,6.37,26.87,6.37,23.6L10.8,5.85c.91-2.46,2.65-4.44,5.92-4.44H49.28C52.55,1.41,54,3,55.2,5.85Z" transform="translate(-6.37 -1.41)" style="fill:#909596"/><path d="M53.72,28H12.28C9,28,6.37,26.87,6.37,23.6v8.88c0,3.27,2.65,4.44,5.91,4.44H53.72c3.26,0,5.91-1.17,5.91-4.44V23.6C59.63,26.87,57,28,53.72,28Z" transform="translate(-6.37 -1.41)" style="fill:#dbdddd"/><path d="M53.72,39.88H12.28c-3.26,0-5.91-1.17-5.91-4.44v8.88c0,3.27,2.65,4.44,5.91,4.44H53.72c3.26,0,5.91-1.17,5.91-4.44V35.44C59.63,38.71,57,39.88,53.72,39.88Z" transform="translate(-6.37 -1.41)" style="fill:#dbdddd"/><path d="M53.72,51.72H12.28c-3.26,0-5.91-1.17-5.91-4.44v8.87c0,3.27,2.65,4.44,5.91,4.44H53.72c3.26,0,5.91-1.17,5.91-4.44V47.28C59.63,50.55,57,51.72,53.72,51.72Z" transform="translate(-6.37 -1.41)" style="fill:#dbdddd"/><path d="M52.24,56.15a3,3,0,1,1-3-2.95A3,3,0,0,1,52.24,56.15Z" transform="translate(-6.37 -1.41)" style="fill:#437f1c"/><path d="M52.24,44.32a3,3,0,1,1-3-3A3,3,0,0,1,52.24,44.32Z" transform="translate(-6.37 -1.41)" style="fill:#437f1c"/><path d="M52.24,32.48a3,3,0,1,1-3-3A3,3,0,0,1,52.24,32.48Z" transform="translate(-6.37 -1.41)" style="fill:#437f1c"/></svg>