<svg xmlns="http://www.w3.org/2000/svg" viewBox="0 0 48.97 30.31"><title>icon-alibabacloud</title><path d="M20.84,35.76l-11-2.4A2.34,2.34,0,0,1,8,31.19V19.34a2.34,2.34,0,0,1,1.8-2.17l11-2.39L22,10.11H9.19A8.17,8.17,0,0,0,1,18.24V32.29a8.17,8.17,0,0,0,8.16,8.13H22Z" transform="translate(-1.03 -10.11)" style="fill:#fff"/><path d="M30.2,35.76l11-2.4A2.33,2.33,0,0,0,43,31.19s0-11.82,0-11.85a2.33,2.33,0,0,0-1.8-2.17l-11-2.39L29,10.11H41.84A8.16,8.16,0,0,1,50,18.24V32.29a8.16,8.16,0,0,1-8.16,8.13H29Z" transform="translate(-1.03 -10.11)" style="fill:#fff"/><rect x="19.8" y="14.57" width="9.36" height="1.17" style="fill:#fff"/></svg>